<?xml version="1.0" standalone="no"?>
<!DOCTYPE svg PUBLIC "-//W3C//DTD SVG 20010904//EN"
 "http://www.w3.org/TR/2001/REC-SVG-20010904/DTD/svg10.dtd">
<svg version="1.0" xmlns="http://www.w3.org/2000/svg"
 width="842.000000pt" height="596.000000pt" viewBox="0 0 842.000000 596.000000"
 preserveAspectRatio="xMidYMid meet">

<g transform="translate(0.000000,596.000000) scale(0.100000,-0.100000)"
fill="#000000" stroke="none">
<path d="M88 5906 l-48 -53 0 -341 0 -342 194 0 c192 0 195 0 223 -24 21 -19
24 -26 13 -29 -8 -2 -31 -9 -50 -16 -19 -7 -43 -14 -52 -16 -9 -2 -26 -9 -37
-15 -12 -6 -21 -7 -21 -3 0 4 -7 -2 -15 -13 -8 -10 -15 -16 -15 -12 0 4 -29
-8 -65 -27 -36 -19 -73 -35 -83 -35 -9 0 -43 20 -74 45 -36 28 -58 40 -58 31
0 -17 54 -64 87 -77 13 -5 23 -13 23 -18 0 -5 -25 -27 -55 -50 -53 -40 -55
-44 -55 -87 l0 -46 57 47 c32 25 75 58 95 72 l37 25 63 -21 c89 -29 193 -43
263 -36 144 15 325 89 410 166 22 20 47 35 55 34 86 -15 100 -18 128 -33 12
-7 22 -10 22 -6 0 3 11 -1 25 -10 14 -9 25 -14 25 -10 0 4 7 1 15 -6 8 -7 15
-9 15 -6 0 4 12 -1 28 -12 25 -17 39 -24 67 -32 35 -11 262 -193 266 -214 1
-2 20 -24 43 -49 23 -25 48 -58 56 -73 8 -16 22 -34 30 -41 8 -7 12 -13 8 -13
-3 0 9 -26 28 -57 19 -31 34 -63 34 -70 0 -7 11 -38 25 -69 14 -32 23 -59 20
-62 -2 -2 0 -13 6 -24 6 -11 13 -34 15 -51 3 -18 8 -43 11 -57 14 -63 6 -354
-11 -400 -3 -8 -8 -27 -11 -42 -12 -66 -16 -79 -37 -125 -12 -26 -22 -50 -22
-53 -3 -14 -51 -107 -62 -121 -13 -14 -23 -14 -111 3 -54 10 -162 21 -240 24
-79 4 -143 10 -143 13 0 4 83 99 185 211 101 113 186 214 188 225 7 49 -20 79
-316 347 -165 150 -364 331 -441 401 -129 118 -184 157 -211 148 -5 -1 -19 -5
-29 -7 -11 -2 -25 -9 -31 -16 -7 -7 -99 -110 -205 -228 -107 -118 -204 -227
-217 -241 -22 -24 -31 -63 -22 -98 2 -7 31 -39 64 -70 133 -123 272 -250 302
-276 18 -15 33 -32 33 -39 0 -15 -218 -256 -232 -256 -6 0 -45 32 -88 70 -78
71 -93 80 -85 58 2 -7 6 -51 9 -98 8 -119 19 -235 25 -261 0 -4 78 -5 173 -4
l171 3 -104 -44 c-57 -24 -147 -68 -199 -97 l-95 -54 -43 35 -42 34 0 -45 c0
-25 5 -49 10 -52 8 -5 8 -11 0 -20 -6 -8 -10 -44 -8 -89 l3 -75 66 45 c74 51
59 51 147 -3 15 -10 29 -18 32 -19 7 -1 59 -23 95 -39 26 -12 144 -48 200 -61
44 -10 125 -17 212 -18 50 0 90 -3 88 -4 -2 -2 -66 -14 -142 -28 -223 -38
-392 -100 -478 -175 -71 -63 -67 -1 -67 -924 0 -921 -4 -867 64 -918 42 -32
108 -65 174 -87 134 -46 417 -86 681 -97 l162 -6 6 -56 c30 -277 246 -488 521
-508 159 -11 306 42 424 154 81 76 141 183 163 288 l14 70 6 -40 c4 -22 7 -97
7 -167 l0 -128 -30 0 c-16 0 -30 -3 -30 -6 0 -14 66 -123 73 -121 4 1 24 30
43 65 l35 62 -34 0 -34 0 -6 163 c-7 224 -36 364 -98 489 l-29 57 0 807 0 807
-25 43 c-67 114 -309 205 -660 250 -138 17 -495 24 -645 12 -80 -6 -62 2 35
15 22 4 61 13 88 21 26 8 47 12 47 10 0 -3 13 2 28 10 15 8 54 24 87 35 32 11
76 32 97 46 21 14 50 30 63 35 14 5 25 14 25 20 0 6 4 9 9 5 5 -3 16 4 24 15
7 11 16 17 20 14 3 -3 56 45 118 106 l112 112 141 -46 c436 -142 808 -425
1058 -805 107 -162 164 -282 173 -365 8 -81 28 -141 83 -256 35 -72 44 -104
58 -208 l16 -122 -54 -63 c-30 -34 -63 -75 -74 -92 -10 -16 -26 -38 -35 -48
-32 -35 -118 -214 -148 -307 -52 -160 -61 -225 -61 -418 0 -123 5 -203 16
-263 l17 -87 -59 -77 c-32 -42 -67 -88 -77 -101 l-19 -24 85 0 c81 0 86 1 102
27 l18 26 14 -26 c11 -22 20 -27 53 -27 22 0 40 2 40 5 0 3 -11 32 -25 64
l-24 59 56 93 c62 104 138 260 173 357 17 46 34 73 64 98 l41 35 3 -355 2
-356 25 0 25 0 0 384 c0 365 1 386 19 398 26 18 177 154 231 208 25 25 85 81
135 125 49 44 111 100 139 125 121 108 163 146 197 177 34 32 36 33 55 16 11
-10 62 -56 114 -103 52 -47 113 -101 135 -120 71 -63 159 -143 230 -211 66
-63 133 -123 218 -199 l37 -33 0 -384 0 -383 25 0 25 0 0 355 c0 195 3 355 8
355 4 0 30 -22 58 -48 113 -105 110 -103 130 -80 18 19 18 21 -27 61 -26 23
-84 76 -129 117 -46 41 -102 91 -124 110 -22 19 -81 73 -131 120 -163 153
-499 455 -576 517 -12 10 -21 7 -45 -15 -17 -15 -66 -58 -109 -97 -43 -38 -88
-79 -100 -90 -12 -11 -77 -69 -145 -130 -68 -60 -162 -147 -209 -191 -138
-130 -254 -235 -257 -231 -2 2 5 46 17 98 34 156 49 295 49 467 l0 163 28 24
c15 13 31 25 36 25 5 0 50 -17 100 -37 84 -34 100 -37 216 -41 95 -3 140 0
189 13 137 35 266 115 361 224 35 39 62 61 76 61 32 0 201 -54 278 -89 92 -42
179 -95 256 -156 119 -96 116 -91 124 -183 22 -270 147 -642 291 -866 19 -30
35 -66 35 -80 0 -53 -55 -248 -89 -314 -29 -58 -27 -64 21 -60 41 3 42 4 65
63 13 33 34 99 47 147 l23 87 47 -62 c26 -34 84 -101 128 -149 l80 -88 97 0
96 0 -93 91 c-112 110 -212 227 -279 329 l-50 75 -6 115 c-13 267 -87 476
-254 721 l-43 62 0 156 c0 86 4 161 8 167 5 8 29 8 87 -3 93 -17 182 -11 287
18 124 35 202 82 309 188 76 76 93 89 83 64 -28 -66 -34 -40 166 -687 51 -165
96 -304 101 -310 5 -6 19 -26 32 -45 28 -44 98 -81 152 -81 23 0 127 28 242
65 111 36 214 65 230 65 16 0 63 11 103 25 40 14 77 25 82 25 4 0 8 -133 8
-295 l0 -295 -192 0 c-115 0 -199 -4 -208 -11 -12 -8 27 -51 205 -224 l220
-215 115 0 115 0 218 213 c177 172 216 214 206 225 -10 9 -65 12 -206 12
l-193 0 2 342 3 342 407 131 c223 72 417 136 431 142 31 15 72 68 91 119 8 21
52 122 97 224 63 142 83 198 86 240 l3 55 -20 -40 c-12 -22 -62 -134 -112
-250 -138 -321 -125 -303 -257 -346 -53 -16 -188 -60 -301 -96 -355 -113 -438
-139 -727 -232 -155 -50 -294 -91 -310 -91 -16 0 -89 -20 -163 -45 -184 -62
-228 -59 -295 18 -31 35 -38 53 -191 552 -23 77 -59 192 -78 255 -40 127 -43
155 -22 203 30 72 21 69 646 267 107 34 326 104 486 156 160 52 304 94 319 94
15 0 98 23 184 51 196 64 224 63 329 -4 40 -26 79 -47 88 -47 8 0 96 -51 196
-112 124 -78 188 -124 204 -148 l24 -35 0 37 c0 25 -7 44 -22 58 -33 31 -308
200 -325 200 -8 0 -61 29 -118 65 -157 98 -154 98 -380 26 -105 -33 -210 -67
-234 -75 -24 -9 -58 -16 -75 -16 -17 0 -71 -13 -121 -29 -49 -17 -191 -62
-315 -101 -694 -221 -840 -271 -873 -299 l-32 -29 32 67 c49 101 67 181 67
301 1 197 -61 346 -205 494 -49 50 -89 92 -89 93 0 1 44 40 98 86 106 91 223
177 241 177 7 0 60 -20 119 -44 121 -50 282 -99 422 -128 72 -15 150 -21 328
-25 274 -6 363 3 577 57 182 46 249 71 427 157 l137 66 73 -43 c40 -24 117
-76 171 -116 l97 -73 0 84 0 85 -110 72 -111 73 28 20 c15 11 64 49 108 85
l80 66 3 93 3 93 -88 -80 c-110 -101 -249 -202 -278 -202 -12 0 -53 14 -91 31
-210 96 -538 165 -791 169 -17 0 13 34 131 148 l154 147 -189 3 -189 2 2 323
3 322 525 5 c586 6 549 1 607 77 l28 36 3 604 2 603 -30 0 -30 0 0 -585 c0
-643 1 -628 -60 -660 -26 -13 -154 -15 -1066 -13 l-1037 3 -22 93 -22 92 408
0 408 0 7 35 c8 46 -9 156 -35 226 -64 170 -269 261 -491 219 -173 -33 -283
-148 -310 -325 -6 -38 -12 -71 -14 -72 -1 -1 -17 34 -35 80 -18 45 -53 120
-77 166 l-44 83 0 329 0 329 -30 0 -30 0 0 -277 c-1 -249 -2 -276 -16 -258
-154 205 -300 358 -453 473 l-83 63 -96 -3 -96 -3 -33 -103 c-147 -467 -132
-997 40 -1431 24 -61 42 -111 40 -111 -3 0 -26 18 -52 40 -26 22 -52 40 -58
40 -6 0 -52 -45 -103 -99 -55 -60 -97 -98 -105 -95 -7 3 -53 9 -101 12 l-89 7
-36 95 c-20 52 -43 99 -52 104 -11 7 -48 0 -129 -25 l-113 -35 0 -39 c1 -22 7
-76 15 -119 l14 -79 -24 -16 c-14 -9 -48 -37 -76 -63 -28 -27 -59 -48 -69 -48
-10 0 -62 16 -116 36 -54 20 -104 34 -111 32 -7 -3 -38 -53 -68 -111 -46 -88
-53 -107 -42 -120 7 -9 56 -41 108 -73 71 -43 93 -61 89 -73 -4 -9 -9 -55 -12
-102 l-6 -86 -98 -49 c-69 -33 -99 -54 -99 -66 0 -21 69 -219 81 -232 5 -6 52
2 116 19 l107 28 16 -24 c8 -13 33 -44 56 -69 l41 -45 -48 -120 c-27 -66 -47
-128 -45 -137 2 -10 3 -18 3 -18 -1 0 -25 9 -53 19 -69 27 -203 44 -283 36
-159 -15 -298 -79 -419 -191 l-80 -74 -59 33 c-158 90 -257 164 -403 302 -135
128 -186 188 -274 319 -142 212 -238 442 -293 701 -25 120 -27 148 -28 365 0
223 7 309 36 423 l10 37 72 0 c147 0 308 67 431 179 89 81 147 162 188 265 33
80 33 83 33 246 l0 165 -39 94 -38 94 28 23 c16 13 69 51 117 84 l88 60 -59 0
c-56 0 -63 -3 -136 -56 l-77 -56 -51 56 c-29 33 -58 56 -70 56 -17 0 -15 -3
11 -26 17 -14 44 -42 60 -63 l30 -38 -102 -105 c-208 -214 -247 -257 -247
-270 0 -7 -9 -26 -20 -43 l-20 -30 0 268 0 267 -209 0 -209 0 -86 -95 -86 -95
0 -340 0 -340 209 0 209 0 -29 -77 c-16 -43 -36 -104 -45 -135 -18 -66 -21
-67 -105 -42 -101 30 -203 91 -287 172 -65 64 -87 93 -125 172 -49 100 -77
210 -77 300 0 151 74 337 180 453 34 37 55 67 47 67 -21 0 -107 -95 -149 -165
-20 -33 -49 -96 -64 -140 -25 -72 -28 -93 -28 -215 0 -121 3 -143 28 -215 53
-153 154 -281 295 -373 55 -35 197 -92 231 -92 10 0 21 -4 24 -9 3 -5 -3 -62
-14 -126 -54 -316 -28 -643 76 -959 61 -187 193 -432 321 -599 l45 -58 -109
75 c-179 123 -425 242 -601 291 -69 20 -79 27 -57 45 8 7 15 17 15 22 0 6 9
22 19 36 10 15 19 29 19 32 0 3 6 19 12 35 7 17 13 35 14 40 1 6 5 16 9 22 5
7 10 23 13 35 7 33 9 41 17 63 3 11 9 36 12 55 2 19 8 53 12 75 4 22 7 99 7
170 -1 117 -4 154 -19 220 -3 11 -7 34 -10 50 -6 42 -53 172 -71 200 -9 13
-14 26 -12 28 2 3 -16 35 -40 72 -23 36 -42 70 -42 75 0 4 -7 11 -16 14 -8 3
-13 10 -9 15 3 5 -5 17 -17 26 -13 8 -22 17 -21 20 1 2 -28 36 -65 75 -56 60
-164 146 -247 197 -21 13 -127 66 -135 68 -3 0 -14 6 -25 12 -11 6 -23 11 -27
12 -5 1 -10 2 -13 2 -3 1 -8 2 -12 3 -5 1 -34 10 -66 19 l-57 18 30 45 c40 57
75 136 95 212 20 79 20 268 0 347 -20 77 -92 225 -110 225 -10 0 -2 -22 25
-72 119 -222 110 -483 -25 -694 l-36 -56 -50 5 c-57 6 -68 12 -51 29 19 19
-14 56 -59 63 -28 5 -50 18 -72 42 -37 41 -90 67 -118 58 -18 -6 -19 2 -19
309 0 204 -4 316 -10 316 -6 0 -10 -111 -10 -314 l0 -314 -44 -45 c-29 -29
-57 -47 -79 -51 -19 -3 -42 -15 -52 -26 -17 -19 -31 -20 -197 -20 l-178 0 0
325 0 325 85 0 85 0 0 60 c0 33 -4 60 -10 60 -5 0 -10 -22 -10 -50 l0 -50 -66
0 c-74 0 -74 -2 -10 68 18 20 24 32 15 31 -7 -1 -35 -25 -61 -53z m5137 -54
c164 -123 400 -378 483 -524 l32 -55 0 -244 c0 -217 3 -249 19 -285 28 -61 76
-94 153 -102 l63 -7 13 -85 c9 -58 11 -152 8 -295 -5 -236 -25 -358 -92 -563
-51 -157 -49 -156 -120 -102 -82 62 -280 256 -339 334 -27 36 -54 65 -60 66
-13 0 -92 123 -150 232 -181 342 -253 648 -242 1032 4 141 11 211 32 316 27
136 90 350 103 350 4 0 47 -31 97 -68z m-2855 -226 c0 -207 -3 -276 -12 -283
-7 -6 -45 -20 -85 -32 -58 -17 -101 -21 -235 -23 l-163 -2 148 -3 c81 -2 147
-7 147 -11 0 -5 16 -27 36 -50 l36 -42 -189 -2 -188 -2 210 -7 c116 -3 228
-10 250 -15 37 -9 40 -12 43 -47 l3 -37 -275 0 -276 0 0 320 0 320 80 0 80 0
0 95 0 95 195 0 195 0 0 -274z m-413 107 c-3 -2 -32 -3 -66 -1 l-62 3 63 70
63 70 3 -69 c2 -37 1 -70 -1 -73z m888 -17 c79 -179 77 -383 -5 -560 -80 -175
-254 -317 -446 -366 -94 -24 -194 -27 -194 -6 0 20 46 166 70 221 18 42 21 44
67 47 l48 3 3 48 c3 46 4 47 37 47 18 0 40 3 49 6 13 5 16 -1 16 -25 0 -20 -5
-31 -14 -31 -20 0 -66 -39 -66 -56 0 -21 14 -17 25 9 6 12 20 23 33 25 20 3
22 -1 22 -36 0 -36 -3 -40 -40 -55 -77 -30 -41 -87 55 -87 35 0 85 33 72 47
-5 4 -13 0 -18 -10 -6 -9 -19 -17 -29 -17 -15 0 -20 7 -20 28 0 21 8 30 33 42
30 14 50 50 28 50 -6 0 -11 -6 -11 -14 0 -13 -20 -26 -41 -26 -5 0 -9 17 -9
39 0 33 4 40 30 51 17 7 33 22 36 35 5 20 12 23 61 24 72 0 136 32 174 84 16
22 28 41 26 43 -8 9 -223 74 -242 74 -14 0 -36 -14 -54 -35 l-31 -36 0 49 c0
42 3 50 25 60 36 16 52 55 36 88 -10 23 -8 31 15 61 33 43 219 233 228 233 4
0 18 -24 31 -54z m-301 -232 c34 -33 8 -84 -43 -84 -45 0 -69 44 -45 79 18 25
65 28 88 5z m-54 -150 l0 -45 -24 28 c-18 21 -22 32 -15 45 19 35 39 21 39
-28z m-61 -9 c30 -15 46 -46 57 -107 5 -31 3 -37 -16 -43 -14 -4 -25 -2 -30 5
-5 8 -9 7 -13 -4 -8 -20 -37 -21 -37 -1 0 8 -4 15 -10 15 -5 0 -10 -7 -10 -16
0 -11 -5 -14 -16 -10 -9 3 -17 6 -20 6 -2 0 -1 7 2 15 4 8 2 15 -4 15 -5 0
-12 -7 -16 -15 -7 -18 -36 -9 -36 12 0 10 -6 13 -16 9 -15 -6 -64 34 -64 53 0
6 32 20 72 32 39 12 83 28 97 35 32 17 26 17 60 -1z m285 -25 c50 -17 92 -33
95 -35 2 -3 -8 -19 -24 -35 -22 -23 -32 -27 -42 -19 -10 9 -13 7 -13 -10 0
-14 -6 -21 -20 -21 -11 0 -20 5 -20 10 0 6 -5 10 -11 10 -6 0 -9 -7 -5 -15 3
-8 4 -15 2 -15 -3 0 -11 -3 -20 -6 -11 -4 -16 -1 -16 10 0 9 -4 16 -10 16 -5
0 -10 -7 -10 -15 0 -21 -27 -19 -39 3 -9 14 -12 14 -20 3 -5 -8 -17 -11 -29
-7 -19 6 -19 9 -7 64 15 61 55 108 84 98 9 -3 56 -19 105 -36z m-1979 -6 c20
-16 26 -27 18 -30 -21 -9 -15 -42 8 -49 50 -16 -30 -125 -91 -125 -61 0 -120
48 -120 98 0 12 7 25 15 28 18 7 20 44 3 44 -7 0 2 14 20 30 43 40 103 42 147
4z m-195 -72 c-19 -9 -37 -18 -39 -19 -2 -2 3 -11 11 -20 9 -10 13 -25 10 -33
-5 -13 -3 -13 13 0 16 13 18 13 13 0 -2 -8 -11 -15 -19 -15 -8 0 -19 -4 -25
-7 -6 -4 -25 8 -43 26 -30 31 -31 33 -14 48 19 17 75 36 108 36 14 1 9 -4 -15
-16z m284 5 c69 -18 78 -37 35 -75 -30 -27 -35 -28 -45 -13 -6 9 -14 27 -18
41 -5 17 -4 21 2 11 7 -10 11 -10 17 -1 9 14 8 15 -35 33 -43 19 -21 21 44 4z
m1726 -77 c18 -11 3 -43 -24 -48 -12 -3 -16 4 -16 27 0 32 13 39 40 21z m3320
-147 c34 -85 90 -270 90 -295 0 -16 -76 -7 -104 11 -52 34 -55 50 -55 251 0
211 -1 211 69 33z m-4957 76 c29 -1 19 -17 -35 -57 -64 -46 -177 -97 -261
-117 -81 -19 -211 -19 -296 1 -70 15 -125 43 -88 44 9 0 17 5 17 12 0 6 3 8 6
5 4 -4 19 0 33 7 29 15 112 51 121 51 3 1 28 8 55 17 100 33 195 45 340 40 50
-1 98 -2 108 -3z m1577 -129 c0 -32 -16 -38 -51 -20 -27 15 -8 50 26 50 21 0
25 -5 25 -30z m-1684 -320 c82 -74 172 -155 199 -181 28 -26 154 -139 280
-253 244 -219 278 -256 267 -286 -4 -10 -94 -115 -201 -233 l-193 -214 -91 -6
-90 -5 -266 241 c-503 457 -569 518 -575 532 -3 8 -2 24 2 34 4 11 106 130
227 265 215 240 221 245 256 243 32 -2 57 -20 185 -137z m6054 -315 l0 -325
-207 0 -208 0 169 -163 170 -163 -115 -27 c-173 -41 -374 -114 -525 -190 l-81
-41 -72 43 c-40 23 -74 48 -77 55 -3 7 5 37 17 67 103 261 151 581 129 869 -5
75 -13 152 -16 169 l-6 31 411 0 411 0 0 -325z m-1705 -216 c22 -39 52 -85 68
-102 16 -18 42 -51 58 -74 l29 -42 -58 -6 c-31 -4 -64 -8 -72 -11 -9 -2 -26
14 -45 44 -16 26 -47 66 -68 89 -22 23 -37 46 -35 50 8 20 74 122 78 123 3 0
23 -32 45 -71z m-448 -275 c67 -32 137 -110 158 -175 23 -68 17 -168 -13 -230
-113 -233 -429 -235 -550 -5 -23 44 -27 63 -27 136 0 73 4 92 27 136 80 152
254 211 405 138z m-3962 -202 c192 -173 189 -171 174 -176 -8 -2 -65 -14 -127
-25 -62 -12 -151 -34 -197 -48 l-84 -26 -70 63 c-39 34 -71 64 -71 67 0 7 233
263 239 263 3 0 65 -53 136 -118z m4942 -121 l103 -84 -32 -56 c-50 -89 -97
-161 -154 -237 l-54 -71 -67 14 c-38 8 -78 17 -90 19 -23 4 -23 4 8 54 17 28
29 57 26 64 -3 8 -51 49 -107 92 -101 78 -101 78 -94 114 3 19 9 59 13 89 l6
54 90 31 c120 41 119 40 111 94 l-6 45 73 -69 c39 -38 118 -107 174 -153z
m1783 30 c201 -37 226 -43 344 -84 l119 -42 -97 -46 c-286 -137 -657 -205
-973 -180 -179 15 -354 50 -506 102 -67 23 -128 45 -135 48 -18 10 128 80 258
123 104 35 128 41 325 78 l100 19 26 -25 25 -24 30 31 29 31 175 -6 c105 -3
217 -13 280 -25z m-1574 -177 l45 -26 -75 -57 c-41 -31 -97 -76 -126 -100
l-52 -44 55 84 c30 46 64 103 76 127 12 23 24 42 27 42 3 0 25 -12 50 -26z
m-4397 -40 c57 -8 106 -15 108 -17 13 -14 -239 -232 -268 -232 -5 0 -13 -4
-17 -10 -4 -5 -13 -11 -21 -13 -8 -2 -27 -12 -43 -23 -15 -11 -36 -22 -47 -24
-10 -2 -33 -11 -50 -19 -17 -9 -31 -14 -31 -11 0 3 -9 1 -21 -5 -11 -6 -28
-13 -37 -15 -9 -2 -51 -11 -92 -20 -79 -18 -281 -26 -340 -14 -19 4 -51 10
-70 12 -19 3 -45 8 -58 11 -49 13 -63 16 -82 20 -11 3 -26 8 -33 13 -6 4 -20
9 -31 10 -10 2 -32 13 -50 26 -17 12 -33 21 -36 20 -9 -3 -70 29 -70 38 0 12
234 124 334 158 167 59 380 102 556 115 86 6 285 -4 399 -20z m3590 -269 c-19
-7 -54 -22 -78 -34 -65 -34 -67 -21 -3 31 56 46 57 46 87 31 l30 -16 -36 -12z
m396 2 l50 -13 -80 -77 -80 -76 -155 -1 -155 -1 -82 -92 -82 -92 -1 -71 0 -72
-52 -22 c-64 -27 -190 -71 -194 -67 -7 6 27 142 43 175 17 34 24 38 126 68 60
17 113 36 119 42 8 8 5 38 -7 103 l-18 92 24 18 c13 11 35 22 49 25 14 3 53
17 87 30 76 29 73 30 133 -1 69 -35 94 -33 120 10 19 31 26 35 63 35 23 0 64
-6 92 -13z m327 -176 c201 -212 247 -507 121 -771 -48 -101 -185 -239 -290
-293 -134 -70 -303 -94 -446 -66 -66 13 -64 7 -42 135 25 149 12 134 117 134
90 0 91 0 73 -20 -17 -19 -17 -20 19 -35 67 -28 180 -40 265 -28 81 12 131 30
131 46 0 5 -14 27 -32 49 -31 39 -31 41 -14 67 53 81 62 167 27 247 -12 26
-23 45 -26 42 -3 -2 5 -22 16 -44 16 -31 20 -53 17 -111 -3 -62 -7 -77 -34
-110 -84 -106 -238 -110 -322 -8 -72 88 -62 208 24 284 52 46 90 56 172 48 45
-5 53 -3 38 5 -11 6 -46 12 -78 12 l-58 1 0 120 0 120 53 70 c28 38 78 98 110
132 69 74 65 74 159 -26z m-1257 19 l52 0 40 -102 40 -102 -19 -56 c-11 -30
-22 -82 -26 -115 l-7 -60 -80 -21 c-151 -39 -142 -40 -169 14 -51 101 -145
205 -256 285 -14 9 8 1 47 -18 40 -19 77 -35 83 -35 6 0 31 33 56 73 107 167
90 150 141 143 25 -3 69 -6 98 -6z m915 -240 l0 -209 -27 -15 c-16 -8 -39 -26
-52 -40 l-24 -26 -196 -2 -196 -3 192 -2 191 -3 -16 -50 -16 -50 -180 -2 -181
-3 181 -2 181 -3 6 -33 c3 -17 8 -40 12 -49 6 -16 -8 -18 -187 -21 l-193 -2
196 -3 195 -2 24 -32 c17 -23 20 -35 13 -47 -9 -14 -43 -16 -242 -19 l-231 -2
0 325 0 325 80 0 80 0 0 90 0 90 195 0 195 0 0 -210z m-410 120 l0 -70 -66 0
-65 0 63 70 c35 38 64 70 66 70 1 0 2 -31 2 -70z m-1137 23 c116 -28 210 -81
298 -165 69 -67 159 -195 159 -226 0 -5 -26 -13 -57 -16 -32 -4 -74 -9 -93
-12 -34 -5 -36 -3 -54 41 -34 85 -165 175 -254 175 -39 0 -43 2 -37 20 10 32
-11 23 -25 -10 -7 -17 -11 -32 -9 -33 42 -30 59 -36 59 -23 0 8 -6 17 -12 19
-7 3 3 6 22 6 72 1 194 -79 231 -150 10 -21 19 -41 19 -44 0 -9 -222 -5 -310
6 -79 9 -141 28 -97 29 14 0 17 9 17 54 l0 53 -37 7 c-21 3 -131 6 -245 6
-207 0 -258 7 -258 36 0 19 122 124 188 162 145 83 328 107 495 65z m-2466
-34 c340 -28 619 -110 702 -204 39 -45 39 -75 0 -120 -122 -139 -654 -237
-1117 -207 -296 20 -517 65 -667 136 -158 76 -180 155 -62 230 209 132 698
203 1144 165z m1466 -93 c40 -29 110 -75 157 -102 47 -26 87 -49 89 -51 2 -2
-4 -12 -13 -22 -10 -11 -28 -45 -41 -76 l-23 -57 -18 28 c-66 109 -127 199
-177 261 -31 40 -55 73 -52 73 3 0 38 -24 78 -54z m787 -201 l0 -55 -225 0
-225 0 0 48 c0 27 3 52 7 55 3 4 105 7 225 7 l218 0 0 -55z m58 -1 c3 -38 1
-42 -22 -46 -25 -5 -26 -3 -26 44 0 45 2 49 23 46 18 -2 23 -10 25 -44z m-544
26 l26 -10 0 -170 0 -170 238 1 c130 1 248 4 262 8 22 6 25 13 28 56 3 38 -1
52 -14 62 -16 12 -16 13 -1 13 11 0 17 8 17 21 0 21 3 22 61 15 34 -3 123 -6
197 -6 l134 0 -4 -30 c-3 -19 -1 -29 6 -27 6 2 12 15 14 28 3 24 7 26 109 37
122 14 118 16 130 -68 18 -130 4 -239 -49 -368 -18 -46 -24 -53 -42 -48 -12 3
-36 6 -53 6 l-33 0 0 91 c0 82 -2 91 -20 96 -18 5 -20 14 -20 74 l0 69 -159 0
-160 0 -45 -47 c-26 -28 -46 -58 -46 -70 0 -16 -6 -23 -20 -23 -19 0 -20 -7
-20 -119 l0 -119 -56 -18 c-53 -16 -59 -17 -85 -1 -23 13 -29 13 -29 2 0 -7 6
-16 13 -18 6 -3 -4 -6 -23 -6 -51 -1 -128 39 -182 95 -56 56 -72 98 -66 166 4
33 2 48 -6 45 -6 -2 -12 -29 -14 -61 -2 -46 2 -65 25 -107 40 -75 154 -158
216 -159 28 0 13 -15 -45 -45 -29 -15 -71 -41 -94 -57 -42 -30 -69 -30 -78 0
-3 10 -12 56 -21 104 -30 165 -83 329 -163 500 l-45 97 23 61 c20 53 54 110
65 110 2 0 15 -4 29 -10z m1676 -245 l0 -235 76 0 c57 0 75 -3 71 -12 -2 -7
-10 -52 -18 -100 -7 -49 -16 -88 -19 -88 -19 0 -106 68 -169 131 -91 92 -154
212 -177 337 -8 45 -14 90 -12 98 2 10 37 28 93 48 50 18 100 38 110 44 45 26
45 24 45 -223z m-1192 93 l3 -58 -226 0 -225 0 0 53 c0 30 3 57 7 61 4 3 104
5 222 4 l216 -3 3 -57z m46 46 c11 -4 16 -19 16 -49 0 -38 -3 -43 -25 -47 -24
-5 -25 -3 -25 48 0 54 4 59 34 48z m886 -65 c0 -74 37 -190 86 -271 46 -76
154 -186 228 -233 l59 -37 -7 -82 c-3 -44 -6 -102 -6 -128 l0 -47 -91 69
c-141 106 -347 200 -492 226 -30 5 -37 10 -31 23 4 9 20 52 36 96 29 77 29 85
26 225 -2 80 -7 152 -11 160 -6 12 10 19 80 36 130 32 123 34 123 -37z m-4369
10 c256 -182 1072 -241 1590 -115 108 27 229 73 288 111 l41 25 0 -189 0 -190
-37 -36 c-162 -158 -755 -233 -1333 -170 -297 33 -508 96 -570 170 -12 14 -16
59 -18 217 -2 109 0 198 3 198 4 0 20 -9 36 -21z m3434 -119 l0 -55 -220 0
-220 0 -3 44 c-6 75 -18 72 225 69 l218 -3 0 -55z m60 0 c0 -39 -3 -45 -22
-48 -21 -3 -23 0 -23 48 0 48 2 51 23 48 19 -3 22 -9 22 -48z m430 -115 l0
-60 -52 -3 c-29 -2 -56 -9 -63 -17 -17 -21 -143 -21 -160 0 -8 10 -30 15 -61
15 -42 0 -49 3 -49 20 0 17 7 20 45 20 l45 0 0 45 0 46 148 -3 147 -3 0 -60z
m-318 -12 c-3 -2 -15 -3 -27 -1 l-22 3 24 30 23 30 3 -29 c2 -15 1 -30 -1 -33z
m1575 -43 c45 -27 140 -27 193 0 21 11 42 17 45 12 3 -4 18 -24 34 -45 l27
-37 -27 -10 c-79 -30 -255 -30 -341 0 l-33 12 32 44 c17 24 33 44 34 44 2 0
18 -9 36 -20z m-2306 -167 c-2 -2 -12 17 -21 44 -9 26 -21 58 -26 71 -5 13 -9
31 -8 40 0 9 14 -21 30 -67 16 -47 27 -86 25 -88z m764 132 c9 -11 33 -15 90
-15 57 0 81 4 90 15 9 11 32 15 81 15 l70 0 -3 -142 -3 -143 -232 -3 -233 -2
0 145 0 145 64 0 c44 0 67 -5 76 -15z m-1720 -350 l0 -194 -30 -34 c-90 -103
-356 -173 -742 -198 -391 -25 -899 36 -1083 129 -102 51 -100 44 -103 273 -3
141 0 199 8 199 6 0 32 -11 59 -24 293 -149 1114 -188 1588 -76 98 23 228 73
263 100 14 11 28 20 33 20 4 0 7 -88 7 -195z m2089 64 c-80 -102 -238 -199
-379 -235 -103 -26 -251 -15 -362 26 -49 17 -88 35 -88 40 0 13 121 84 215
125 l90 40 244 3 c231 3 243 4 248 23 4 13 14 19 35 19 l30 0 -33 -41z m-1049
-388 c0 -10 -5 -76 -10 -147 -24 -289 -110 -586 -236 -812 -35 -62 -38 -65
-46 -41 -19 48 -21 307 -4 414 32 195 109 378 226 538 51 68 70 82 70 48z
m-1042 -236 l-3 -87 -39 31 c-100 79 -228 116 -378 109 -113 -6 -187 -31 -281
-94 -112 -77 -187 -181 -223 -312 l-17 -62 -106 0 c-289 0 -652 58 -793 125
-71 34 -97 58 -109 97 -12 42 -12 408 0 408 5 0 38 -14 73 -30 120 -56 321
-97 597 -121 178 -15 639 -6 784 16 195 29 362 79 447 133 l45 28 3 -77 c1
-43 1 -117 0 -164z m3062 -55 c38 -87 76 -220 89 -311 5 -40 9 -75 7 -76 -5
-6 -73 150 -101 232 -15 44 -31 89 -36 100 -11 27 -36 130 -44 185 l-6 45 31
-55 c17 -30 44 -84 60 -120z m-3295 9 c163 -51 294 -203 326 -379 42 -239
-117 -482 -356 -545 -167 -43 -333 4 -461 130 -279 276 -120 754 271 815 64
10 144 2 220 -21z"/>
<path d="M1983 5603 c59 -2 155 -2 215 0 59 1 10 3 -108 3 -118 0 -167 -2
-107 -3z"/>
<path d="M1983 5493 c59 -2 155 -2 215 0 59 1 10 3 -108 3 -118 0 -167 -2
-107 -3z"/>
<path d="M1983 5393 c59 -2 155 -2 215 0 59 1 10 3 -108 3 -118 0 -167 -2
-107 -3z"/>
<path d="M605 5200 c3 -5 12 -7 20 -3 21 7 19 13 -6 13 -11 0 -18 -4 -14 -10z"/>
<path d="M695 5200 c4 -6 11 -8 16 -5 14 9 11 15 -7 15 -8 0 -12 -5 -9 -10z"/>
<path d="M662 5180 c0 -14 2 -19 5 -12 2 6 2 18 0 25 -3 6 -5 1 -5 -13z"/>
<path d="M718 4585 c-16 -18 -28 -35 -28 -39 0 -3 11 -13 25 -22 19 -12 29
-14 38 -5 10 8 19 7 33 -3 18 -14 18 -16 -10 -45 -21 -22 -39 -31 -61 -31 -20
0 -39 -8 -53 -23 -22 -24 -22 -24 -2 -42 17 -15 22 -16 36 -4 10 8 35 15 58
15 33 2 47 9 79 44 32 34 38 46 33 68 -6 25 -98 123 -114 121 -4 0 -19 -15
-34 -34z"/>
<path d="M607 4362 c-16 -17 -16 -20 6 -40 23 -22 24 -22 40 -4 16 17 16 20
-6 40 -23 22 -24 22 -40 4z"/>
<path d="M397 4358 c-10 -5 -26 -11 -37 -13 -24 -5 -66 -34 -97 -67 l-22 -24
167 -151 167 -150 25 21 c14 11 27 26 29 31 1 6 8 17 15 25 36 43 40 133 7
178 -10 15 -18 29 -18 32 1 3 -22 27 -51 54 -28 27 -52 46 -52 42 0 -3 -10 0
-22 8 -31 18 -90 26 -111 14z"/>
<path d="M986 4211 c-3 -4 32 -42 77 -83 258 -234 279 -251 287 -238 5 8 -48
62 -169 171 -97 88 -179 159 -183 159 -4 0 -9 -4 -12 -9z"/>
<path d="M906 4122 c-3 -5 76 -82 176 -172 128 -115 183 -159 188 -150 6 9 -9
29 -43 60 -193 174 -302 270 -308 270 -4 0 -10 -4 -13 -8z"/>
<path d="M837 4054 c-13 -13 13 -42 165 -179 164 -149 193 -171 202 -156 3 4
-32 42 -77 83 -45 41 -128 115 -183 166 -56 50 -104 89 -107 86z"/>
<path d="M765 3959 c-4 -6 1 -19 11 -29 97 -90 344 -310 345 -306 1 3 2 12 3
18 0 7 -71 78 -159 158 -197 179 -191 174 -200 159z"/>
<path d="M697 3883 c-4 -3 -7 -10 -7 -14 0 -4 69 -70 153 -146 206 -186 196
-178 207 -167 7 7 -36 52 -127 135 -76 68 -156 141 -179 161 -23 21 -44 35
-47 31z"/>
<path d="M5670 2445 c0 -9 -12 -21 -26 -27 l-25 -12 25 -13 c14 -8 26 -20 26
-28 0 -8 5 -15 10 -15 6 0 10 7 10 15 0 8 12 20 26 28 l25 13 -25 12 c-14 6
-26 18 -26 27 0 8 -4 15 -10 15 -5 0 -10 -7 -10 -15z"/>
<path d="M5485 2415 c-39 -18 -68 -43 -90 -77 -19 -31 -38 -101 -24 -92 5 3 9
15 9 27 0 54 75 129 146 146 27 6 32 9 14 10 -14 0 -38 -6 -55 -14z"/>
<path d="M5622 2334 c-11 -12 -10 -17 3 -30 15 -15 17 -15 29 2 11 15 11 20 0
31 -15 16 -16 16 -32 -3z"/>
<path d="M5072 2563 c59 -2 158 -2 220 0 62 1 14 3 -107 3 -121 0 -172 -2
-113 -3z"/>
<path d="M5083 2463 c59 -2 155 -2 215 0 59 1 10 3 -108 3 -118 0 -167 -2
-107 -3z"/>
<path d="M3310 2465 l0 -35 111 0 110 0 -3 33 -3 32 -107 3 -108 3 0 -36z
m210 0 l0 -25 -100 0 -100 0 0 25 0 25 100 0 100 0 0 -25z"/>
<path d="M3604 2475 c-8 -21 2 -45 19 -45 20 0 40 27 33 45 -7 19 -45 20 -52
0z m39 -2 c9 -9 -13 -34 -24 -27 -14 8 -11 34 4 34 8 0 17 -3 20 -7z"/>
<path d="M3310 2335 l0 -35 110 0 110 0 0 35 0 35 -110 0 -110 0 0 -35z m210
0 l0 -25 -100 0 -100 0 0 25 0 25 100 0 100 0 0 -25z"/>
<path d="M3607 2364 c-13 -13 -7 -55 9 -61 24 -9 51 23 38 45 -12 19 -36 27
-47 16z m32 -41 c-15 -18 -34 -1 -25 22 5 14 9 15 21 5 12 -10 13 -16 4 -27z"/>
<path d="M3310 2205 l0 -35 110 0 110 0 0 35 0 35 -110 0 -110 0 0 -35z m210
0 l0 -25 -100 0 -100 0 0 25 0 25 100 0 100 0 0 -25z"/>
<path d="M3607 2234 c-13 -14 -7 -52 10 -58 25 -10 51 20 37 42 -12 19 -36 27
-47 16z m38 -25 c0 -7 -8 -15 -17 -17 -18 -3 -25 18 -11 32 10 10 28 1 28 -15z"/>
<path d="M1800 858 c0 -162 -1 -173 -22 -195 -13 -14 -21 -36 -21 -55 0 -24
-17 -58 -65 -127 -51 -74 -63 -97 -55 -110 21 -34 47 -17 111 74 46 65 71 92
91 97 16 5 34 15 41 23 20 24 16 72 -8 98 -21 22 -22 33 -22 195 l0 172 -25 0
-25 0 0 -172z"/>
<path d="M6302 5877 c-130 -48 -190 -211 -124 -338 24 -47 37 -59 91 -86 48
-25 77 -33 116 -33 39 0 68 8 116 33 54 27 67 39 91 86 100 193 -87 411 -290
338z"/>
<path d="M4270 5826 c-167 -36 -315 -186 -351 -357 -34 -159 37 -354 163 -447
83 -61 149 -84 255 -90 102 -5 154 4 241 45 174 82 277 306 231 503 -39 170
-193 318 -364 349 -72 13 -104 13 -175 -3z m178 -66 c154 -36 276 -167 302
-323 27 -165 -66 -338 -220 -411 -59 -28 -74 -31 -165 -31 -91 0 -106 3 -165
31 -194 92 -278 330 -184 522 79 161 262 251 432 212z"/>
<path d="M4367 5733 c-4 -3 -7 -67 -7 -141 0 -113 -3 -138 -17 -154 -9 -10
-18 -32 -19 -47 -1 -16 -25 -63 -54 -105 -41 -62 -49 -80 -39 -92 21 -26 36
-15 89 66 32 49 59 80 70 80 41 0 65 64 35 94 -12 11 -15 43 -15 148 0 91 -4
138 -12 146 -14 14 -22 15 -31 5z"/>
<path d="M7040 5760 l0 -30 440 0 440 0 0 30 0 30 -440 0 -440 0 0 -30z"/>
<path d="M223 5723 c59 -2 155 -2 215 0 59 1 10 3 -108 3 -118 0 -167 -2 -107
-3z"/>
<path d="M889 5708 c-92 -53 -104 -184 -23 -246 l29 -22 -28 6 c-49 11 -76
-35 -41 -70 20 -21 30 -20 55 5 12 12 18 27 14 39 -5 17 -1 18 49 13 74 -8
136 26 160 88 54 134 -91 259 -215 187z m141 -9 c49 -28 70 -66 70 -127 0 -57
-21 -91 -74 -116 -44 -21 -81 -20 -132 3 -34 15 -45 28 -59 65 -28 74 -2 146
67 179 45 22 83 21 128 -4z m-155 -289 c0 -18 -6 -26 -23 -28 -27 -4 -40 22
-22 44 19 22 45 13 45 -16z"/>
<path d="M223 5613 c59 -2 155 -2 215 0 59 1 10 3 -108 3 -118 0 -167 -2 -107
-3z"/>
<path d="M3495 5567 c-81 -33 -105 -66 -105 -143 0 -43 4 -51 43 -88 23 -23
62 -48 86 -56 54 -17 91 -46 91 -69 0 -51 -89 -67 -169 -30 -52 23 -65 14 -57
-39 7 -47 19 -58 78 -72 104 -25 221 10 253 76 8 17 15 56 15 85 0 47 -3 55
-38 88 -21 20 -61 44 -88 54 -68 24 -94 44 -94 71 0 40 49 53 123 33 33 -9 64
-14 69 -11 4 3 8 21 8 39 0 29 -5 37 -32 51 -41 21 -144 27 -183 11z"/>
<path d="M7040 5540 l0 -30 440 0 440 0 0 30 0 30 -440 0 -440 0 0 -30z"/>
<path d="M223 5503 c59 -2 155 -2 215 0 59 1 10 3 -108 3 -118 0 -167 -2 -107
-3z"/>
<path d="M223 5403 c59 -2 155 -2 215 0 59 1 10 3 -108 3 -118 0 -167 -2 -107
-3z"/>
<path d="M7040 5350 l0 -30 440 0 440 0 0 30 0 30 -440 0 -440 0 0 -30z"/>
<path d="M794 5345 c-8 -21 2 -45 19 -45 8 0 20 7 27 15 10 12 10 18 0 30 -7
8 -19 15 -27 15 -7 0 -16 -7 -19 -15z m36 -16 c0 -24 -23 -21 -28 4 -2 10 3
17 12 17 10 0 16 -9 16 -21z"/>
<path d="M223 5293 c59 -2 155 -2 215 0 59 1 10 3 -108 3 -118 0 -167 -2 -107
-3z"/>
<path d="M7040 5130 l0 -30 440 0 440 0 0 30 0 30 -440 0 -440 0 0 -30z"/>
<path d="M7040 4940 l0 -30 440 0 440 0 0 30 0 30 -440 0 -440 0 0 -30z"/>
<path d="M3338 4775 l-53 -75 -67 0 -66 0 -57 65 c-32 36 -65 65 -74 65 -17 0
-241 -145 -241 -156 0 -4 16 -42 36 -86 l36 -79 -33 -64 -33 -63 -75 -12 c-41
-7 -81 -14 -88 -17 -10 -4 -13 -38 -13 -142 0 -75 4 -142 9 -150 5 -8 43 -17
95 -24 l87 -10 38 -54 39 -55 -31 -84 c-26 -73 -28 -87 -16 -99 15 -14 232
-135 243 -135 3 0 31 34 61 75 l56 75 67 0 67 1 66 -73 67 -72 111 73 c61 40
115 79 121 86 8 10 2 35 -25 97 l-36 83 33 57 33 56 70 12 c113 20 106 9 99
168 -4 75 -11 142 -16 148 -5 7 -43 15 -84 19 -71 6 -77 9 -93 37 -9 16 -28
46 -43 65 l-27 34 29 80 c16 43 27 84 24 91 -5 13 -234 138 -252 138 -6 0 -34
-34 -64 -75z m3 -352 c76 -39 112 -93 117 -178 18 -285 -381 -332 -433 -52
-11 60 11 131 59 183 71 77 163 94 257 47z"/>
<path d="M7350 2398 c-102 -33 -259 -83 -350 -112 -953 -305 -920 -292 -920
-354 0 -17 36 -146 81 -288 45 -143 87 -279 94 -304 85 -296 112 -350 173
-350 15 0 88 20 162 44 74 25 216 70 315 102 797 252 950 303 973 329 24 28
28 72 13 121 -6 16 -26 83 -46 149 -20 66 -61 194 -90 285 -29 91 -68 212 -86
270 -17 57 -37 113 -43 122 -11 18 -66 49 -83 47 -4 0 -91 -28 -193 -61z m232
0 c9 -7 40 -89 68 -183 28 -93 64 -208 80 -255 57 -169 130 -414 130 -437 0
-12 -10 -29 -22 -37 -13 -8 -275 -95 -583 -194 -902 -290 -822 -267 -847 -249
-18 11 -37 60 -87 223 -35 115 -95 310 -134 433 -65 208 -69 227 -56 250 10
17 28 29 54 35 33 8 1028 324 1260 401 81 27 115 30 137 13z"/>
<path d="M7420 1982 c0 -32 14 -42 59 -43 25 0 55 -4 66 -8 17 -7 17 -9 3 -17
-8 -5 -31 -23 -51 -41 -26 -23 -34 -37 -30 -52 3 -12 9 -21 13 -21 5 0 40 28
79 62 48 42 71 70 71 85 0 12 -3 24 -7 26 -18 11 -203 19 -203 9z"/>
<path d="M7085 1919 c-4 -6 -4 -26 -1 -45 4 -21 3 -34 -4 -34 -17 0 -11 -27 8
-32 11 -3 24 -25 35 -59 26 -84 37 -95 83 -84 30 8 40 16 42 33 3 22 1 23 -26
17 -30 -6 -31 -5 -48 49 -17 54 -17 57 1 70 21 15 13 36 -15 36 -11 0 -22 10
-26 23 -10 33 -36 47 -49 26z"/>
<path d="M7294 1919 c-40 -11 -66 -41 -62 -70 4 -32 26 -35 38 -5 10 26 54 51
71 40 19 -11 8 -34 -23 -50 -50 -25 -68 -45 -68 -74 0 -31 27 -60 56 -60 10 0
35 10 54 22 19 12 45 21 58 19 29 -3 38 21 19 51 -9 13 -21 42 -28 66 -19 65
-48 81 -115 61z m76 -129 c0 -19 -7 -33 -21 -40 -48 -26 -69 23 -21 52 37 24
42 22 42 -12z"/>
<path d="M6910 1781 c-47 -46 -38 -123 18 -168 21 -17 77 -16 110 1 37 19 60
62 43 79 -10 9 -18 5 -39 -21 -30 -36 -61 -41 -86 -13 -17 18 -15 20 40 38 73
24 86 42 58 80 -17 23 -30 29 -68 31 -40 3 -50 -1 -76 -27z m100 -26 c10 -12
8 -16 -11 -23 -62 -24 -69 -24 -69 -5 0 40 54 59 80 28z"/>
<path d="M6726 1727 c-18 -18 -31 -22 -59 -19 -27 3 -40 -1 -53 -17 -12 -14
-25 -19 -41 -15 -15 4 -25 1 -28 -8 -8 -21 44 -178 61 -185 31 -12 37 13 19
81 -20 74 -16 99 17 94 18 -2 27 -16 43 -65 24 -76 39 -93 60 -72 13 12 13 20
0 63 -19 64 -19 105 1 113 23 8 36 -10 59 -80 20 -63 48 -86 62 -51 8 20 -32
148 -53 169 -22 22 -62 18 -88 -8z"/>
<path d="M6440 1658 c-19 -17 -52 -47 -73 -65 -30 -27 -37 -40 -33 -57 5 -21
14 -24 107 -35 56 -6 104 -10 106 -8 2 3 -1 16 -6 31 -10 24 -14 26 -76 26
-37 0 -65 4 -65 10 0 6 3 10 8 10 4 0 27 18 51 38 35 31 42 43 37 60 -9 28
-14 28 -56 -10z"/>
<path d="M7965 2174 c-97 -50 -100 -190 -5 -239 56 -29 122 -14 166 38 32 36
38 77 18 126 -29 74 -114 109 -179 75z m120 -59 c33 -32 35 -95 4 -124 -32
-30 -72 -35 -111 -15 -42 21 -48 31 -48 75 0 80 99 121 155 64z"/>
<path d="M4084 1136 c-43 -19 -64 -53 -64 -101 0 -47 19 -79 60 -100 120 -62
237 87 141 179 -34 33 -92 42 -137 22z m120 -37 c35 -27 36 -86 3 -125 -28
-32 -88 -37 -129 -10 -46 30 -51 93 -11 131 36 32 98 34 137 4z"/>
<path d="M3570 499 c-59 -18 -60 -21 -60 -146 l0 -114 35 -15 c44 -18 166 -18
210 0 l35 15 0 121 0 120 -27 11 c-40 16 -152 20 -193 8z m169 -18 c63 -17 8
-51 -83 -51 -63 0 -129 17 -123 33 5 17 43 25 117 25 36 0 76 -3 89 -7z m-84
-66 c28 0 67 3 88 7 31 6 37 4 37 -11 0 -27 -43 -41 -125 -41 -87 0 -125 12
-125 39 0 17 5 19 38 13 20 -4 60 -7 87 -7z m0 -65 c41 0 85 4 99 10 22 8 26
7 26 -8 0 -35 -16 -44 -96 -49 -105 -7 -148 4 -152 40 -3 25 -2 26 23 17 14
-5 59 -10 100 -10z m20 -67 c38 2 78 8 88 12 13 6 17 2 17 -18 0 -33 -40 -47
-131 -47 -87 0 -119 12 -119 44 0 23 2 24 37 14 21 -6 69 -8 108 -5z"/>
<path d="M3910 465 l-34 -35 34 -35 c19 -19 40 -35 47 -35 18 0 16 27 -2 34
-8 3 -15 10 -15 16 0 6 77 10 226 10 176 0 225 3 222 13 -4 9 -62 13 -228 17
-191 4 -221 7 -207 19 10 7 17 17 17 22 0 19 -28 7 -60 -26z"/>
<path d="M4525 493 c-41 -10 -45 -21 -45 -138 0 -92 3 -115 17 -126 23 -20
223 -20 246 0 14 11 17 34 17 131 l0 118 -31 11 c-32 11 -165 13 -204 4z m178
-14 c75 -20 27 -49 -83 -49 -107 0 -158 29 -87 49 44 13 124 13 170 0z m-23
-63 c58 10 60 9 60 -12 0 -19 -8 -24 -56 -34 -31 -7 -72 -9 -93 -6 -88 16 -91
17 -91 40 0 21 2 22 60 12 40 -6 80 -6 120 0z m-61 -69 c31 0 71 3 89 7 29 7
32 6 32 -17 0 -31 -20 -37 -120 -37 -100 0 -120 6 -120 37 0 22 3 24 31 18 17
-4 57 -7 88 -8z m32 -65 c88 5 89 5 89 -18 0 -19 -7 -25 -37 -31 -52 -11 -156
-7 -182 6 -12 7 -21 21 -21 36 0 22 2 23 31 13 18 -6 68 -9 120 -6z"/>
<path d="M4300 331 c0 -5 7 -15 17 -22 14 -12 -16 -15 -207 -19 -166 -4 -224
-8 -228 -17 -3 -10 46 -13 223 -13 l226 0 -15 -22 c-35 -50 -4 -52 44 -3 l34
35 -34 35 c-32 33 -60 45 -60 26z"/>
</g>
</svg>
