<svg id="Capa_1" data-name="Capa 1" xmlns="http://www.w3.org/2000/svg" viewBox="0 0 1440 273.14"><path d="M13.82-422.69l-8.31,9.17v118.18H39.08c33.22,0,33.74,0,38.58,4.16,3.64,3.29,4.16,4.5,2.25,5-1.38.34-5.36,1.55-8.65,2.76a87,87,0,0,1-9,2.77,31.38,31.38,0,0,0-6.41,2.6c-2.07,1-3.63,1.21-3.63.52s-1.21.34-2.6,2.25c-1.38,1.73-2.59,2.76-2.59,2.07s-5,1.39-11.25,4.67-12.63,6.06-14.36,6.06c-1.56,0-7.44-3.46-12.81-7.79-6.22-4.84-10-6.92-10-5.36,0,2.94,9.34,11.07,15.05,13.32,2.25.87,4,2.25,4,3.12s-4.32,4.67-9.51,8.65c-9.17,6.92-9.52,7.61-9.52,15.05v8l9.86-8.13c5.54-4.32,13-10,16.44-12.46l6.4-4.32,10.9,3.63c15.4,5,33.4,7.44,45.51,6.23,24.92-2.6,56.24-15.4,70.94-28.72,3.81-3.46,8.14-6.06,9.52-5.89,14.88,2.6,17.3,3.12,22.15,5.71,2.08,1.21,3.81,1.73,3.81,1,0-.52,1.9.17,4.32,1.73s4.33,2.42,4.33,1.73,1.21-.17,2.59,1,2.6,1.56,2.6,1c0-.69,2.08.17,4.84,2.07a33.87,33.87,0,0,0,11.6,5.54c6,1.91,45.33,33.4,46,37,.18.35,3.46,4.15,7.44,8.48s8.31,10,9.69,12.63a28.28,28.28,0,0,0,5.19,7.1c1.39,1.21,2.08,2.24,1.39,2.24-.52,0,1.56,4.5,4.84,9.87s5.89,10.9,5.89,12.11,1.9,6.58,4.32,11.94c2.43,5.54,4,10.21,3.46,10.73-.34.34,0,2.25,1,4.15a29.54,29.54,0,0,1,2.6,8.82c.52,3.12,1.38,7.44,1.9,9.87,2.42,10.9,1,61.25-1.9,69.21a60,60,0,0,0-1.91,7.27c-2.07,11.42-2.76,13.67-6.4,21.63A75.83,75.83,0,0,0,304.16-15c-.51,2.42-8.82,18.51-10.72,20.93-2.25,2.43-4,2.43-19.21-.51-9.34-1.73-28-3.64-41.53-4.16C219,.55,208-.49,208-1c0-.69,14.36-17.13,32-36.51,17.48-19.55,32.18-37,32.53-38.93,1.21-8.48-3.46-13.67-54.68-60-28.55-26-63-57.28-76.31-69.39C119.19-226.3,109.68-233,105-231.49c-.86.18-3.28.87-5,1.21a10.66,10.66,0,0,0-5.37,2.77c-1.21,1.21-17.13,19-35.47,39.45-18.51,20.42-35.3,39.28-37.55,41.71-3.8,4.15-5.36,10.9-3.8,16.95.34,1.21,5.36,6.75,11.07,12.12C51.88-96,75.93-74,81.13-69.53c3.11,2.6,5.71,5.54,5.71,6.75,0,2.6-37.73,44.3-40.15,44.3-1,0-7.78-5.54-15.22-12.12-13.5-12.28-16.1-13.84-14.71-10,.34,1.21,1,8.82,1.55,17C19.7-3.08,21.6,17,22.64,21.49c0,.69,13.5.86,29.94.69l29.58-.52-18,7.61C54.31,33.43,38.73,41,29.73,46.06L13.3,55.4l-7.44-6-7.27-5.89v7.79c0,4.33.86,8.48,1.73,9,1.38.86,1.38,1.9,0,3.46-1,1.38-1.73,7.61-1.38,15.4l.51,13L10.87,84.3c12.81-8.83,10.21-8.83,25.44.52a46.58,46.58,0,0,0,5.54,3.29c1.21.17,10.21,4,16.44,6.74,4.49,2.08,24.91,8.31,34.6,10.56,7.62,1.73,21.63,2.94,36.68,3.11,8.66,0,15.58.52,15.23.7-.34.34-11.42,2.42-24.57,4.84-38.59,6.58-67.83,17.3-82.71,30.28-12.28,10.9-11.59.17-11.59,159.88,0,159.37-.69,150,11.07,158.85,7.27,5.53,18.69,11.24,30.11,15.05,23.19,8,72.15,14.88,117.84,16.79l28,1,1,9.69c5.2,47.93,42.57,84.44,90.15,87.9,27.52,1.91,52.95-7.26,73.37-26.64a98.38,98.38,0,0,0,28.21-49.84l2.42-12.11,1,6.92c.69,3.81,1.21,16.79,1.21,28.9v22.15h-5.19c-2.77,0-5.19.52-5.19,1,0,2.42,11.42,21.28,12.63,20.93.69-.17,4.15-5.19,7.44-11.24l6-10.73H414.39l-1-28.21c-1.21-38.76-6.23-63-17-84.61l-5-9.86V161l-4.32-7.44c-11.6-19.72-53.47-35.47-114.2-43.26-23.88-2.94-85.66-4.15-111.61-2.07-13.84,1-10.73-.35,6.06-2.6,3.8-.69,10.55-2.25,15.22-3.63,4.5-1.39,8.14-2.08,8.14-1.73,0,.52,2.24-.35,4.84-1.73a125,125,0,0,1,15.05-6.06,89.56,89.56,0,0,0,16.79-8,73.71,73.71,0,0,1,10.9-6c2.42-.87,4.33-2.43,4.33-3.47s.69-1.55,1.55-.86c.87.52,2.77-.69,4.16-2.6,1.21-1.9,2.76-2.94,3.46-2.42.52.52,9.69-7.78,20.41-18.34l19.38-19.38,24.4,8A347.33,347.33,0,0,1,499,178.6c18.51,28,28.38,48.8,29.93,63.16,1.39,14,4.85,24.4,14.37,44.29,6.05,12.46,7.61,18,10,36l2.77,21.11-9.34,10.9A188.91,188.91,0,0,0,534,370a76,76,0,0,1-6.05,8.3c-5.54,6.06-20.42,37-25.61,53.12-9,27.69-10.56,38.93-10.56,72.33,0,21.28.87,35.13,2.77,45.51l2.94,15-10.21,13.33c-5.53,7.26-11.59,15.22-13.32,17.47l-3.29,4.15h14.71c14,0,14.88-.17,17.65-4.67l3.11-4.5,2.43,4.5c1.9,3.81,3.46,4.67,9.17,4.67,3.8,0,6.92-.34,6.92-.86a94.44,94.44,0,0,0-4.33-11.07l-4.15-10.21,9.69-16.1c10.73-18,23.88-45,29.93-61.77,3-8,5.89-12.63,11.08-17l7.09-6,.52,61.42.35,61.6h8.65V532.8c0-63.16.17-66.79,3.29-68.87,4.5-3.11,30.62-26.64,40-36,4.32-4.32,14.71-14,23.36-21.63,8.48-7.61,19.2-17.3,24.05-21.63,20.94-18.68,28.2-25.26,34.09-30.62,5.88-5.54,6.23-5.71,9.51-2.77l19.73,17.82c9,8.13,19.55,17.48,23.36,20.76,12.28,10.91,27.51,24.75,39.8,36.51,11.42,10.91,23,21.29,37.72,34.44l6.4,5.71V599.24h8.65V537.82c0-33.74.52-61.43,1.39-61.43.69,0,5.19,3.81,10,8.31,19.55,18.17,19,17.82,22.5,13.84,3.11-3.29,3.11-3.63-4.68-10.56-4.5-4-14.53-13.15-22.32-20.24-8-7.09-17.65-15.75-21.45-19s-14-12.64-22.67-20.77c-28.21-26.47-86.34-78.73-99.67-89.46-2.07-1.73-3.63-1.21-7.78,2.6-3,2.59-11.42,10-18.86,16.78-7.45,6.58-15.23,13.67-17.31,15.58s-13.32,11.94-25.09,22.49c-11.76,10.38-28,25.44-36.16,33.05-23.88,22.49-43.95,40.66-44.47,40-.35-.35.86-8,2.94-17,5.88-27,8.48-51,8.48-80.8V343l4.84-4.15c2.6-2.25,5.37-4.33,6.23-4.33s8.65,2.95,17.31,6.41c14.53,5.88,17.3,6.4,37.37,7.09,16.44.52,24.23,0,32.7-2.25A125.17,125.17,0,0,0,739.17,307c6.06-6.75,10.73-10.55,13.15-10.55,5.54,0,34.78,9.34,48.1,15.4a215.83,215.83,0,0,1,44.3,27c20.59,16.61,20.07,15.75,21.46,31.66,3.8,46.72,25.43,111.09,50.35,149.85,3.29,5.19,6.05,11.42,6.05,13.84,0,9.17-9.51,42.92-15.4,54.34-5,10-4.67,11.07,3.64,10.38,7.09-.52,7.27-.69,11.25-10.9,2.24-5.71,5.88-17.13,8.13-25.44l4-15,8.13,10.73c4.5,5.88,14.53,17.47,22.15,25.78l13.84,15.22h33.4L995.6,583.5c-19.38-19-36.68-39.28-48.27-56.93l-8.65-13-1-19.9c-2.25-46.2-15.06-82.36-43.95-124.75l-7.44-10.73v-27c0-14.88.69-27.86,1.38-28.9.87-1.38,5-1.38,15.06.52,16.09,2.94,31.49,1.9,49.66-3.12,21.45-6.05,34.95-14.18,53.46-32.53,13.15-13.15,16.1-15.4,14.36-11.07-4.84,11.42-5.88,6.92,28.73,118.87,8.82,28.55,16.61,52.61,17.47,53.64s3.29,4.5,5.54,7.79c4.85,7.61,17,14,26.3,14,4,0,22-4.85,41.88-11.25,19.2-6.23,37-11.25,39.79-11.25s10.91-1.9,17.83-4.32,13.32-4.33,14.19-4.33c.69,0,1.38,23,1.38,51v51.05h-33.22c-19.9,0-34.44.69-36,1.9-2.08,1.39,4.67,8.83,35.47,38.76l38.07,37.2h39.79l37.72-36.85c30.63-29.76,37.38-37,35.65-38.93-1.73-1.56-11.25-2.08-35.65-2.08h-33.39l.34-59.18.52-59.17L1333,380.36c38.58-12.46,72.15-23.53,74.58-24.57,5.36-2.6,12.45-11.77,15.74-20.59,1.39-3.64,9-21.11,16.79-38.76,10.9-24.57,14.36-34.26,14.88-41.53l.52-9.52-3.47,6.92c-2.07,3.81-10.72,23.19-19.38,43.26-23.87,55.55-21.62,52.43-44.46,59.87-9.18,2.77-32.53,10.38-52.09,16.61-61.42,19.55-75.79,24.05-125.79,40.15-26.82,8.65-50.87,15.74-53.64,15.74s-15.4,3.46-28.21,7.79c-31.83,10.73-39.45,10.21-51-3.12-5.37-6.05-6.58-9.17-33-95.51-4-13.32-10.21-33.22-13.5-44.12-6.92-22-7.44-26.82-3.8-35.13,5.19-12.46,3.63-11.94,111.78-46.2,18.51-5.88,56.4-18,84.09-27s52.6-16.27,55.2-16.27,16.95-4,31.83-8.82c33.92-11.08,38.76-10.9,56.93.69,6.92,4.5,13.67,8.13,15.23,8.13,1.38,0,16.61,8.83,33.91,19.38,21.46,13.5,32.53,21.46,35.3,25.61l4.16,6.06V213c0-4.33-1.22-7.62-3.81-10-5.71-5.36-53.3-34.61-56.24-34.61-1.38,0-10.55-5-20.42-11.24-27.16-17-26.64-17-65.75-4.5-18.17,5.71-36.33,11.59-40.49,13a46,46,0,0,1-13,2.77c-2.95,0-12.29,2.25-20.94,5-8.48,2.94-33.05,10.73-54.51,17.48-120.08,38.24-145.34,46.89-151.05,51.73l-5.54,5,5.54-11.59c8.47-17.48,11.59-31.32,11.59-52.08.17-34.09-10.56-59.87-35.47-85.48-8.48-8.65-15.4-15.92-15.4-16.09s7.61-6.93,16.95-14.89c18.35-15.74,38.59-30.62,41.71-30.62,1.21,0,10.38,3.46,20.59,7.61,20.93,8.65,48.79,17.13,73,22.15,12.45,2.59,26,3.63,56.75,4.33,47.41,1,62.81-.52,99.84-9.87,31.49-8,43.09-12.28,73.89-27.16l23.7-11.42L1409.15,30c6.92,4.15,20.25,13.15,29.59,20.07l16.79,12.63V33.43l-19-12.46-19.2-12.63,4.84-3.46c2.6-1.91,11.07-8.48,18.69-14.71l13.84-11.42.52-16.09.52-16.1-15.23,13.85c-19,17.47-43.08,35-48.1,35-2.08,0-9.17-2.42-15.75-5.36-36.33-16.62-93.09-28.55-136.87-29.25-2.94,0,2.25-5.88,22.67-25.61l26.65-25.43-32.71-.52-32.7-.35L1224-147l.52-55.71,90.84-.87c101.4-1,95-.17,105-13.32l4.84-6.23.52-104.51.35-104.34h-10.38v101.22c0,111.26.17,108.67-10.38,114.2-4.5,2.25-26.65,2.6-184.46,2.25l-179.43-.52L1037.65-231l-3.81-15.92H1175l1.21-6.05c1.38-8-1.56-27-6.06-39.11-11.07-29.41-46.54-45.16-85-37.89-29.94,5.71-49,25.61-53.65,56.23-1,6.58-2.07,12.29-2.42,12.46-.17.18-2.94-5.88-6.05-13.84-3.12-7.79-9.17-20.76-13.33-28.72l-7.61-14.37V-432H991.8v47.93c-.18,43.08-.35,47.76-2.77,44.64-26.65-35.47-51.91-61.94-78.39-81.84l-14.36-10.9-16.61.51-16.61.52-5.71,17.83c-25.44,80.8-22.84,172.51,6.92,247.61,4.15,10.55,7.27,19.2,6.92,19.2-.52,0-4.5-3.11-9-6.92s-9-6.92-10-6.92-9,7.79-17.82,17.13c-9.52,10.38-16.79,17-18.17,16.44-1.21-.52-9.17-1.56-17.48-2.08l-15.4-1.21-6.23-16.44c-3.46-9-7.44-17.13-9-18-1.91-1.21-8.31,0-22.33,4.32l-19.55,6.06v6.75a186.94,186.94,0,0,0,2.6,20.59l2.42,13.67-4.15,2.77a129.2,129.2,0,0,0-13.15,10.9c-4.85,4.67-10.21,8.3-11.94,8.3s-10.73-2.77-20.07-6.23-18-5.88-19.21-5.53c-1.21.52-6.58,9.17-11.77,19.2-8,15.23-9.17,18.52-7.26,20.77,1.21,1.56,9.69,7.09,18.68,12.63,12.29,7.44,16.09,10.55,15.4,12.63-.69,1.56-1.55,9.52-2.07,17.65l-1,14.88-17,8.48C645.73,9,640.54,12.66,640.54,14.74c0,3.63,11.94,37.89,14,40.14.86,1,9-.34,20.07-3.28l18.51-4.85,2.77,4.15a108.9,108.9,0,0,0,9.69,11.94l7.1,7.79-8.31,20.76c-4.67,11.42-8.13,22.15-7.79,23.71.35,1.73.52,3.11.52,3.11-.17,0-4.32-1.55-9.17-3.28-11.94-4.68-35.12-7.62-49-6.23-27.51,2.59-51.56,13.67-72.5,33.05l-13.84,12.8-10.21-5.71C515.09,133.27,498,120.46,472.7,96.58c-23.36-22.14-32.19-32.53-47.41-55.19-24.57-36.69-41.18-76.48-50.7-121.3-4.33-20.76-4.67-25.61-4.85-63.16,0-38.58,1.22-53.46,6.23-73.19l1.73-6.4h12.46c25.44,0,53.3-11.59,74.58-31,15.4-14,25.44-28,32.53-45.86C503-313.33,503-313.85,503-342V-370.6l-6.75-16.27-6.57-16.26,4.84-4c2.77-2.25,11.94-8.83,20.25-14.54L530-432H519.76c-9.69,0-10.9.52-23.53,9.69l-13.32,9.69-8.83-9.69c-5-5.71-10-9.69-12.11-9.69-2.94,0-2.59.52,1.9,4.5a77.83,77.83,0,0,1,10.39,10.9l5.19,6.57L461.8-391.89c-36,37-42.74,44.47-42.74,46.72,0,1.21-1.56,4.5-3.46,7.44l-3.46,5.19v-92.57H339.81l-14.88,16.44-14.88,16.44v117.66h72.33l-5,13.32c-2.77,7.44-6.23,18-7.79,23.36-3.11,11.42-3.63,11.59-18.17,7.27-17.47-5.19-35.12-15.75-49.66-29.76-11.24-11.08-15.05-16.09-21.63-29.76-8.48-17.31-13.32-36.34-13.32-51.91,0-26.13,12.8-58.32,31.15-78.39,5.88-6.4,9.51-11.59,8.13-11.59-3.64,0-18.52,16.44-25.78,28.55a150.45,150.45,0,0,0-11.08,24.22c-4.32,12.46-4.84,16.1-4.84,37.21,0,20.93.52,24.74,4.84,37.2,9.17,26.47,26.65,48.62,51.05,64.54,9.51,6.06,34.08,15.92,40,15.92,1.73,0,3.63.69,4.15,1.56s-.52,10.72-2.42,21.8c-9.35,54.68-4.85,111.26,13.15,165.94C385.66-2.74,408.5,39.66,430.65,68.55l7.79,10-18.86-13c-31-21.28-73.54-41.87-104-50.35-11.94-3.46-13.67-4.67-9.87-7.79,1.39-1.21,2.6-2.94,2.6-3.8,0-1,1.55-3.81,3.29-6.23,1.73-2.6,3.28-5,3.28-5.54A49.59,49.59,0,0,1,317-14.16a56.78,56.78,0,0,0,2.42-6.92A11.82,11.82,0,0,1,321-24.89a22.3,22.3,0,0,0,2.25-6.05,63.43,63.43,0,0,1,2.94-10.9c.52-1.91,1.56-6.23,2.08-9.52.34-3.29,1.38-9.17,2.07-13s1.21-17.13,1.21-29.41c-.17-20.25-.69-26.65-3.28-38.07-.52-1.9-1.21-5.88-1.73-8.65-1-7.27-9.17-29.76-12.29-34.61-1.56-2.25-2.42-4.5-2.08-4.84.35-.52-2.76-6.06-6.92-12.46-4-6.23-7.26-12.11-7.26-13,0-.69-1.22-1.9-2.77-2.42-1.39-.52-2.25-1.73-1.56-2.6.52-.86-.87-2.94-2.94-4.5-2.25-1.38-3.81-2.94-3.64-3.46.18-.34-4.84-6.22-11.24-13-9.69-10.39-28.38-25.27-42.74-34.09-3.64-2.25-22-11.42-23.36-11.77a21.72,21.72,0,0,1-4.33-2.07,27.55,27.55,0,0,0-4.67-2.08,14.75,14.75,0,0,0-2.25-.35c-.52-.17-1.38-.34-2.07-.51-.87-.18-5.89-1.74-11.42-3.29l-9.87-3.12,5.19-7.78c6.92-9.87,13-23.54,16.44-36.69,3.46-13.67,3.46-46.37,0-60-3.46-13.32-15.92-38.93-19-38.93-1.73,0-.35,3.81,4.32,12.46,20.59,38.41,19,83.57-4.32,120.08l-6.23,9.69-8.65-.86c-9.87-1-11.77-2.08-8.83-5,3.29-3.29-2.42-9.69-10.21-10.9-4.84-.87-8.65-3.12-12.45-7.27-6.41-7.09-15.58-11.59-20.42-10-3.12,1-3.29-.34-3.29-53.46,0-35.3-.69-54.68-1.73-54.68s-1.73,19.21-1.73,54.33v54.33l-7.61,7.79c-5,5-9.87,8.13-13.67,8.82a17.78,17.78,0,0,0-9,4.5c-2.94,3.29-5.37,3.46-34.09,3.46H9V-411.27H38.39v-10.38c0-5.71-.7-10.38-1.73-10.38-.87,0-1.73,3.81-1.73,8.65v8.65H23.51c-12.81,0-12.81.35-1.73-11.76,3.11-3.46,4.15-5.54,2.59-5.37C23.16-431.69,18.31-427.53,13.82-422.69Zm888.87,9.35c28.37,21.28,69.21,65.4,83.57,90.67l5.54,9.51v42.22c0,37.55.52,43.09,3.28,49.32,4.85,10.55,13.16,16.26,26.48,17.65l10.9,1.21,2.25,14.7c1.56,10,1.9,26.31,1.38,51.05-.86,40.84-4.32,61.95-15.92,97.42-8.82,27.16-8.47,27-20.76,17.65-14.19-10.73-48.45-44.3-58.66-57.8C936.08-86,931.41-91,930.37-91.16c-2.25,0-15.92-21.28-26-40.14-31.32-59.18-43.78-112.13-41.88-178.57.69-24.4,1.91-36.51,5.54-54.68,4.67-23.53,15.57-60.56,17.82-60.56C886.59-425.11,894-419.75,902.69-413.34Zm-494,39.1c0,35.82-.52,47.76-2.08,49-1.21,1-7.79,3.46-14.71,5.54-10,2.94-17.47,3.63-40.66,4l-28.2.34,25.6.52c14,.35,25.44,1.21,25.44,1.91,0,.86,2.77,4.67,6.23,8.65l6.23,7.26-32.7.35-32.53.35,36.33,1.21c20.07.52,39.45,1.73,43.26,2.59,6.4,1.56,6.92,2.08,7.44,8.14l.52,6.4H313.51V-388.77h27.68v-32.88h67.49Zm-71.47-18.51c-.51.34-5.53.52-11.42.17l-10.72-.52L326-405.21l10.9-12.11.52,11.94C337.73-399,337.56-393.27,337.21-392.75Zm153.66,2.94a117.57,117.57,0,0,1-.87,96.9c-13.84,30.28-43.95,54.85-77.17,63.33-16.27,4.15-33.57,4.67-33.57,1,0-3.47,8-28.73,12.11-38.24,3.12-7.27,3.64-7.62,11.6-8.14l8.3-.52.52-8.3c.52-8,.69-8.13,6.4-8.13a34,34,0,0,0,8.48-1c2.25-.87,2.77.17,2.77,4.32,0,3.46-.86,5.37-2.42,5.37-3.46,0-11.42,6.75-11.42,9.69,0,3.63,2.42,2.94,4.32-1.56a8.51,8.51,0,0,1,5.71-4.33c3.46-.52,3.81.18,3.81,6.23,0,6.23-.52,6.92-6.92,9.52-13.32,5.19-7.1,15.05,9.52,15.05,6,0,14.7-5.71,12.45-8.13-.86-.69-2.24,0-3.11,1.73a7,7,0,0,1-5,2.94c-2.59,0-3.46-1.21-3.46-4.84s1.39-5.19,5.71-7.27c5.19-2.42,8.65-8.65,4.85-8.65a2.19,2.19,0,0,0-1.91,2.42c0,2.25-3.46,4.5-7.09,4.5-.87,0-1.56-2.94-1.56-6.75,0-5.71.69-6.92,5.19-8.82,2.94-1.21,5.71-3.81,6.23-6.06.87-3.46,2.08-4,10.56-4.15,12.45,0,23.53-5.54,30.1-14.54,2.77-3.8,4.85-7.09,4.5-7.44-1.38-1.55-38.58-12.8-41.87-12.8-2.42,0-6.23,2.42-9.34,6.05l-5.37,6.23v-8.47c0-7.27.52-8.66,4.33-10.39,6.23-2.77,9-9.51,6.23-15.22-1.73-4-1.39-5.37,2.59-10.56,5.71-7.44,37.9-40.32,39.45-40.32C486.2-399.16,488.62-395,490.87-389.81Zm-52.09,40.14c5.89,5.71,1.39,14.54-7.44,14.54-7.78,0-11.94-7.62-7.78-13.67C426.67-353.13,434.8-353.65,438.78-349.67Zm-9.34,26v7.78l-4.15-4.84c-3.12-3.63-3.81-5.54-2.6-7.79C426-334.61,429.44-332.19,429.44-323.71Zm-10.55,1.55c5.19,2.6,8,8,9.86,18.52.86,5.36.52,6.4-2.77,7.44-2.42.69-4.33.35-5.19-.87-.87-1.38-1.56-1.21-2.25.7-1.38,3.46-6.4,3.63-6.4.17,0-1.38-.69-2.6-1.73-2.6-.87,0-1.73,1.22-1.73,2.77,0,1.91-.87,2.42-2.77,1.73a20.71,20.71,0,0,0-3.46-1c-.35,0-.18-1.21.34-2.59.7-1.39.35-2.6-.69-2.6-.86,0-2.07,1.21-2.77,2.6-1.21,3.11-6.23,1.56-6.23-2.08,0-1.73-1-2.25-2.76-1.55-2.6,1-11.08-5.89-11.08-9.18,0-1,5.54-3.46,12.46-5.53a157.25,157.25,0,0,0,16.78-6.06C414-325.27,413-325.27,418.89-322.16Zm49.31,4.33c8.65,2.94,15.92,5.71,16.44,6.06.34.52-1.39,3.28-4.15,6-3.81,4-5.54,4.67-7.27,3.29-1.73-1.56-2.25-1.21-2.25,1.73,0,2.42-1,3.63-3.46,3.63-1.91,0-3.46-.86-3.46-1.73a1.79,1.79,0,0,0-1.91-1.73c-1,0-1.55,1.21-.86,2.6.52,1.38.69,2.59.34,2.59a21,21,0,0,0-3.46,1c-1.9.69-2.76.18-2.76-1.73,0-1.55-.7-2.77-1.73-2.77-.87,0-1.74,1.22-1.74,2.6,0,3.63-4.67,3.29-6.74-.52-1.56-2.42-2.08-2.42-3.46-.52-.87,1.39-3,1.9-5,1.21-3.29-1-3.29-1.55-1.21-11.07,2.59-10.56,9.51-18.69,14.53-17C451.59-323.54,459.72-320.77,468.2-317.83Zm-342.43,1c3.46,2.77,4.5,4.67,3.11,5.19-3.63,1.56-2.59,7.27,1.39,8.48,8.65,2.77-5.19,21.63-15.75,21.63s-20.76-8.31-20.76-17c0-2.08,1.21-4.33,2.59-4.84,3.12-1.22,3.46-7.62.52-7.62-1.21,0,.35-2.42,3.46-5.19C107.77-323,118.15-323.37,125.77-316.79ZM92-304.33c-3.29,1.55-6.41,3.11-6.75,3.28-.35.35.52,1.91,1.9,3.47,1.56,1.73,2.25,4.32,1.73,5.71-.86,2.24-.52,2.24,2.25,0s3.12-2.25,2.25,0a3.71,3.71,0,0,1-3.29,2.59,11.42,11.42,0,0,0-4.32,1.21c-1,.69-4.33-1.38-7.44-4.5-5.19-5.36-5.37-5.71-2.43-8.3,3.29-2.94,13-6.23,18.69-6.23C97-307.27,96.18-306.41,92-304.33Zm49.14-.87c11.94,3.12,13.49,6.4,6.05,13-5.19,4.67-6.05,4.84-7.78,2.25a30.32,30.32,0,0,1-3.12-7.1c-.86-2.94-.69-3.63.35-1.9,1.21,1.73,1.9,1.73,2.94.17,1.56-2.42,1.38-2.59-6.06-5.71C126.11-307.79,129.92-308.14,141.17-305.2Zm298.65,13.33c3.12,1.9.52,7.44-4.15,8.3-2.08.52-2.77-.69-2.77-4.67C432.9-293.78,435.15-295,439.82-291.87Zm574.47,25.43c5.88,14.71,15.57,46.72,15.57,51.05,0,2.76-13.15,1.21-18-1.91-9-5.88-9.52-8.65-9.52-43.43C1002.35-297.24,1002.18-297.24,1014.29-266.44ZM156.57-279.59c5,.17,3.29,2.94-6.06,9.86-11.07,8-30.63,16.79-45.16,20.25-14,3.29-36.51,3.29-51.22-.17-12.11-2.6-21.63-7.45-15.22-7.62,1.55,0,2.94-.86,2.94-2.07,0-1,.52-1.39,1-.87.69.69,3.28,0,5.71-1.21,5-2.6,19.38-8.83,20.93-8.83.52-.17,4.85-1.38,9.52-2.94,17.3-5.71,33.74-7.78,58.83-6.92C146.53-279.94,154.84-279.76,156.57-279.59Zm272.87,22.32c0,5.54-2.77,6.58-8.82,3.46-4.68-2.59-1.39-8.65,4.49-8.65C428.75-262.46,429.44-261.59,429.44-257.27ZM138.05-201.9c14.19,12.81,29.77,26.82,34.44,31.32,4.84,4.5,26.64,24.05,48.45,43.78,42.22,37.89,48.1,44.3,46.2,49.49-.7,1.73-16.27,19.89-34.78,40.31L199,0l-15.75,1-15.57.87-46-41.71c-87-79.07-98.46-89.63-99.5-92a9.94,9.94,0,0,1,.35-5.88c.69-1.91,18.34-22.5,39.28-45.86C99-225.08,100-225.95,106-225.6,111.58-225.26,115.91-222.14,138.05-201.9Zm1047.54,54.51v56.23h-71.8L1143-62.95l29.41,28.2-19.9,4.67c-29.93,7.1-64.71,19.73-90.84,32.88l-14,7.09-12.46-7.44c-6.92-4-12.81-8.3-13.32-9.51s.86-6.4,2.94-11.6C1042.67-63.82,1051-119.19,1047.17-169c-.87-13-2.25-26.3-2.77-29.24l-1-5.37h142.23ZM890.57-110c3.81,6.75,9,14.71,11.77,17.65,2.77,3.12,7.27,8.83,10,12.81l5,7.26-10,1c-5.37.69-11.08,1.39-12.46,1.91-1.56.34-4.5-2.43-7.79-7.62a125.45,125.45,0,0,0-11.76-15.4c-3.81-4-6.41-8-6.06-8.65,1.38-3.46,12.8-21.11,13.5-21.28C883.31-122.3,886.77-116.77,890.57-110ZM813.05-62.43c11.6,5.53,23.71,19,27.34,30.28,4,11.76,3,29.07-2.25,39.8C818.59,48,763.91,48.31,743,8.51,739,.9,738.3-2.39,738.3-15S739-30.94,743-38.55C756.82-64.86,786.93-75.06,813.05-62.43Zm-685.55,35C160.72,2.45,160.2,2.11,157.61,3c-1.39.35-11.25,2.43-22,4.33-10.73,2.08-26.13,5.88-34.09,8.3L87,20.1,74.9,9.2C68.15,3.32,62.61-1.87,62.61-2.39,62.61-3.6,102.93-47.9,104-47.9,104.49-47.9,115.21-38.73,127.5-27.48ZM982.63-6.54,1000.45,8l-5.54,9.69a354.83,354.83,0,0,1-26.65,41L958.92,71l-11.59-2.43c-6.58-1.38-13.5-2.94-15.58-3.28-4-.7-4-.7,1.39-9.35,2.94-4.84,5-9.86,4.5-11.07-.52-1.39-8.83-8.48-18.52-15.92-17.47-13.5-17.47-13.5-16.26-19.73.52-3.29,1.56-10.21,2.25-15.4l1-9.34,15.57-5.37c20.76-7.09,20.59-6.92,19.21-16.26l-1-7.79L952.52-33C959.27-26.44,972.94-14.5,982.63-6.54Zm308.51-5.19c34.78,6.4,39.11,7.44,59.53,14.53l20.59,7.27-16.79,8C1305,41.73,1240.79,53.5,1186.11,49.17c-31-2.59-61.25-8.65-87.55-17.65-11.59-4-22.15-7.78-23.36-8.3-3.12-1.73,22.15-13.84,44.64-21.28,18-6.06,22.15-7.1,56.24-13.5l17.3-3.29,4.5,4.33,4.33,4.15,5.19-5.36,5-5.37,30.28,1C1260.86-15.54,1280.24-13.81,1291.14-11.73ZM1018.79,18.89l7.79,4.5-13,9.86c-7.09,5.37-16.78,13.15-21.8,17.31l-9,7.61,9.52-14.53c5.19-8,11.07-17.83,13.15-22,2.07-4,4.15-7.27,4.67-7.27S1014.46,16.47,1018.79,18.89ZM258,25.81c9.86,1.39,18.34,2.6,18.68,3,2.25,2.42-41.35,40.14-46.37,40.14a4.09,4.09,0,0,0-2.94,1.73,7.74,7.74,0,0,1-3.64,2.25,31.72,31.72,0,0,0-7.44,4c-2.59,1.9-6.22,3.8-8.13,4.15a52,52,0,0,0-8.65,3.29c-2.94,1.56-5.36,2.42-5.36,1.9s-1.56-.17-3.64.87a30.46,30.46,0,0,1-6.4,2.59c-1.56.35-8.82,1.91-15.92,3.46-13.67,3.12-48.62,4.5-58.83,2.43-3.29-.7-8.82-1.73-12.11-2.08-3.29-.52-7.79-1.38-10-1.9C78.7,89.32,76.28,88.8,73,88.11a22.07,22.07,0,0,1-5.71-2.25,13.8,13.8,0,0,0-5.36-1.73c-1.73-.35-5.54-2.25-8.65-4.5C50.33,77.55,47.56,76,47,76.17c-1.56.52-12.11-5-12.11-6.58,0-2.08,40.49-21.46,57.79-27.34,28.9-10.21,65.75-17.65,96.21-19.9C203.81,21.31,238.24,23.05,258,25.81ZM879.15,72.36c-3.28,1.21-9.34,3.81-13.49,5.88-11.25,5.89-11.6,3.64-.52-5.36,9.69-8,9.86-8,15.05-5.37l5.19,2.77ZM947.67,72l8.66,2.25L942.48,87.59l-13.84,13.15-26.82.17-26.82.17L860.81,117l-14.19,15.92-.17,12.29v12.45l-9,3.81c-11.07,4.67-32.87,12.29-33.57,11.59-1.21-1,4.68-24.57,7.44-30.28,2.95-5.88,4.16-6.57,21.81-11.76,10.38-2.94,19.55-6.23,20.59-7.27,1.38-1.38.86-6.58-1.21-17.82L849.39,90l4.15-3.12A23.32,23.32,0,0,1,862,82.57c2.43-.52,9.17-2.94,15.06-5.19,13.15-5,12.63-5.19,23,.17,11.94,6.06,16.26,5.71,20.76-1.73,3.29-5.36,4.5-6.06,10.9-6.06A80,80,0,0,1,947.67,72Zm56.59,30.46c34.78,36.68,42.73,87.72,20.93,133.41-8.3,17.47-32,41.35-50.18,50.69-23.18,12.12-52.43,16.27-77.17,11.42-11.42-2.25-11.07-1.21-7.27-23.36,4.33-25.78,2.08-23.18,20.25-23.18,15.57,0,15.74,0,12.63,3.46-2.94,3.29-2.94,3.46,3.29,6.06,11.59,4.84,31.14,6.92,45.85,4.84,14-2.08,22.67-5.19,22.67-8,0-.86-2.42-4.67-5.54-8.48-5.36-6.75-5.36-7.09-2.42-11.59,9.17-14,10.73-28.9,4.67-42.74-2.08-4.5-4-7.79-4.5-7.27-.52.35.87,3.81,2.77,7.62,2.77,5.36,3.46,9.17,2.94,19.2-.52,10.73-1.21,13.33-5.88,19-14.54,18.34-41.18,19-55.72,1.38-12.46-15.23-10.73-36,4.15-49.14,9-8,15.58-9.69,29.77-8.31,7.78.87,9.17.52,6.57-.86-1.9-1-8-2.08-13.49-2.08l-10-.17V132.92l9.17-12.11c4.84-6.58,13.5-17,19-22.84C988.68,85.16,988,85.16,1004.26,102.47ZM786.75,99.18h9l6.92,17.65,6.92,17.65-3.28,9.69a106.59,106.59,0,0,0-4.5,19.9l-1.21,10.38-13.85,3.63c-26.12,6.75-24.57,6.92-29.24-2.42-8.82-17.48-25.09-35.47-44.3-49.31-2.42-1.56,1.39-.18,8.14,3.11,6.92,3.29,13.32,6.06,14.36,6.06s5.36-5.71,9.69-12.64C763.91,94,761,96.93,769.8,98.14,774.12,98.66,781.74,99.18,786.75,99.18Zm158.33,41.53v36.16l-4.67,2.6a37.85,37.85,0,0,0-9,6.92l-4.15,4.5-33.92.34-33.91.52,33.22.35,33.05.52-2.77,8.65-2.77,8.65-31.14.35-31.32.52,31.32.34,31.31.52,1,5.71a50.91,50.91,0,0,0,2.08,8.48c1,2.77-1.38,3.11-32.36,3.63l-33.39.35,33.91.52,33.74.34,4.16,5.54c2.94,4,3.46,6.06,2.24,8.13-1.55,2.43-7.44,2.77-41.87,3.29l-40,.35V135.52H877.6V104.37h67.48Zm-71-20.77v12.12H851.47l10.9-12.12c6-6.57,11.07-12.11,11.42-12.11C874,107.83,874.13,113.2,874.13,119.94ZM677.4,116c20.07,4.85,36.33,14,51.56,28.55,11.94,11.6,27.51,33.75,27.51,39.11,0,.86-4.5,2.25-9.86,2.77-5.54.69-12.8,1.56-16.09,2.07-5.89.87-6.23.52-9.35-7.09-5.88-14.71-28.55-30.28-43.95-30.28-6.74,0-7.44-.35-6.4-3.46,1.73-5.54-1.9-4-4.32,1.73-1.22,2.94-1.91,5.54-1.56,5.71,7.27,5.19,10.21,6.23,10.21,4a3.78,3.78,0,0,0-2.08-3.29c-1.21-.52.52-1,3.81-1,12.46-.17,33.57,13.67,40,26a58.19,58.19,0,0,1,3.29,7.61c0,1.56-38.42.87-53.64-1-13.67-1.55-24.4-4.84-16.79-5,2.42,0,2.94-1.56,2.94-9.35v-9.17l-6.4-1.21c-3.63-.52-22.67-1-42.39-1-35.82,0-44.64-1.21-44.64-6.23,0-3.29,21.11-21.45,32.53-28C616.84,112.85,648.5,108.7,677.4,116Zm-426.7,5.89c58.83,4.84,107.11,19,121.47,35.3,6.75,7.78,6.75,13,0,20.76C351.06,202,259,218.92,178.89,213.73c-51.22-3.46-89.46-11.25-115.41-23.54C36.14,177,32.33,163.37,52.75,150.4,88.91,127.56,173.53,115.27,250.7,121.85Zm253.66,16.09c6.93,5,19,13,27.17,17.65,8.13,4.5,15.05,8.48,15.4,8.82s-.69,2.08-2.25,3.81c-1.73,1.9-4.84,7.79-7.09,13.15l-4,9.86-3.12-4.84c-11.42-18.86-22-34.44-30.62-45.16-5.37-6.92-9.52-12.63-9-12.63S497.44,132.75,504.36,137.94Zm136.18,34.78v9.52H562.68v-8.31c0-4.67.52-9,1.21-9.52.52-.69,18.17-1.21,38.93-1.21h37.72Zm10,.17c.52,6.58.17,7.27-3.81,8-4.33.87-4.5.52-4.5-7.61,0-7.79.35-8.48,4-8C649.37,165.62,650.23,167,650.58,172.89Zm-94.13-4.5,4.5,1.73V229l41.18-.17c22.49-.17,42.91-.69,45.33-1.38,3.81-1,4.33-2.25,4.85-9.69.52-6.58-.18-9-2.43-10.73-2.76-2.08-2.76-2.25-.17-2.25,1.9,0,2.94-1.38,2.94-3.63,0-3.64.52-3.81,10.56-2.6,5.88.52,21.28,1,34.09,1h23.18l-.69,5.19c-.52,3.29-.17,5,1,4.67,1-.34,2.07-2.59,2.42-4.84.52-4.16,1.21-4.5,18.86-6.41,21.11-2.42,20.42-2.76,22.5,11.77,3.11,22.49.69,41.36-8.48,63.68-3.12,8-4.16,9.17-7.27,8.3a46.19,46.19,0,0,0-9.17-1H734V265.12c0-14.19-.35-15.75-3.46-16.61s-3.46-2.43-3.46-12.81V223.76h-55.2l-7.79,8.14c-4.5,4.84-8,10-8,12.11,0,2.77-1,4-3.46,4-3.28,0-3.46,1.21-3.46,20.59v20.59l-9.69,3.11c-9.17,2.77-10.21,3-14.71.18-4-2.25-5-2.25-5-.35a3.58,3.58,0,0,0,2.25,3.12c1,.51-.7,1-4,1-8.83.18-22.15-6.74-31.5-16.43-9.69-9.69-12.45-17-11.42-28.73q1.05-8.57-1-7.78c-1,.34-2.08,5-2.43,10.55-.34,8,.35,11.25,4.33,18.52,6.92,13,26.65,27.33,37.37,27.51q7.27,0-7.78,7.78a176.23,176.23,0,0,0-16.27,9.87c-7.26,5.19-11.94,5.19-13.49,0-.52-1.73-2.08-9.69-3.64-18C567,271,557.83,242.62,544,213l-7.79-16.79,4-10.55c3.46-9.17,9.35-19,11.25-19A27.83,27.83,0,0,1,556.45,168.39Zm290,42.4v40.66H859.6c9.86,0,13,.52,12.29,2.07-.35,1.22-1.73,9-3.12,17.31-1.21,8.48-2.77,15.22-3.29,15.22-3.28,0-18.34-11.76-29.24-22.66a113.08,113.08,0,0,1-30.63-58.31c-1.38-7.79-2.42-15.58-2.07-17,.34-1.73,6.4-4.85,16.09-8.31,8.65-3.11,17.3-6.57,19-7.61C846.45,167.7,846.45,168.05,846.45,210.79Zm-206.26-16.1.52,10h-78v-9.17c0-5.19.52-9.86,1.21-10.56.69-.52,18-.86,38.41-.69l37.38.52Zm8-8c1.91.7,2.77,3.29,2.77,8.48,0,6.58-.52,7.44-4.32,8.14-4.16.86-4.33.51-4.33-8.31C642.27,185.7,643,184.83,648.15,186.73ZM801.46,198c0,12.81,6.4,32.88,14.88,46.89,8,13.15,26.65,32.19,39.45,40.32l10.21,6.4-1.21,14.19c-.52,7.61-1,17.65-1,22.15v8.13L848,324.12c-24.4-18.34-60-34.6-85.14-39.1-5.19-.87-6.4-1.73-5.36-4,.69-1.56,3.46-9,6.23-16.61,5-13.33,5-14.71,4.5-38.94-.35-13.84-1.21-26.3-1.9-27.68-1-2.08,1.73-3.29,13.84-6.23C802.67,186,801.46,185.7,801.46,198Zm-756-1.73C89.78,227.74,231,238,320.6,216.15c18.69-4.67,39.63-12.63,49.84-19.21l7.09-4.32V258.2l-6.4,6.23c-28,27.33-130.64,40.31-230.65,29.41-51.39-5.71-87.9-16.61-98.63-29.41-2.08-2.43-2.77-10.21-3.12-37.55-.34-18.86,0-34.26.52-34.26C39.94,192.62,42.71,194.17,45.48,196.25Zm594.2,20.59v9.52H563.54l-.52-7.61c-1-13-3.11-12.46,38.93-11.94l37.73.51Zm10.38,0c0,6.75-.52,7.79-3.81,8.31-3.63.52-4,0-4-8.31s.35-8.82,4-8.3C649.54,209.06,650.06,210.09,650.06,216.84Zm74.4,19.9v10.38l-9,.52c-5,.35-9.69,1.56-10.9,2.94-2.94,3.64-24.74,3.64-27.68,0-1.39-1.73-5.19-2.59-10.56-2.59-7.26,0-8.48-.52-8.48-3.46s1.22-3.46,7.79-3.46h7.79V225.32l25.61.52,25.43.52Zm-55,2.08a9.33,9.33,0,0,1-4.67.17l-3.81-.52,4.15-5.19,4-5.19.52,5C670,235.7,669.78,238.3,669.44,238.82ZM942,246.26c7.79,4.67,24.23,4.67,33.4,0,3.63-1.91,7.27-2.94,7.79-2.08.51.69,3.11,4.15,5.88,7.79l4.67,6.4L989,260.1c-13.67,5.19-44.12,5.19-59,0L924.31,258l5.54-7.61a75.88,75.88,0,0,1,5.88-7.61A45.08,45.08,0,0,1,942,246.26ZM543,275.15c-.35.35-2.08-2.94-3.63-7.61-1.56-4.5-3.64-10-4.5-12.28a18.84,18.84,0,0,1-1.39-6.93c0-1.55,2.43,3.64,5.19,11.6C541.39,268.06,543.3,274.81,543,275.15Zm132.2-22.84c1.55,1.91,5.71,2.6,15.57,2.6s14-.69,15.57-2.6,5.54-2.59,14-2.59h12.11l-.52,24.57L731.38,299l-40.14.52-40.32.35V249.72H662C669.61,249.72,673.59,250.58,675.15,252.31ZM377.53,312.87v33.57l-5.19,5.89c-15.57,17.82-61.6,29.93-128.39,34.26-67.66,4.32-155.56-6.23-187.4-22.32-17.64-8.83-17.3-7.62-17.82-47.24-.52-24.4,0-34.44,1.39-34.44,1,0,5.53,1.91,10.21,4.16C101,312.53,243.08,319.28,325.1,299.9c17-4,39.45-12.63,45.51-17.31,2.42-1.9,4.84-3.46,5.71-3.46C377,279.13,377.53,294.36,377.53,312.87ZM739,301.8c-13.85,17.65-41.19,34.43-65.58,40.66-17.83,4.5-43.43,2.6-62.64-4.5-8.48-2.94-15.23-6-15.23-6.92,0-2.25,20.94-14.53,37.2-21.63l15.58-6.92,42.22-.52c40-.52,42-.69,42.91-4,.69-2.25,2.42-3.28,6.06-3.28h5.19ZM557.48,368.94c0,1.73-.86,13.15-1.73,25.43-4.15,50-19,101.4-40.83,140.51-6.06,10.72-6.58,11.24-8,7.09-3.29-8.31-3.63-53.12-.69-71.64a216.64,216.64,0,0,1,39.1-93.09C554.2,365.48,557.48,363.05,557.48,368.94Zm-180.3,40.83-.51,15.06-6.75-5.37c-17.31-13.67-39.45-20.07-65.41-18.86-19.55,1-32.36,5.37-48.62,16.27-19.38,13.32-32.36,31.32-38.59,54l-2.94,10.73H196c-50,0-112.82-10-137.22-21.63-12.28-5.88-16.78-10-18.86-16.78-2.07-7.27-2.07-70.6,0-70.6.87,0,6.58,2.42,12.64,5.19,20.76,9.69,55.54,16.79,103.3,20.94,30.8,2.59,110.56,1,135.65-2.77,33.74-5,62.64-13.67,77.35-23l7.79-4.85.51,13.33C377.36,388.84,377.36,401.64,377.18,409.77ZM907,419.29c6.58,15,13.15,38.07,15.4,53.81.87,6.92,1.56,13,1.21,13.15-.86,1-12.63-25.95-17.47-40.14-2.6-7.61-5.37-15.4-6.23-17.3-1.91-4.67-6.23-22.5-7.62-32l-1-7.79,5.36,9.52C899.57,403.72,904.24,413.06,907,419.29Zm-570.14-1.56c28.2,8.83,50.87,35.13,56.41,65.58,7.26,41.36-20.25,83.4-61.6,94.31-28.9,7.44-57.62-.7-79.77-22.5-48.28-47.76-20.76-130.47,46.89-141C309.87,412.37,323.72,413.75,336.87,417.73Z" style="fill:#010101"/><path d="M979.69,176.18c0,1.56-2.08,3.63-4.5,4.67l-4.33,2.08,4.33,2.25c2.42,1.38,4.5,3.46,4.5,4.84s.86,2.6,1.73,2.6c1,0,1.73-1.21,1.73-2.6s2.07-3.46,4.49-4.84l4.33-2.25-4.33-2.08c-2.42-1-4.49-3.11-4.49-4.67,0-1.39-.7-2.6-1.73-2.6C980.55,173.58,979.69,174.79,979.69,176.18Z" style="fill:#010101"/><path d="M947.67,181.37a35.65,35.65,0,0,0-15.57,13.32c-3.29,5.37-6.57,17.48-4.15,15.92.86-.52,1.56-2.59,1.56-4.67,0-9.34,13-22.32,25.26-25.26,4.67-1,5.54-1.56,2.42-1.73A26.76,26.76,0,0,0,947.67,181.37Z" style="fill:#010101"/><path d="M971.38,195.39c-1.9,2.07-1.73,2.94.52,5.19,2.59,2.59,2.94,2.59,5-.35,1.9-2.59,1.9-3.46,0-5.36C974.32,192.1,974.15,192.1,971.38,195.39Z" style="fill:#010101"/><path d="M876.21,155.76c10.21.35,27.34.35,38.07,0,10.73-.17,2.42-.52-18.52-.52S866,155.59,876.21,155.76Z" style="fill:#010101"/><path d="M878.11,173.06c10.21.35,26.82.35,37.21,0,10.21-.17,1.73-.51-18.69-.51S867.73,172.89,878.11,173.06Z" style="fill:#010101"/><path d="M571.33,172.72v6.05h38.24l-.52-5.71-.52-5.53L590,167l-18.69-.52Zm36.33,0V177h-34.6v-8.65h34.6Z" style="fill:#010101"/><path d="M622.2,171c-1.39,3.63.35,7.78,3.29,7.78,3.46,0,6.92-4.67,5.71-7.78C630,167.7,623.41,167.53,622.2,171Zm6.75.34c1.55,1.56-2.25,5.89-4.16,4.68-2.42-1.39-1.9-5.89.7-5.89A4.9,4.9,0,0,1,629,171.33Z" style="fill:#010101"/><path d="M571.33,195.21v6.06h38.06V189.16H571.33Zm36.33,0v4.33h-34.6v-8.65h34.6Z" style="fill:#010101"/><path d="M622.72,190.19c-2.25,2.25-1.21,9.52,1.56,10.56,4.15,1.56,8.82-4,6.57-7.79C628.77,189.68,624.62,188.29,622.72,190.19Zm5.54,7.1c-2.6,3.11-5.89.17-4.33-3.81.86-2.42,1.56-2.59,3.63-.86S629.81,195.39,628.26,197.29Z" style="fill:#010101"/><path d="M571.33,217.71v6h38.06V211.65H571.33Zm36.33,0V222h-34.6v-8.65h34.6Z" style="fill:#010101"/><path d="M622.72,212.69c-2.25,2.42-1.21,9,1.73,10,4.32,1.74,8.82-3.46,6.4-7.26C628.77,212.17,624.62,210.79,622.72,212.69Zm6.57,4.32c0,1.22-1.38,2.6-2.94,3-3.11.52-4.32-3.12-1.9-5.54C626.18,212.69,629.29,214.25,629.29,217Z" style="fill:#010101"/><path d="M1270.38,184.31c-17.65,5.71-44.82,14.36-60.56,19.38-164.9,52.78-159.19,50.53-159.19,61.25,0,2.95,6.23,25.27,14,49.84,7.79,24.74,15.06,48.27,16.27,52.6,14.71,51.22,19.38,60.56,29.93,60.56,2.6,0,15.23-3.46,28-7.61,12.8-4.33,37.37-12.11,54.5-17.65,137.91-43.61,164.38-52.43,168.36-56.93,4.15-4.84,4.85-12.46,2.25-20.94-1-2.76-4.5-14.36-8-25.78s-10.55-33.57-15.57-49.31S1328.69,213,1325.58,203c-2.94-9.86-6.4-19.55-7.44-21.11-1.91-3.12-11.42-8.48-14.36-8.13C1303.08,173.76,1288,178.6,1270.38,184.31Zm40.14,0c1.56,1.21,6.93,15.4,11.77,31.67,4.84,16.09,11.07,36,13.84,44.12,9.87,29.24,22.5,71.64,22.5,75.62,0,2.07-1.73,5-3.81,6.4-2.25,1.38-47.58,16.44-100.88,33.57-156.07,50.18-142.23,46.2-146.56,43.08-3.11-1.9-6.4-10.38-15.05-38.59-6.06-19.89-16.44-53.64-23.19-74.92-11.24-36-11.94-39.28-9.69-43.26,1.73-2.94,4.85-5,9.35-6.05,5.71-1.39,177.87-56.07,218-69.39C1300.83,181.89,1306.72,181.37,1310.52,184.31Z" style="fill:#010101"/><path d="M1282.49,256.29c0,5.54,2.42,7.27,10.21,7.44,4.33,0,9.52.7,11.42,1.39,2.94,1.21,2.94,1.56.52,2.94a91,91,0,0,0-8.82,7.09c-4.5,4-5.89,6.41-5.2,9,.52,2.08,1.56,3.64,2.25,3.64.87,0,6.93-4.85,13.67-10.73,8.31-7.27,12.29-12.12,12.29-14.71,0-2.08-.52-4.15-1.21-4.5C1314.5,256,1282.49,254.56,1282.49,256.29Z" style="fill:#010101"/><path d="M1224.53,267.19c-.7,1-.7,4.5-.18,7.79.7,3.63.52,5.88-.69,5.88-2.94,0-1.9,4.68,1.39,5.54,1.9.52,4.15,4.33,6,10.21,4.5,14.53,6.4,16.44,14.36,14.53,5.19-1.38,6.92-2.76,7.27-5.71.52-3.8.17-4-4.5-2.94-5.19,1-5.36.87-8.3-8.48s-3-9.86.17-12.11c3.63-2.59,2.25-6.23-2.6-6.23-1.9,0-3.8-1.73-4.49-4C1231.27,266,1226.78,263.56,1224.53,267.19Z" style="fill:#010101"/><path d="M1260.69,267.19c-6.92,1.91-11.42,7.1-10.73,12.12.69,5.53,4.5,6.05,6.58.86,1.73-4.5,9.34-8.82,12.28-6.92,3.29,1.9,1.39,5.88-4,8.65-8.65,4.33-11.76,7.79-11.76,12.81,0,5.36,4.67,10.38,9.69,10.38,1.73,0,6-1.73,9.34-3.81s7.79-3.63,10-3.29c5,.52,6.57-3.63,3.28-8.82-1.55-2.25-3.63-7.27-4.84-11.42C1277.3,266.5,1272.28,263.73,1260.69,267.19Zm13.15,22.33c0,3.28-1.21,5.71-3.63,6.92-8.31,4.5-11.94-4-3.64-9C1273,283.29,1273.84,283.63,1273.84,289.52Z" style="fill:#010101"/><path d="M1376.8,223.07c-16.79,8.65-17.31,32.88-.87,41.36,9.69,5,21.11,2.42,28.72-6.58,5.54-6.23,6.58-13.32,3.12-21.8C1402.75,223.24,1388,217.19,1376.8,223.07Zm20.76,10.21c5.71,5.54,6.06,16.44.69,21.46-5.54,5.19-12.46,6.05-19.21,2.59-7.26-3.63-8.3-5.36-8.3-13C1370.74,230.51,1387.87,223.42,1397.56,233.28Z" style="fill:#010101"/></svg>