<svg id="Capa_1" data-name="Capa 1" xmlns="http://www.w3.org/2000/svg" viewBox="0 0 1440 273.14"><circle cx="741.44" cy="147.41" r="325.24" style="fill:none;stroke:#1d1d1b;stroke-miterlimit:10;stroke-width:8px"/><circle cx="721.26" cy="118.84" r="41.62" style="fill:#010101"/><path d="M642.51,267.37H800.65s1.48-90.28-79.39-91.55C642.5,174.59,642.51,267.37,642.51,267.37Z" style="fill:#010101"/><path d="M950.88,6.68H839.23a29.94,29.94,0,0,0-29.94,29.93V67.16a29.76,29.76,0,0,0,3.08,13.22l-19.81,33.8a2,2,0,0,0,2.75,2.75l35.78-21a30,30,0,0,0,8.14,1.13H950.88a29.93,29.93,0,0,0,29.93-29.94V36.61A29.93,29.93,0,0,0,950.88,6.68Z" style="fill:none;stroke:#1d1d1b;stroke-miterlimit:10;stroke-width:8px"/><path d="M493.37,6.68H605A29.93,29.93,0,0,1,635,36.61V67.16a29.88,29.88,0,0,1-3.07,13.22l19.8,33.8a2,2,0,0,1-2.75,2.75L613.16,96A29.84,29.84,0,0,1,605,97.1H493.37a29.93,29.93,0,0,1-29.93-29.94V36.61A29.93,29.93,0,0,1,493.37,6.68Z" style="fill:none;stroke:#1d1d1b;stroke-miterlimit:10;stroke-width:8px"/><path d="M874,37.13a13.28,13.28,0,0,1,3.33-6.82,17.79,17.79,0,0,1,7.59-5,21.79,21.79,0,0,1,10.67-.9,22.69,22.69,0,0,1,9.4,3.37,15.88,15.88,0,0,1,5.71,6.34,13.13,13.13,0,0,1,1.22,7.75,11.47,11.47,0,0,1-2.09,5.35,17.28,17.28,0,0,1-3.69,3.66c-1.37,1-3.79,2.61-7.29,4.89a25.89,25.89,0,0,0-2.35,1.73,7.87,7.87,0,0,0-1.38,1.43,7.26,7.26,0,0,0-.79,1.36c-.21.47-.54,1.28-1,2.46-.85,2.5-2.54,3.58-5.06,3.21a4.67,4.67,0,0,1-3.13-1.73,5,5,0,0,1-.8-4,13.22,13.22,0,0,1,4.94-8.9q1.88-1.49,5-3.47c1.81-1.16,3.13-2,3.94-2.64a10.75,10.75,0,0,0,2.16-2.1,5.75,5.75,0,0,0,1.14-2.71,6.62,6.62,0,0,0-1.53-5.34,8.4,8.4,0,0,0-5.52-2.87q-4.15-.6-6.42,1.18a16.48,16.48,0,0,0-4.2,5.6c-1.26,2.67-3.08,3.84-5.48,3.49a4.87,4.87,0,0,1-3.36-2A4.45,4.45,0,0,1,874,37.13Zm12.62,43.35a6,6,0,0,1-3.81-2,5.15,5.15,0,0,1-1.14-4.35,5.3,5.3,0,0,1,2.23-3.69,5.72,5.72,0,0,1,4.31-1A5.61,5.61,0,0,1,892,71.55,5.37,5.37,0,0,1,893,75.72a5.2,5.2,0,0,1-2.29,3.84A5.93,5.93,0,0,1,886.57,80.48Z" style="fill:#1d1d1b"/><path d="M539.6,54.33l-4.4-16.16c-.85-3.15-1.41-5.42-1.7-6.81a6.36,6.36,0,0,1,.6-4.73,5.2,5.2,0,0,1,3.59-2.38c2-.4,3.41,0,4.34,1.24a13.87,13.87,0,0,1,2.18,5.66,46.06,46.06,0,0,1,.69,4.63l1.93,17.16a13.32,13.32,0,0,1-.09,4.82,2.74,2.74,0,0,1-2.27,2.13,2.64,2.64,0,0,1-2.88-1A15.89,15.89,0,0,1,539.6,54.33ZM548,76.06a5.51,5.51,0,0,1-3.92-.61A4.85,4.85,0,0,1,541.71,72a5.18,5.18,0,0,1,4.1-6.13,5.17,5.17,0,0,1,4,.75A5,5,0,0,1,552,69.9a4.88,4.88,0,0,1-.78,4.07A5.31,5.31,0,0,1,548,76.06Z" style="fill:#1d1d1b"/><path d="M1340.56,41.52c-14.6-14.6-32.2-20.66-39.31-13.55l-147,147a5.76,5.76,0,0,0-1.47,2.48l-18.57,63.18a5.83,5.83,0,0,0,7.24,7.24l63.18-18.57a5.76,5.76,0,0,0,2.48-1.47l147-147C1361.22,73.72,1355.16,56.12,1340.56,41.52Z" style="fill:#1d1d1b"/><path d="M86.59,40.13C72,54.72,65.93,72.32,73,79.44l147,147a5.88,5.88,0,0,0,2.48,1.48l63.18,18.56a5.83,5.83,0,0,0,7.24-7.24L274.4,176.08a5.82,5.82,0,0,0-1.47-2.48l-147-147C118.79,19.46,101.19,25.53,86.59,40.13Z" style="fill:#1d1d1b"/></svg>