<svg id="Capa_1" data-name="Capa 1" xmlns="http://www.w3.org/2000/svg" viewBox="0 0 1440 273.14"><g id="fondo"><rect y="5.23" width="1440" height="267.9" style="fill:#60c4e2"/><path d="M55.22,14.47H1384.78c23.92,0,43.32,15.06,43.32,33.63V230.27c0,18.58-19.4,33.63-43.32,33.63H55.22c-23.92,0-43.32-15-43.32-33.63V48.1C11.9,29.53,31.3,14.47,55.22,14.47Z" style="fill:#fff;stroke:#010101;stroke-miterlimit:10;stroke-width:0.25px"/></g><g id="pseudoanonimizados"><g id="Capa_2" data-name="Capa 2"><g id="Capa_1-2" data-name="Capa 1-2"><ellipse cx="103.66" cy="78.58" rx="72.12" ry="55.98" style="fill:none;stroke:#010101;stroke-miterlimit:10;stroke-width:0.3499999940395355px"/><path d="M103.42,83.48h0c-20.17-1.38-38,10.19-39.74,25.84a22,22,0,0,0,.35,7.14h79c3.31-15.5-10.2-30.15-30.17-32.72A46.72,46.72,0,0,0,103.42,83.48Z" style="fill:#010101"/><polygon points="97.83 49.58 102.7 49.58 102.7 45.05 109.73 45.05 109.73 52.53 102.23 57.98 106.39 65.74 111.75 65.74 111.75 60.94 121.03 54.29 121.03 43.3 112.82 37.94 91.75 37.94 97.83 49.58" style="fill:#010101"/><polygon points="108.3 69.44 112.11 76.74 112.11 69.44 108.3 69.44" style="fill:#010101"/><path d="M89.73,38.4c-13,5.19-18.2,17.6-11.52,27.73,5.84,8.85,19,13.2,31.28,10.33Z" style="fill:#1e1e1e"/><line x1="87.71" y1="32.3" x2="133.41" y2="119.97" style="fill:none"/><ellipse cx="88.07" cy="53.92" rx="5" ry="3.88" style="fill:#fff"/></g></g></g><g id="datos_no_personales" data-name="datos no personales"><polygon points="233.38 56.41 233.38 54.29 237.3 54.29 237.3 58.45 233.49 61.59 233.49 65.19 238.02 65.19 238.02 62.6 242.54 59 242.54 53.37 239.21 50.69 228.85 50.69 228.73 56.41 233.38 56.41" style="fill:#1e1e1e"/><rect x="233.38" y="66.3" width="4.64" height="2.77" style="fill:#1e1e1e"/><path d="M235.4,72.67h0c-8-.45-15,4.21-15.54,10.42a8.73,8.73,0,0,0,.19,2.79H251c1.34-6.19-4-12-12-13.09a19.46,19.46,0,0,0-3.58-.12" style="fill:#010202;stroke:#010202;stroke-miterlimit:10;stroke-width:0.5px"/><path d="M217.19,47.64h86c3.42,0,6.19,2.15,6.19,4.8h0v37c0,2.66-2.77,4.81-6.19,4.81h-86c-3.4-.24-5.91-2.58-5.6-5.22V52.44C211.58,50,214,47.88,217.19,47.64Z" style="fill:none;stroke:#1e1e1e;stroke-miterlimit:10;stroke-width:0.25px"/><line x1="261.82" y1="59.46" x2="297.52" y2="59.46" style="fill:none;stroke:#1e1e1e;stroke-miterlimit:10;stroke-width:0.20000000298023224px"/><line x1="261.82" y1="72.49" x2="297.52" y2="72.49" style="fill:none;stroke:#1e1e1e;stroke-miterlimit:10;stroke-width:0.20000000298023224px"/><line x1="261.82" y1="79.14" x2="297.52" y2="79.14" style="fill:none;stroke:#1e1e1e;stroke-miterlimit:10;stroke-width:0.20000000298023224px"/><line x1="261.82" y1="85.14" x2="297.52" y2="85.14" style="fill:none;stroke:#1e1e1e;stroke-miterlimit:10;stroke-width:0.20000000298023224px"/><line x1="261.82" y1="66.3" x2="297.52" y2="66.3" style="fill:none;stroke:#1e1e1e;stroke-miterlimit:10;stroke-width:0.20000000298023224px"/><polygon points="262.65 94.11 255.99 94.11 255.99 116.18 240.4 116.18 258.49 129.76 276.46 116.28 262.65 116.28 262.65 94.11" style="fill:#1e1e1e"/><ellipse cx="260.27" cy="79.14" rx="69.98" ry="55.43" style="fill:none;stroke:#010202;stroke-miterlimit:10;stroke-width:0.3499999940395355px"/></g><g id="transfer_externa" data-name="transfer externa"><g id="Capa_3" data-name="Capa 3"><ellipse cx="725.95" cy="79.14" rx="71.4" ry="55.43" style="fill:none;stroke:#010101;stroke-miterlimit:10;stroke-width:0.3499999940395355px"/></g><g id="Capa_4" data-name="Capa 4"><line x1="677.04" y1="66.85" x2="769.75" y2="66.85" style="fill:none;stroke:#010101;stroke-linecap:round;stroke-miterlimit:10;stroke-width:0.30000001192092896px"/><line x1="677.04" y1="66.85" x2="689.06" y2="57.52" style="fill:none;stroke:#010101;stroke-linecap:round;stroke-miterlimit:10;stroke-width:0.30000001192092896px"/><line x1="689.06" y1="76.28" x2="677.04" y2="66.94" style="fill:none;stroke:#010101;stroke-linecap:round;stroke-miterlimit:10;stroke-width:0.30000001192092896px"/><line x1="769.75" y1="90.69" x2="677.04" y2="90.69" style="fill:none;stroke:#010101;stroke-linecap:round;stroke-miterlimit:10;stroke-width:0.30000001192092896px"/><line x1="769.75" y1="90.69" x2="757.73" y2="81.45" style="fill:none;stroke:#010101;stroke-linecap:round;stroke-miterlimit:10;stroke-width:0.30000001192092896px"/><line x1="757.73" y1="100.2" x2="769.75" y2="90.87" style="fill:none;stroke:#010101;stroke-linecap:round;stroke-miterlimit:10;stroke-width:0.30000001192092896px"/></g></g><g id="tratamiento_datos" data-name="tratamiento datos"><ellipse cx="571.24" cy="79.14" rx="71.4" ry="55.43" style="fill:none;stroke:#010101;stroke-miterlimit:10;stroke-width:0.3499999940395355px"/><ellipse cx="581.95" cy="48.75" rx="15.35" ry="11.92" style="fill:#fff;stroke:#202020;stroke-miterlimit:10;stroke-width:0.15000000596046448px"/><path d="M582.31,38.68h.24a.64.64,0,0,1,.71.55v9.15a.65.65,0,0,1-.71.55h-.24a.65.65,0,0,1-.72-.55V39.23C581.59,38.92,581.91,38.68,582.31,38.68Z" style="fill:#202020"/><path d="M577.05,53.21,581.69,48a1,1,0,0,1,1.16-.17l.2.1a.56.56,0,0,1,.21.9L578.62,54a1,1,0,0,1-1.15.17l-.2-.1A.57.57,0,0,1,577.05,53.21Z" style="fill:#202020"/><ellipse cx="582.55" cy="48.28" rx="2.14" ry="1.66" style="fill:#202020"/><text transform="translate(542.56 57.8) scale(1.29 1)" style="isolation:isolate;font-size:29.746538162231445px;fill:#202020;font-family:Calibri-Bold, Calibri;font-weight:700">d</text><path d="M584.33,82.37c-12.55,3-19.56,13.39-15.65,23.13s17.24,15.19,29.79,12.16c12.3-3,19.33-13,15.85-22.63h0C610.77,85.2,597.64,79.47,585,82.22Zm10,26.33c-5.87,1-11.79-1.52-13.81-5.91-1.71-4.61,1.7-9.42,7.64-10.76S600.3,93.35,602,98s-1.67,9.38-7.56,10.74Z" style="fill:#202020"/><path d="M591.35,87,581.24,89.3c-.6,0-1.31,0-1.43-1.11L577.43,79v-1.1L585.16,76s1.07,0,1.31.74L591.11,86C592.42,86.53,592.42,86.53,591.35,87Z" style="fill:#202020"/><path d="M590.76,114.24l10.11-2.31s1.31,0,1.43,1l2.38,9.24c0,.55,0,1.11-.59,1.2l-7.74,1.75s-1.07,0-1.31-.73l-4.64-9.24C590,114.24,590.16,114.24,590.76,114.24Z" style="fill:#202020"/><path d="M602.42,90.78l-8.21-5.17V84.13l8.92-6.84c.6,0,1.19-.55,1.55,0l6.43,4v1.2l-6.79,7.67C604.32,90.78,602.9,91.06,602.42,90.78Z" style="fill:#202020"/><path d="M577.79,110.83l9.4,3.69v1.57l-6.67,8.13c0,.56-.95.74-1.43.56L571.83,122a.86.86,0,0,1,0-1.29l4.53-9.24A1.18,1.18,0,0,1,577.79,110.83Z" style="fill:#202020"/><path d="M609.56,103.53l-5.47,6.93a1.54,1.54,0,0,0,.95,1.38l11.18,4.25a1.45,1.45,0,0,0,1.55,0l4.29-5.36a1.52,1.52,0,0,0-.6-1.2l-9.88-5.82a1.71,1.71,0,0,0-2-.19Z" style="fill:#202020"/><path d="M573.5,97.89l4.76-7.3a1.4,1.4,0,0,0-1.19-1.29l-11.9-3.42h-1.55l-3.69,5.64a1.32,1.32,0,0,0,.72,1.11l10.59,5.08C572.31,98.35,573.26,98.35,573.5,97.89Z" style="fill:#202020"/><path d="M577.19,108.15l-3.45-7.67a2.32,2.32,0,0,0-2,0l-11.19,4.16a.89.89,0,0,0-.95,1l2.73,6a1.64,1.64,0,0,0,1.55,0l11.9-2.4C576.83,109.16,577.43,108.61,577.19,108.15Z" style="fill:#202020"/><path d="M608.25,101l-2.38-7.94c0-.46,0-.93,1.43-1l11.9-1.29c.71,0,1.43,0,1.43.55l1.9,6.1s0,.74-.95.92l-11.9,3.15A1.81,1.81,0,0,1,608.25,101Z" style="fill:#202020"/><path d="M550.89,69.25c-8.48-3.49-19-1-23.5,5.59s-1.28,14.75,7.2,18.25h0c8.47,3.49,19,1,23.5-5.59S559.37,72.75,550.89,69.25ZM539,86.53c-3.88-1.61-5.34-5.37-3.27-8.38s6.92-4.15,10.8-2.53,5.33,5.31,3.3,8.32-6.86,4.2-10.76,2.62Z" style="fill:#202020"/><path d="M553.15,75.07,542.8,70.92a.77.77,0,0,1,0-1.2h0l5.35-5.64a1.63,1.63,0,0,1,1.43,0l8,3.23a.63.63,0,0,1,0,1l-3,6.56a1.14,1.14,0,0,1-1.32.58l-.11,0Z" style="fill:#202020"/><path d="M532,87.27l10.35,4.16a.83.83,0,0,1,0,1.2h0L537,98.26a1.32,1.32,0,0,1-1.43,0L528,95.77a.88.88,0,0,1-.6-1l3-6.56a1.13,1.13,0,0,1,1.31-.58l.12,0Z" style="fill:#202020"/><path d="M554.34,85.51V76.28a1,1,0,0,1,1.07-.84h0l8.93.84a.93.93,0,0,1,.95.83v7a1,1,0,0,1-.95.83l-8.69,1.57a1.32,1.32,0,0,1-1.31-.74Z" style="fill:#202020"/><path d="M530.78,77.29v9.24a1,1,0,0,1-1.07.83h0L521,86.53a1.15,1.15,0,0,1-.95-.83V78.4c-.15-.5.26-1,.9-1.1h0l8.92-1.2a1,1,0,0,1,1.19.73h0Z" style="fill:#202020"/><path d="M553.86,86.53l-9.75,4.9a.7.7,0,0,0,0,1.17l0,0h0l5.95,5.26a1.31,1.31,0,0,0,1.42,0L559,94.1a.62.62,0,0,0,0-1l-3.69-6.38a1.3,1.3,0,0,0-1.31-.18Z" style="fill:#202020"/><path d="M531.49,75.81l9.76-4.89a.83.83,0,0,0,0-1.2h0l-6-5.27a1.32,1.32,0,0,0-1.43,0l-7.38,3.6a.69.69,0,0,0,0,1l3.81,6.37a1.28,1.28,0,0,0,1.43,0Z" style="fill:#202020"/></g><g id="datos_personales" data-name="datos personales"><path d="M391.42,72.67h0c-8.06-.54-15.16,4.08-15.86,10.33a8.72,8.72,0,0,0,.15,2.88h31.54c1.35-6.18-4-12-12-13.1a19,19,0,0,0-3.84-.11" style="fill:#010202"/><path d="M372.38,47.64h87.94c3.42,0,6.19,2.15,6.19,4.8V88.93c0,2.65-2.77,4.81-6.19,4.81H372.38c-3.42,0-6.19-2.16-6.19-4.81V52.44C366.19,49.79,369,47.64,372.38,47.64Z" style="fill:none;stroke:#1e1e1e;stroke-miterlimit:10;stroke-width:0.25px"/><line x1="417.96" y1="59.46" x2="454.37" y2="59.46" style="fill:none;stroke:#1e1e1e;stroke-miterlimit:10;stroke-width:0.20000000298023224px"/><line x1="417.96" y1="72.49" x2="454.37" y2="72.49" style="fill:none;stroke:#1e1e1e;stroke-miterlimit:10;stroke-width:0.20000000298023224px"/><line x1="417.96" y1="79.14" x2="454.37" y2="79.14" style="fill:none;stroke:#1e1e1e;stroke-miterlimit:10;stroke-width:0.20000000298023224px"/><line x1="417.96" y1="85.14" x2="454.37" y2="85.14" style="fill:none;stroke:#1e1e1e;stroke-miterlimit:10;stroke-width:0.20000000298023224px"/><line x1="417.96" y1="66.3" x2="454.37" y2="66.3" style="fill:none;stroke:#1e1e1e;stroke-miterlimit:10;stroke-width:0.20000000298023224px"/><polygon points="418.79 94.11 412.01 94.11 412.01 116.18 396.06 116.18 414.63 129.76 432.95 116.28 418.79 116.28 418.79 94.11" style="fill:#1e1e1e"/><ellipse cx="416.53" cy="79.14" rx="71.4" ry="55.43" style="fill:none;stroke:#010202;stroke-miterlimit:10;stroke-width:0.3499999940395355px"/><ellipse cx="391.54" cy="63.71" rx="8.21" ry="6.19" style="fill:#1e1e1e"/></g><g id="transfer_interna" data-name="transfer interna"><ellipse cx="880.66" cy="79.05" rx="71.4" ry="55.52" style="fill:none;stroke:#010202;stroke-miterlimit:10;stroke-width:0.3499999940395355px"/><ellipse cx="853.29" cy="83.02" rx="7.5" ry="1.76" style="fill:none;stroke:#1e1e1e;stroke-miterlimit:10;stroke-width:0.20000000298023224px"/><polyline points="845.67 83.02 845.67 91.7 845.67 92.26" style="fill:none;stroke:#1e1e1e;stroke-miterlimit:10;stroke-width:0.20000000298023224px"/><path d="M845.79,86s-.71,1.2,5.71,1.57a27,27,0,0,0,4.76,0c1.91,0,4.17-.56,4.53-1.48" style="fill:none;stroke:#1e1e1e;stroke-miterlimit:10;stroke-width:0.20000000298023224px"/><path d="M845.79,92.07s-.71,1.2,5.71,1.57a27,27,0,0,0,4.76,0c1.91,0,4-.55,4.53-1.38h0V83" style="fill:none;stroke:#1e1e1e;stroke-miterlimit:10;stroke-width:0.20000000298023224px"/><path d="M845.67,88.93s0,1.2,5.83,1.57a27,27,0,0,0,4.76,0c1.91,0,4.17-.55,4.53-1.48" style="fill:none;stroke:#1e1e1e;stroke-miterlimit:10;stroke-width:0.20000000298023224px"/><ellipse cx="880.78" cy="57.71" rx="6.31" ry="4.34" style="fill:none;stroke:#1e1e1c;stroke-miterlimit:10;stroke-width:0.25px"/><line x1="836.27" y1="104.36" x2="836.27" y2="68.79" style="fill:none;stroke:#1e1e1e;stroke-miterlimit:10;stroke-width:0.20000000298023224px"/><polyline points="824.01 77.48 880.78 37.94 937.43 77.48" style="fill:none;stroke:#1e1e1c;stroke-miterlimit:10;stroke-width:0.20000000298023224px"/><line x1="925.17" y1="104.36" x2="925.17" y2="68.79" style="fill:none;stroke:#1e1e1e;stroke-miterlimit:10;stroke-width:0.20000000298023224px"/><ellipse cx="908.27" cy="83.11" rx="7.5" ry="1.76" style="fill:none;stroke:#1e1e1e;stroke-miterlimit:10;stroke-width:0.20000000298023224px"/><polyline points="900.65 83.11 900.65 91.89 900.65 92.35" style="fill:none;stroke:#1e1e1e;stroke-miterlimit:10;stroke-width:0.20000000298023224px"/><path d="M900.65,86.53s-.59,1.2,5.84,1.57a27,27,0,0,0,4.76,0c1.9,0,4.16-.55,4.52-1.48" style="fill:none;stroke:#1e1e1e;stroke-miterlimit:10;stroke-width:0.20000000298023224px"/><path d="M900.65,92.16s-.59,1.3,5.84,1.58h4.64c1.9,0,4.16-.56,4.64-1.48h0V83" style="fill:none;stroke:#1e1e1e;stroke-miterlimit:10;stroke-width:0.20000000298023224px"/><path d="M900.65,89s-.59,1.3,5.84,1.57h4.64c2,0,4.28-.64,4.64-1.57" style="fill:none;stroke:#1e1e1e;stroke-miterlimit:10;stroke-width:0.20000000298023224px"/><g id="Capa_4-2" data-name="Capa 4-2"><line x1="867.09" y1="84.31" x2="894.11" y2="84.31" style="fill:none;stroke:#010202;stroke-linecap:round;stroke-miterlimit:10;stroke-width:0.20000000298023224px"/><line x1="867.09" y1="84.31" x2="870.55" y2="81.54" style="fill:none;stroke:#010202;stroke-linecap:round;stroke-miterlimit:10;stroke-width:0.20000000298023224px"/><line x1="870.55" y1="87.08" x2="867.09" y2="84.31" style="fill:none;stroke:#010202;stroke-linecap:round;stroke-miterlimit:10;stroke-width:0.20000000298023224px"/><line x1="894.11" y1="91.33" x2="867.09" y2="91.33" style="fill:none;stroke:#010202;stroke-linecap:round;stroke-miterlimit:10;stroke-width:0.20000000298023224px"/><line x1="894.11" y1="91.33" x2="890.66" y2="88.56" style="fill:none;stroke:#010202;stroke-linecap:round;stroke-miterlimit:10;stroke-width:0.20000000298023224px"/><line x1="890.66" y1="94.01" x2="894.11" y2="91.33" style="fill:none;stroke:#010202;stroke-linecap:round;stroke-miterlimit:10;stroke-width:0.20000000298023224px"/></g></g><g id="encriptados"><ellipse id="Rodona" cx="105.68" cy="198.13" rx="72.83" ry="56.54" style="fill:none;stroke:#010101;stroke-miterlimit:10;stroke-width:0.3499999940395355px"/><text transform="translate(56.3 189.44) scale(1.29 1)" style="isolation:isolate;font-size:38.52268981933594px;fill:#202020;font-family:Calibri-Bold, Calibri;font-weight:700">****</text><g id="Candau"><path d="M127.1,241.64H84.26c-1.47-.1-2.57-1.08-2.5-2.22V211.71c-.07-1.14,1-2.12,2.5-2.22H127.1c1.47.1,2.57,1.08,2.5,2.22v27.71C129.67,240.56,128.57,241.54,127.1,241.64Z" style="fill:#fff;stroke:#202020;stroke-miterlimit:10;stroke-width:0.20000000298023224px"/><path d="M81.76,202.37c0-10.2,10.66-18.47,23.8-18.47s23.8,8.27,23.8,18.47" style="fill:none;stroke:#202020;stroke-miterlimit:10;stroke-width:0.20000000298023224px"/><line x1="81.76" y1="202.37" x2="81.76" y2="212.44" style="fill:none;stroke:#202020;stroke-miterlimit:10;stroke-width:0.20000000298023224px"/><line x1="129.6" y1="202.37" x2="129.6" y2="212.44" style="fill:none;stroke:#202020;stroke-miterlimit:10;stroke-width:0.20000000298023224px"/><path d="M110.92,234.34l-3.34-10c2.63-1.06,3.65-3.57,2.28-5.6l0,0a6.36,6.36,0,0,0-7.44-1.1c-2.07,1.09-2.89,3.16-2,5a5.56,5.56,0,0,0,2.26,1.75l-3.33,10Z" style="fill:#202020"/></g></g><g id="no_anonimizados" data-name="no anonimizados"><ellipse cx="880.66" cy="198.03" rx="71.4" ry="56.63" style="fill:none;stroke:#010101;stroke-miterlimit:10;stroke-width:0.25px"/><ellipse cx="880.42" cy="177.99" rx="23.09" ry="18.29" style="fill:#010202"/><path d="M880.66,203h0c-44.27,0-38.91,33.35-38.91,33.35h78.18S924.93,202.84,880.66,203Z" style="fill:#010202"/><ellipse cx="869.24" cy="173.74" rx="5" ry="3.97" style="fill:#fff"/><ellipse cx="891.97" cy="173.74" rx="5" ry="3.97" style="fill:#fff"/></g><g id="metadata"><path d="M576.71,227.87V199m0-.47h-8.45m0,.47h0v28.91H555.17m0,.46h0l18.21,13.77m.72,0,18.2-13.77m0-.64h0Z" style="fill:#1e1e1e"/><path d="M612.89,176.79l-16.78-8.23a7,7,0,0,0-4.76-.55l-58.43,14.78c-3.37,1.11-5,4.09-3.69,6.74l8.93,22.73c.88,2.7,4.35,4.37,7.85,3.79l58.31-14.88a5,5,0,0,0,3.46-2.58l8.44-14.51C617.61,181.35,616.19,178.24,612.89,176.79Z" style="fill:#fff;stroke:#010101;stroke-miterlimit:10;stroke-width:0.20000000298023224px"/><ellipse cx="601.59" cy="183.71" rx="3.93" ry="3.14" style="fill:#fff;stroke:#1e1e1e;stroke-miterlimit:10;stroke-width:0.10000000149011612px"/><path d="M587.9,174.57l8.81,22.82c.47,1.14-.32,2.37-1.79,2.77l-46.77,11.91a2.94,2.94,0,0,1-3.42-1.4l0-.07-8.92-22.45c-.41-1.14.36-2.34,1.78-2.77l46.89-11.83A3.12,3.12,0,0,1,587.9,174.57Z" style="fill:#fff;stroke:#010101;stroke-miterlimit:9.960000038146973;stroke-width:0.20000000298023224px"/><text transform="matrix(1.16, -0.29, 0.36, 0.93, 544.69, 201.44)" style="isolation:isolate;font-size:10.943862915039062px;fill:#1e1e1e;font-family:ArialRoundedMTBold, Arial Rounded MT Bold">&lt;meta&gt;</text><ellipse cx="571.24" cy="197.48" rx="71.4" ry="57.28" style="fill:none;stroke:#010202;stroke-miterlimit:10;stroke-width:0.3499999940395355px"/></g><g id="almacenamiento"><ellipse cx="416.41" cy="166.44" rx="35.11" ry="8.5" style="fill:none;stroke:#1e1e1e;stroke-miterlimit:10;stroke-width:0.20000000298023224px"/><polyline points="381.3 166.44 381.3 207.73 381.3 210.23" style="fill:none;stroke:#1e1e1e;stroke-miterlimit:10;stroke-width:0.20000000298023224px"/><polyline points="451.4 166.44 451.4 214.57 451.4 217.43" style="fill:none;stroke:#1e1e1e;stroke-miterlimit:10;stroke-width:0.20000000298023224px"/><path d="M381.3,180.3s-3,5.91,27.14,7.48a155.07,155.07,0,0,0,21.77,0c9.17-.83,19.64-2.77,21.43-7.21" style="fill:none;stroke:#1e1e1e;stroke-miterlimit:10;stroke-width:0.20000000298023224px"/><ellipse cx="416.53" cy="198.31" rx="71.4" ry="56.44" style="fill:none;stroke:#010202;stroke-miterlimit:10;stroke-width:0.3499999940395355px"/><path d="M381.3,209.3s-3,5.92,27.14,7.49a158.17,158.17,0,0,0,21.77,0c9.05-.74,19.52-2.68,21.31-7.12" style="fill:none;stroke:#1e1e1e;stroke-miterlimit:10;stroke-width:0.20000000298023224px"/><text id="Y" transform="translate(432.12 244.32) scale(1.26 1)" style="isolation:isolate;font-size:11.639949798583984px;fill:#171717;font-family:ArialMT, Arial;letter-spacing:-0.038078592708130625em">Y</text><path d="M456.87,230.55c.72-13.49-1.54-26.14-19.87-27" style="fill:none;stroke:#171717;stroke-miterlimit:10;stroke-width:0.10000000149011612px"/><polygon points="454.49 228.8 459.37 228.8 456.99 232.21 454.49 228.8" style="fill:#1f1f1f"/><ellipse cx="436.76" cy="218.26" rx="17.97" ry="14.23" style="fill:#fff;stroke:#1e1e1e;stroke-miterlimit:10;stroke-width:0.20000000298023224px"/><path d="M437.24,206.35h.35a.77.77,0,0,1,.84.64v10.9a.77.77,0,0,1-.84.65h-.35a.77.77,0,0,1-.84-.65V207A.77.77,0,0,1,437.24,206.35Z" style="fill:#1e1e1e"/><path d="M437.71,217.06h0a.69.69,0,0,1,0,1l-5.47,6.28a1.16,1.16,0,0,1-1.31,0h0v-1l5.47-6.29a1,1,0,0,1,1.17-.1A.71.71,0,0,1,437.71,217.06Z" style="fill:#1e1e1e"/><ellipse cx="437.47" cy="217.71" rx="2.38" ry="1.85" style="fill:#1e1e1e"/><path d="M381.3,194.43s-3.09,5.91,27,7.48a155.21,155.21,0,0,0,21.78,0c9.16-.74,19.63-2.68,21.42-7.11" style="fill:none;stroke:#1e1e1e;stroke-miterlimit:10;stroke-width:0.20000000298023224px"/></g><g id="cache"><path d="M1046.8,40.34a9.35,9.35,0,0,0-2,4.8,13.89,13.89,0,0,0,3,1.67c2,.92,2.74,1.1,3.21.92a.74.74,0,0,0,0-.65s0-.64-2.74-1.75,0,0,2.15,0a29.32,29.32,0,0,1,18.09,6.28,18.42,18.42,0,0,1,8.56,10.9,8,8,0,0,1,0,4.43,21.41,21.41,0,0,1-.71,3,.92.92,0,0,0,.83.83,2,2,0,0,0,1.19,0,19.77,19.77,0,0,0,2-6.55,14.06,14.06,0,0,0-4.76-10.44c-5.72-6.41-15-10.37-25-10.72h-3l.71-1.48V39.88C1048.34,39.69,1047.39,39.6,1046.8,40.34Z" style="fill:#010101"/><path d="M983.6,63.62V79.14h47.61l3.45-.65,3.57-.74v-4c0-4.62,0-4.25-3.1-4.9H1038V60.57l-2.5-1.75c-2.26,0-2.38-.65,0-.93s2.5,0,2.5-4.71v-3.6h-1.31a118,118,0,0,0-29.28-1.11H983.6Zm46.54-10.26V58h-45V48.75h45.58Zm3.8-3.78h2.38v6.83h-1.42l-2.15,1.3h-1.19a43.51,43.51,0,0,1,0-8.69Zm-3.8,14v4.43h-45V58.82h45.58Zm3.92-3.88,2.5.46V67l-2.26.46c-3.45.65-3.21,1-3.21-3.88a21,21,0,0,1,0-4.34Zm-3.92,14v4.53h-45V69.07h45.58Zm3.68-4.06,2.5.46v7.11h-2.38l-2.61.46a21.86,21.86,0,0,1,0-4.43,28.55,28.55,0,0,1,0-4.53Z" style="fill:#010101"/><path d="M989,53.83v2.86h23V50.87H989Zm21.9,0v1.94H990V51.7h20.83Z" style="fill:#010101"/><path d="M1020.85,51.61a2.17,2.17,0,0,0-.85,3.46,3.82,3.82,0,0,0,4.46.67,2.84,2.84,0,0,0,1-.9c.84-1.21.24-2.72-1.33-3.37A4,4,0,0,0,1020.85,51.61Zm3.34,1a1.52,1.52,0,0,1-.51,2.45,2.81,2.81,0,0,1-1,.32,1.85,1.85,0,0,1-2-1.56c0-.07,0-.13,0-.2a2.11,2.11,0,0,1,2.43-1.18,2.07,2.07,0,0,1,.55.17Z" style="fill:#010101"/><path d="M989,64v2.86h23V61.12H989Zm21.9,0v2H990V61.86h20.83Z" style="fill:#010101"/><path d="M1019.78,62a1.68,1.68,0,0,0-.95,1.84c0,1,0,1.39.95,1.94a4,4,0,0,0,4.7-.26,2.79,2.79,0,0,0,.54-.66c.6-1.35-.32-2.82-2.06-3.29A4.12,4.12,0,0,0,1019.78,62Zm3.45.64a1.44,1.44,0,0,1,.46,2.33,2.07,2.07,0,0,1-.46.35,1.73,1.73,0,0,1-1.9,0,1.39,1.39,0,0,1-.67-2.16,2,2,0,0,1,.67-.52,2.9,2.9,0,0,1,1.31,0A2.91,2.91,0,0,1,1023.23,62.6Z" style="fill:#010101"/><path d="M989,73.87v2.87h23V71H989Zm21.78,0v2H990.15V74.15a8.62,8.62,0,0,1,0-2h20.59Z" style="fill:#010101"/><path d="M1019.78,72.21a1.83,1.83,0,0,0-.44,3,3,3,0,0,0,.44.34,2.54,2.54,0,0,0,2.26.83c1.7.15,3.23-.8,3.42-2.12a2.21,2.21,0,0,0-1.27-2.22,3.32,3.32,0,0,0-3.86-.3A2.56,2.56,0,0,0,1019.78,72.21Zm3.69.55a1.35,1.35,0,0,1,0,2.23,2.39,2.39,0,0,1-1.55.45,1.69,1.69,0,0,1-1.91-1.27,1,1,0,0,1,0-.3,1.52,1.52,0,0,1,0-1.11,2.91,2.91,0,0,1,1.55,0A2.6,2.6,0,0,1,1023.47,72.76Z" style="fill:#010101"/><path d="M1048,77.29a33.49,33.49,0,0,1-4.29,3.6l-4.16,3.42v3.14h-1a4.47,4.47,0,0,0-3.22,1.2v23.47l.83.55.84.74h23.8c23.8,0,23.8,0,23.8-.55l.72-.56V100.48c0-13.49,0-12.66-2.86-12.93H1081V77.29h-33Zm32.37,5.36v4.8h-4.88a30.26,30.26,0,0,0-5.71,0,2.33,2.33,0,0,0-1.31,1.11v.93h-16.19v-.84c-1-1.29-1.9-1.57-6.54-1.57h-4.29V84.87h8.45v-7h30.47Zm-32.49,1.11a16.05,16.05,0,0,1-3.1,0h-3.09l3-2.5,3-2.4v2.4A7.54,7.54,0,0,1,1047.87,83.76Zm1.43,4.71a2.13,2.13,0,0,1,1.19.92c1,1.3,2.14,1.48,8.8,1.48H1067c1.55,0,1.78,0,2.26-1.11s1.55-1.38,8.92-1.2a24.76,24.76,0,0,1,6,0s.59,1.48.59,11.73,0,11.37-.59,11.74a163.12,163.12,0,0,1-23.81,0,236.17,236.17,0,0,1-23.8,0V88.65h.84A84.38,84.38,0,0,1,1049.3,88.47Z" style="fill:#010101"/><path d="M989.67,86.53a20.63,20.63,0,0,0,0,8.5,22.22,22.22,0,0,0,8.69,10.53,33.13,33.13,0,0,0,9.64,5.17,26.46,26.46,0,0,0,10.47,1.85,15.75,15.75,0,0,1,3.22,0v3.14a8.22,8.22,0,0,0,1.9-2.49c.95-1.94,1.07-2.59.83-2.87a20.82,20.82,0,0,0-3.09-1.57c-2.5-1-2.74-1.11-3.21-.74s0,1,1.3,1.76l1.67.65h-1.43a27.45,27.45,0,0,1-9.28-1.2c-7.37-2.48-13.45-6.81-17.26-12.29a11.78,11.78,0,0,1-.83-10.53c0-1.3,0-1.67-1.31-1.67S990,85.7,989.67,86.53Z" style="fill:#010101"/><ellipse cx="1031.92" cy="78.58" rx="72.12" ry="55.98" style="fill:none;stroke:#010101;stroke-miterlimit:10;stroke-width:0.25px"/></g><g id="anonimizados"><ellipse cx="1035.37" cy="197.48" rx="71.4" ry="57.28" style="fill:none;stroke:#010101;stroke-miterlimit:10;stroke-width:0.3499999940395355px"/><path d="M1035,202.47h0c-44.27,0-38.91,33.72-38.91,33.72h78.19S1079.29,202.28,1035,202.47Z" style="fill:#010101"/><path d="M1031.21,167.82h-11.9V155.63H1041l8.21,5.64v11.54l-9.4,6.84v5.08h-10.6v-7.39l8.57-6.47v-7.66h-7.14Zm-1.79,28.64v-8.31h11.9v7.94Z" style="fill:#010101"/></g><g id="prescriptivo"><ellipse id="Rodona-2" cx="725.95" cy="199.23" rx="71.4" ry="55.43" style="fill:none;stroke:#010101;stroke-miterlimit:10;stroke-width:0.3499999940395355px"/><g id="Document"><polygon points="741.54 229.9 682.15 229.9 682.15 176.23 690.25 169.3 699.41 161.36 741.54 161.36 741.54 229.9" style="fill:#fff;stroke:#010101;stroke-miterlimit:10;stroke-width:0.20000000298023224px"/><line x1="699.41" y1="161.36" x2="699.41" y2="176.42" style="fill:none;stroke:#010101;stroke-miterlimit:10;stroke-width:0.20000000298023224px"/><line x1="682.39" y1="176.23" x2="700.36" y2="176.23" style="fill:none;stroke:#010101;stroke-miterlimit:10;stroke-width:0.20000000298023224px"/><line x1="689.18" y1="220.94" x2="733.69" y2="220.94" style="fill:none;stroke:#010101;stroke-miterlimit:10;stroke-width:0.20000000298023224px"/><line x1="689.18" y1="212.17" x2="733.69" y2="212.17" style="fill:none;stroke:#010101;stroke-miterlimit:10;stroke-width:0.20000000298023224px"/><line x1="689.18" y1="203.48" x2="733.69" y2="203.48" style="fill:none;stroke:#010101;stroke-miterlimit:10;stroke-width:0.20000000298023224px"/><line x1="689.18" y1="194.71" x2="733.69" y2="194.71" style="fill:none;stroke:#010101;stroke-miterlimit:10;stroke-width:0.20000000298023224px"/><line x1="689.18" y1="185.93" x2="733.69" y2="185.93" style="fill:none;stroke:#010101;stroke-miterlimit:10;stroke-width:0.20000000298023224px"/></g><g id="Pastilaas"><path d="M761.65,210.5h0c3.68,0,6.67,2.32,6.67,5.18v15.61c0,2.86-3,5.17-6.67,5.17h0c-3.68,0-6.66-2.31-6.66-5.17h0V215.86c-.13-2.85,2.74-5.25,6.42-5.35Z" style="fill:#fff;stroke:#202020;stroke-miterlimit:10;stroke-width:0.20000000298023224px"/><path d="M768.32,222.61v8.68c-.07,2.84-3,5.12-6.67,5.17h0c-3.65-.05-6.6-2.33-6.66-5.17v-8.68" style="fill:#202020;stroke:#202020;stroke-miterlimit:10;stroke-width:0.20000000298023224px"/><polygon points="725.12 228.8 725.24 233.23 727.5 235.26 730.24 231.75 725.12 228.8" style="fill:#fff;stroke:#202020;stroke-miterlimit:10;stroke-width:0.20000000298023224px"/><path d="M725.24,233c1.19,3.61,7.73,5.45,14.75,4.07s11.07-4.25,10.36-8.13" style="fill:#fff;stroke:#202020;stroke-miterlimit:10;stroke-width:0.20000000298023224px"/><ellipse cx="737.81" cy="227.39" rx="12.85" ry="6.81" transform="translate(-25.24 109.8) rotate(-8.37)" style="fill:#fff;stroke:#202020;stroke-miterlimit:9.999999913889042;stroke-width:0.20000000125801304px"/><line x1="750.47" y1="225.56" x2="750.47" y2="229.53" style="fill:none;stroke:#202020;stroke-miterlimit:10;stroke-width:0.20000000298023224px"/><line x1="732.73" y1="221.68" x2="742.85" y2="233.23" style="fill:none;stroke:#202020;stroke-miterlimit:10;stroke-width:0.20000000298023224px"/></g></g><g id="predictivo"><ellipse id="Rodona-3" cx="1190.08" cy="198.31" rx="71.4" ry="56.44" style="fill:none;stroke:#010101;stroke-miterlimit:10;stroke-width:0.3499999940395355px"/><g id="Document-2"><polygon points="1205.67 229.44 1146.29 229.44 1146.29 174.84 1154.38 167.73 1163.66 159.69 1205.67 159.69 1205.67 229.44" style="fill:#fff;stroke:#010101;stroke-miterlimit:10;stroke-width:0.20000000298023224px"/><line x1="1163.54" y1="159.69" x2="1163.54" y2="175.03" style="fill:none;stroke:#010101;stroke-miterlimit:10;stroke-width:0.20000000298023224px"/><line x1="1146.53" y1="174.85" x2="1164.5" y2="174.85" style="fill:none;stroke:#010101;stroke-miterlimit:10;stroke-width:0.20000000298023224px"/><line x1="1153.31" y1="220.3" x2="1197.82" y2="220.3" style="fill:none;stroke:#010101;stroke-miterlimit:10;stroke-width:0.20000000298023224px"/><line x1="1153.31" y1="211.43" x2="1197.82" y2="211.43" style="fill:none;stroke:#010101;stroke-miterlimit:10;stroke-width:0.20000000298023224px"/><line x1="1153.31" y1="202.47" x2="1197.82" y2="202.47" style="fill:none;stroke:#010101;stroke-miterlimit:10;stroke-width:0.20000000298023224px"/><line x1="1153.31" y1="193.6" x2="1197.82" y2="193.6" style="fill:none;stroke:#010101;stroke-miterlimit:10;stroke-width:0.20000000298023224px"/><line x1="1153.31" y1="184.73" x2="1197.82" y2="184.73" style="fill:none;stroke:#010101;stroke-miterlimit:10;stroke-width:0.20000000298023224px"/></g><g id="Bola"><path d="M1212.93,210l-22,24.3a63.58,63.58,0,0,0,22,3.42" style="fill:#fff;stroke:#010101;stroke-miterlimit:10;stroke-width:0.20000000298023224px"/><path d="M1212.93,210l22.14,24.3a53.13,53.13,0,0,1-22.14,3.42" style="fill:#fff;stroke:#010101;stroke-miterlimit:10;stroke-width:0.20000000298023224px"/><ellipse cx="1212.93" cy="211.98" rx="22.02" ry="17.37" style="fill:#fff;stroke:#010101;stroke-miterlimit:10;stroke-width:0.20000000298023224px"/><path d="M1193.41,211.43c-.13-8.47,8.61-15.42,19.52-15.52h.12" style="fill:none;stroke:#010101;stroke-miterlimit:10;stroke-width:0.20000000298023224px"/><polygon points="1212.93 200.44 1216.26 208.38 1226.86 208.38 1218.29 213.37 1221.5 221.31 1212.93 216.32 1204.36 221.31 1207.7 213.37 1199.13 208.38 1209.72 208.38 1212.93 200.44" style="fill:none;stroke:#010101;stroke-miterlimit:10;stroke-width:0.20000000298023224px"/></g></g><g id="diagnostico"><ellipse id="Rodona-4" cx="1187.7" cy="79.14" rx="73.79" ry="55.43" style="fill:none;stroke:#010101;stroke-miterlimit:10;stroke-width:0.3499999940395355px"/><g id="Document-3"><polygon points="1203.89 109.81 1142.6 109.81 1142.6 56.14 1150.93 49.21 1160.45 41.26 1203.89 41.26 1203.89 109.81" style="fill:#fff;stroke:#010101;stroke-miterlimit:10;stroke-width:0.25px"/><line x1="1160.45" y1="41.26" x2="1160.45" y2="56.32" style="fill:none;stroke:#010101;stroke-miterlimit:10;stroke-width:0.25px"/><line x1="1142.72" y1="56.14" x2="1161.28" y2="56.14" style="fill:none;stroke:#010101;stroke-miterlimit:10;stroke-width:0.25px"/><line x1="1149.86" y1="100.85" x2="1195.68" y2="100.85" style="fill:none;stroke:#010101;stroke-miterlimit:10;stroke-width:0.25px"/><line x1="1149.86" y1="92.07" x2="1195.68" y2="92.07" style="fill:none;stroke:#010101;stroke-miterlimit:10;stroke-width:0.25px"/><line x1="1149.86" y1="83.39" x2="1195.68" y2="83.39" style="fill:none;stroke:#010101;stroke-miterlimit:10;stroke-width:0.25px"/><line x1="1149.86" y1="74.61" x2="1195.68" y2="74.61" style="fill:none;stroke:#010101;stroke-miterlimit:10;stroke-width:0.25px"/><line x1="1149.86" y1="65.84" x2="1195.68" y2="65.84" style="fill:none;stroke:#010101;stroke-miterlimit:10;stroke-width:0.25px"/></g><path d="M1199.37,79.32l-3.22-.74a1.36,1.36,0,0,1-1.57-.75.83.83,0,0,1,0-.54h0a1.19,1.19,0,0,1,1.31-1h0l3.22-1.11a1.26,1.26,0,0,1,1.42.92s0,.06,0,.09v2.5A1.36,1.36,0,0,1,1199.37,79.32Z" style="fill:#fff;stroke:#010101;stroke-miterlimit:10;stroke-width:0.25px"/><path d="M1209.12,79.32l3.22-.74a1.25,1.25,0,0,0,1.42-.91s0-.07,0-.1v-.28a1.2,1.2,0,0,0-1.31-1h-.12l-3.22-1.11a1.19,1.19,0,0,0-1.31,1h0v2.5a1.19,1.19,0,0,0,1.31,1h0Z" style="fill:#fff;stroke:#010101;stroke-miterlimit:10;stroke-width:0.25px"/><path d="M1194.6,77.29s-6.54,1.48-7.37,4.16c-1.79,5.54,15.35,17.27,15.35,17.27" style="fill:none;stroke:#010101;stroke-miterlimit:10;stroke-width:0.25px"/><path d="M1213.77,77.29s6.42,1.48,7.37,4.16c1.79,5.54-15.35,17.37-15.35,17.37" style="fill:none;stroke:#010101;stroke-miterlimit:10;stroke-width:0.25px"/><path d="M1201.63,96.78h4.64a.54.54,0,0,1,.59.47v3a.54.54,0,0,1-.59.47h-4.64a.55.55,0,0,1-.6-.47v-3A.55.55,0,0,1,1201.63,96.78Z" style="fill:#fff;stroke:#010101;stroke-miterlimit:10;stroke-width:0.25px"/><path d="M1204,100.66a49.49,49.49,0,0,0-4.41,12.2c0,9.24,2.26,12.84,7,13.67,5.66.58,11.23-1.44,14.29-5.17a17.6,17.6,0,0,0,2.38-8.13" style="fill:none;stroke:#010101;stroke-miterlimit:10;stroke-width:0.25px"/><ellipse cx="1223.17" cy="111.38" rx="2.5" ry="1.94" style="fill:#fff;stroke:#010101;stroke-miterlimit:10;stroke-width:0.15000000596046448px"/><ellipse cx="1223.17" cy="111.38" rx="0.6" ry="0.46" style="fill:#202020;stroke:#010101;stroke-miterlimit:10;stroke-width:0.15000000596046448px"/></g><g id="descriptivo"><ellipse id="Rodona-5" cx="261.82" cy="198.31" rx="71.4" ry="56.44" style="fill:none;stroke:#010101;stroke-miterlimit:10;stroke-width:0.3499999940395355px"/><g id="Document-4"><polygon points="277.41 229.44 218.02 229.44 218.02 174.84 226.12 167.73 235.4 159.69 277.41 159.69 277.41 229.44" style="fill:#fff;stroke:#010101;stroke-miterlimit:10;stroke-width:0.20000000298023224px"/><line x1="235.28" y1="159.69" x2="235.28" y2="175.03" style="fill:none;stroke:#010101;stroke-miterlimit:10;stroke-width:0.20000000298023224px"/><line x1="218.26" y1="174.85" x2="236.23" y2="174.85" style="fill:none;stroke:#010101;stroke-miterlimit:10;stroke-width:0.20000000298023224px"/><line x1="225.04" y1="220.3" x2="269.55" y2="220.3" style="fill:none;stroke:#010101;stroke-miterlimit:10;stroke-width:0.20000000298023224px"/><line x1="225.04" y1="211.43" x2="269.55" y2="211.43" style="fill:none;stroke:#010101;stroke-miterlimit:10;stroke-width:0.20000000298023224px"/><line x1="225.04" y1="202.47" x2="269.55" y2="202.47" style="fill:none;stroke:#010101;stroke-miterlimit:10;stroke-width:0.20000000298023224px"/><line x1="225.04" y1="193.6" x2="269.55" y2="193.6" style="fill:none;stroke:#010101;stroke-miterlimit:10;stroke-width:0.20000000298023224px"/><line x1="225.04" y1="184.73" x2="269.55" y2="184.73" style="fill:none;stroke:#010101;stroke-miterlimit:10;stroke-width:0.20000000298023224px"/></g><g id="Lupa"><path d="M283,219.19l22,14.32a.93.93,0,0,1,0,1.56h0l-1.19,1.11a1.74,1.74,0,0,1-2,0h0L279.43,222a.87.87,0,0,1-.05-1.44l.05,0,1.19-1.2c0-.51.47-.94,1.13-1a1.11,1.11,0,0,1,1.25.88Z" style="fill:#fff;stroke:#202020;stroke-miterlimit:10;stroke-width:0.20000000298023224px"/><ellipse cx="271.46" cy="214.38" rx="13.09" ry="10.35" style="fill:#fff;stroke:#202020;stroke-miterlimit:10;stroke-width:0.20000000298023224px"/><path d="M262.18,211.71s3.57-2.41,5-1.39,4.41,2.77,5.95,1.48,6.31,0,6.31,0" style="fill:none;stroke:#202020;stroke-miterlimit:10;stroke-width:0.20000000298023224px"/><path d="M262.18,220.3a5,5,0,0,1,5.71,0,5.46,5.46,0,0,0,5.23,0,9.72,9.72,0,0,1,4.53-.93c1.78,0,1.9.93,1.9.93" style="fill:none;stroke:#202020;stroke-miterlimit:10;stroke-width:0.20000000298023224px"/></g></g><g id="cookies"><g id="Capa_2-2" data-name="Capa 2-2"><g id="Capa_1-2-2" data-name="Capa 1-2-2"><ellipse cx="1332.89" cy="143.81" rx="71.4" ry="55.43" style="fill:none;stroke:#010101;stroke-miterlimit:10;stroke-width:0.25px"/><path d="M1367.52,140.66c-4.29,2.27-10.14,1.4-13-1.94a6.3,6.3,0,0,1-1.58-3.41c-23.81-2-11.9-18.48-11.9-18.48-2.7-1.92-3.64-4.91-2.39-7.57a54.38,54.38,0,0,0-5.71,0c-24.78,0-44.83,15.65-44.78,34.89s20.17,34.8,45,34.76c23.68,0,43.25-14.35,44.7-32.7C1373.06,146.55,1368.73,144.21,1367.52,140.66Z" style="fill:none;stroke:#010101;stroke-miterlimit:10;stroke-width:0.25px"/><path d="M1300.05,137.25a6.72,6.72,0,0,0,1.9,0,2.55,2.55,0,0,1,3.33,2.31s0,3.32-2,3.78a15.08,15.08,0,0,1-5.36,0s-1.9,0-1.42-3c0,0,0-2.68,1.31-3a2.85,2.85,0,0,1,1.42,0Z" style="fill:#010101;stroke:#010101;stroke-miterlimit:10;stroke-width:0.25px"/><path d="M1324.8,149.35s0-1.85-3-3.33h-2.26a13.72,13.72,0,0,1-3.33-.55,1.86,1.86,0,0,0-1.78,2.86s0,2.59,5.23,3.51c0,0,3.1.93,4,0Z" style="fill:#010101;stroke:#010101;stroke-miterlimit:10;stroke-width:0.25px"/><path d="M1313.26,163.85a5.59,5.59,0,0,0-1.79-6.28s-3.45-3-9.52.65c0,0-2.86,1.38.83,4.43l2.74.65c2.74.64,2.86,1,2.86,1S1310.28,166.62,1313.26,163.85Z" style="fill:#010101;stroke:#010101;stroke-miterlimit:10;stroke-width:0.25px"/><path d="M1340.75,167.82s-4.53,1-5.12-1.29c0,0,0-2.49-3.21-2.31,0,0-4.29,0-4.64,2.22,0,0-.84,4.89,3.21,4.06a11.19,11.19,0,0,1,7.85,1.2,4.74,4.74,0,0,0,5.53.43,3.29,3.29,0,0,0,.54-.43s1.67-2,0-3.23a4.62,4.62,0,0,0-2.62-.74Z" style="fill:#010101;stroke:#010101;stroke-miterlimit:10;stroke-width:0.25px"/><path d="M1347.17,156.46c-5-.65-5.71-1.66-5.71-1.66l.72-3.6c1.54-2.87,5.47-.84,5.47-.84,2.62,1.3,2.38,2.68,2.38,2.68v2.22S1350,156.92,1347.17,156.46Z" style="fill:#010101;stroke:#010101;stroke-miterlimit:10;stroke-width:0.25px"/><path d="M1369,159.6a14.85,14.85,0,0,0,0-2.31,4.67,4.67,0,0,0-2.26-3.6,5.45,5.45,0,0,0-3.21-.65,2.66,2.66,0,0,0-2.26,2.41c0,3.69,2.61,3.88,2.61,3.88,3.1,0,3.22.46,3.22.46S1368.48,160.43,1369,159.6Z" style="fill:#010101;stroke:#010101;stroke-miterlimit:10;stroke-width:0.25px"/><path d="M1326.7,131.52a5.92,5.92,0,0,0-2.5-1.2c-1,0-3,0-4.76,4.52,0,0-.71,1.58,2.38,1.11a6.52,6.52,0,0,1,3.34,0s1.43.83,2.5-2.49A2.56,2.56,0,0,0,1326.7,131.52Z" style="fill:#010101;stroke:#010101;stroke-miterlimit:10;stroke-width:0.25px"/><path d="M1345.63,143.9s-3.93,0-3.81-1.85c0,0,0-3,1.9-3s3.22,1.34,3.1,2.76v0S1346.94,144,1345.63,143.9Z" style="fill:#010101;stroke:#010101;stroke-miterlimit:10;stroke-width:0.25px"/><path d="M1317.18,119a4.16,4.16,0,0,0-4.87-.19,1.55,1.55,0,0,0-.24.19s-3.57,2.67-1.91,3.32a4.38,4.38,0,0,1,2.14,1.39s.6,1.11,3.69,0h1.67a.87.87,0,0,0,1,0l.06,0a4,4,0,0,0,0-3Z" style="fill:#010101;stroke:#010101;stroke-miterlimit:10;stroke-width:0.25px"/><path d="M1328,113.5s0,1.21-1.66,0a1.67,1.67,0,0,1-1-2s0-1,1.08,0,0-1,1.07-.64S1328.25,111.84,1328,113.5Z" style="fill:#010101;stroke:#010101;stroke-miterlimit:10;stroke-width:0.25px"/></g></g></g></svg>