<svg xmlns="http://www.w3.org/2000/svg" viewBox="0 0 121 29"><defs><style>.cls-1{fill:#59cbe8;}.cls-12,.cls-2,.cls-20,.cls-23,.cls-24,.cls-25,.cls-30,.cls-33,.cls-34,.cls-36,.cls-6{fill:#fff;}.cls-11,.cls-2,.cls-22,.cls-23,.cls-25,.cls-3,.cls-31,.cls-34,.cls-35,.cls-37{stroke:#000;}.cls-10,.cls-11,.cls-12,.cls-16,.cls-17,.cls-18,.cls-2,.cls-20,.cls-21,.cls-22,.cls-23,.cls-24,.cls-28,.cls-3,.cls-30,.cls-31,.cls-32,.cls-34,.cls-35,.cls-37,.cls-7,.cls-8,.cls-9{stroke-miterlimit:10;}.cls-16,.cls-2,.cls-22,.cls-37,.cls-8{stroke-width:0.25px;}.cls-10,.cls-11,.cls-16,.cls-17,.cls-18,.cls-21,.cls-22,.cls-28,.cls-3,.cls-31,.cls-5,.cls-8,.cls-9{fill:none;}.cls-10,.cls-3{stroke-width:0.35px;}.cls-26,.cls-4{fill:#1d1d1d;}.cls-15,.cls-7{fill:#010101;}.cls-10,.cls-18,.cls-7{stroke:#010101;}.cls-7{stroke-width:0.5px;}.cls-24,.cls-30,.cls-8,.cls-9{stroke:#1d1d1d;}.cls-17,.cls-18,.cls-20,.cls-21,.cls-23,.cls-25,.cls-30,.cls-31,.cls-32,.cls-33,.cls-36,.cls-9{stroke-width:0.2px;}.cls-11,.cls-18{stroke-linecap:round;}.cls-11{stroke-width:0.3px;}.cls-12,.cls-20,.cls-21,.cls-32,.cls-33,.cls-36{stroke:#202020;}.cls-12,.cls-34,.cls-35{stroke-width:0.15px;}.cls-13,.cls-14,.cls-19,.cls-32,.cls-35{fill:#202020;}.cls-14,.cls-19,.cls-26,.cls-27{isolation:isolate;}.cls-14{font-size:3.22px;}.cls-14,.cls-19{font-family:Calibri-Bold, Calibri;font-weight:700;}.cls-16,.cls-17{stroke:#1d1d1b;}.cls-19{font-size:4.17px;}.cls-24,.cls-28{stroke-width:0.1px;}.cls-25{stroke-miterlimit:9.96;}.cls-26{font-size:1.15px;font-family:ArialRoundedMTBold, Arial Rounded MT Bold;}.cls-27{font-size:1.26px;fill:#171717;font-family:ArialMT, Arial;letter-spacing:-0.02em;}.cls-28{stroke:#171717;}.cls-29{fill:#1e1e1e;}.cls-33{stroke-miterlimit:10;}.cls-36{stroke-miterlimit:10;}</style></defs><g id="fondo"><rect class="cls-1" x="0.22" y="0.2" width="121" height="29"/><rect class="cls-2" x="1.22" y="1.2" width="119" height="27" rx="3.64"/></g><g id="pseudoanonimizados"><g id="Capa_2"><g id="Capa_1-2"><circle class="cls-3" cx="8.93" cy="8.14" r="6.06"/><path d="M8.91,8.67h0a3.08,3.08,0,0,0-3.31,3.57h6.64A3.08,3.08,0,0,0,8.91,8.67Z"/><polygon points="8.44 5 8.85 5 8.85 4.51 9.44 4.51 9.44 5.32 8.81 5.91 9.16 6.75 9.61 6.75 9.61 6.23 10.39 5.51 10.39 4.32 9.7 3.74 7.93 3.74 8.44 5"/><polygon points="9.32 7.15 9.64 7.94 9.64 7.15 9.32 7.15"/><path class="cls-4" d="M7.76,3.79A2.23,2.23,0,0,0,9.42,7.91Z"/><line class="cls-5" x1="7.59" y1="3.13" x2="11.43" y2="12.62"/><circle class="cls-6" cx="7.62" cy="5.47" r="0.42"/></g></g></g><g id="datos_no_personales"><polygon class="cls-4" points="19.83 5.74 19.83 5.51 20.16 5.51 20.16 5.96 19.84 6.3 19.84 6.69 20.22 6.69 20.22 6.41 20.6 6.02 20.6 5.41 20.32 5.12 19.45 5.12 19.44 5.74 19.83 5.74"/><rect class="cls-4" x="19.83" y="6.81" width="0.39" height="0.3"/><path class="cls-7" d="M20,7.5h0a1.22,1.22,0,0,0-1.29,1.43h2.6A1.23,1.23,0,0,0,20,7.5"/><path class="cls-8" d="M18.47,4.79H25.7a.52.52,0,0,1,.52.52v4a.52.52,0,0,1-.52.52H18.47A.52.52,0,0,1,18,9.26V5.31A.52.52,0,0,1,18.47,4.79Z"/><line class="cls-9" x1="22.22" y1="6.07" x2="25.22" y2="6.07"/><line class="cls-9" x1="22.22" y1="7.48" x2="25.22" y2="7.48"/><line class="cls-9" x1="22.22" y1="8.2" x2="25.22" y2="8.2"/><line class="cls-9" x1="22.22" y1="8.85" x2="25.22" y2="8.85"/><line class="cls-9" x1="22.22" y1="6.81" x2="25.22" y2="6.81"/><polygon class="cls-4" points="22.29 9.82 21.73 9.82 21.73 12.21 20.42 12.21 21.94 13.68 23.45 12.22 22.29 12.22 22.29 9.82"/><ellipse class="cls-10" cx="22.09" cy="8.2" rx="5.88" ry="6"/></g><g id="transfer_externa"><g id="Capa_3"><circle class="cls-3" cx="61.22" cy="8.2" r="6"/></g><g id="Capa_4"><line class="cls-11" x1="57.11" y1="6.87" x2="64.9" y2="6.87"/><line class="cls-11" x1="57.11" y1="6.87" x2="58.12" y2="5.86"/><line class="cls-11" x1="58.12" y1="7.89" x2="57.11" y2="6.88"/><line class="cls-11" x1="64.9" y1="9.45" x2="57.11" y2="9.45"/><line class="cls-11" x1="64.9" y1="9.45" x2="63.89" y2="8.45"/><line class="cls-11" x1="63.89" y1="10.48" x2="64.9" y2="9.47"/></g></g><g id="tratamiento_datos"><circle class="cls-3" cx="48.22" cy="8.2" r="6"/><circle class="cls-12" cx="49.12" cy="4.91" r="1.29"/><rect class="cls-13" x="49.09" y="3.82" width="0.14" height="1.11" rx="0.06"/><rect class="cls-13" x="48.55" y="5.07" width="0.83" height="0.16" rx="0.07" transform="translate(17.05 42.64) rotate(-55.59)"/><circle class="cls-13" cx="49.17" cy="4.86" r="0.18"/><text class="cls-14" transform="translate(45.81 5.89)">d</text><path class="cls-13" d="M49.32,8.55a2,2,0,1,0,2.52,1.37h0A2,2,0,0,0,49.32,8.55Zm.84,2.85A1,1,0,0,1,49,10.76a.94.94,0,1,1,1.17.64Z"/><path class="cls-13" d="M49.91,9.05l-.85.25c-.05,0-.11,0-.12-.12l-.2-1c0-.06,0-.11,0-.12l.65-.2s.09,0,.11.08l.39,1C50,9,50,9,49.91,9.05Z"/><path class="cls-13" d="M49.86,12l.85-.25s.11,0,.12.11l.2,1c0,.06,0,.12-.05.13l-.65.19s-.09,0-.11-.08l-.39-1C49.8,12,49.81,12,49.86,12Z"/><path class="cls-13" d="M50.84,9.46l-.69-.56s0-.11,0-.16L50.9,8c.05,0,.1-.06.13,0l.54.43s0,.08,0,.13L51,9.39C51,9.46,50.88,9.49,50.84,9.46Z"/><path class="cls-13" d="M48.77,11.63l.79.4s0,.1,0,.17l-.56.88c0,.06-.08.08-.12.06l-.61-.3a.11.11,0,0,1,0-.14l.38-1C48.66,11.65,48.72,11.61,48.77,11.63Z"/><path class="cls-13" d="M51.44,10.84l-.46.75s0,.11.08.15l.94.46a.1.1,0,0,0,.13,0l.36-.58s0-.09-.05-.13l-.83-.63A.12.12,0,0,0,51.44,10.84Z"/><path class="cls-13" d="M48.41,10.23l.4-.79s0-.11-.1-.14l-1-.37c-.06,0-.11,0-.13,0l-.31.61s0,.08.06.12l.89.55C48.31,10.28,48.39,10.28,48.41,10.23Z"/><path class="cls-13" d="M48.72,11.34l-.29-.83s-.1-.06-.17,0l-.94.45c-.06,0-.09.07-.08.11l.23.65s.07.05.13,0l1-.26C48.69,11.45,48.74,11.39,48.72,11.34Z"/><path class="cls-13" d="M51.33,10.57l-.2-.86c0-.05,0-.1.12-.11l1-.14c.06,0,.12,0,.12.06l.16.66s0,.08-.08.1l-1,.34A.13.13,0,0,1,51.33,10.57Z"/><path class="cls-13" d="M46.51,7.13a1.46,1.46,0,1,0-1.37,2.58,1.46,1.46,0,0,0,1.37-2.58ZM45.51,9a.67.67,0,1,1,.91-.28.67.67,0,0,1-.91.28Z"/><path class="cls-13" d="M46.7,7.76l-.87-.45a.1.1,0,0,1,0-.13h0l.45-.61a.11.11,0,0,1,.12,0l.67.35a.08.08,0,0,1,0,.11l-.25.71a.09.09,0,0,1-.12.06Z"/><path class="cls-13" d="M44.92,9.08l.87.45a.11.11,0,0,1,0,.13h0l-.45.61a.09.09,0,0,1-.12,0L44.59,10a.1.1,0,0,1-.05-.11l.25-.71a.09.09,0,0,1,.12-.06Z"/><path class="cls-13" d="M46.8,8.89l0-1a.09.09,0,0,1,.09-.09h0l.75.09a.09.09,0,0,1,.08.09l0,.76a.09.09,0,0,1-.08.09L46.91,9a.11.11,0,0,1-.11-.08Z"/><path class="cls-13" d="M44.82,8l0,1a.09.09,0,0,1-.09.09h0L44,9a.11.11,0,0,1-.08-.09V8.12A.1.1,0,0,1,44,8l.75-.13a.09.09,0,0,1,.1.08Z"/><path class="cls-13" d="M46.76,9l-.82.53a.09.09,0,0,0,0,.13h0l.5.57a.09.09,0,0,0,.12,0l.63-.41a.08.08,0,0,0,0-.11l-.31-.69A.09.09,0,0,0,46.77,9Z"/><path class="cls-13" d="M44.88,7.84l.82-.53a.11.11,0,0,0,0-.13h0l-.5-.57a.09.09,0,0,0-.12,0L44.46,7a.09.09,0,0,0,0,.11l.32.69a.09.09,0,0,0,.12,0Z"/></g><g id="datos_personales"><path class="cls-15" d="M33.11,7.5h0a1.23,1.23,0,0,0-1.32,1.43h2.65A1.23,1.23,0,0,0,33.11,7.5"/><rect class="cls-8" x="30.99" y="4.79" width="8.43" height="4.99" rx="0.52"/><line class="cls-9" x1="35.34" y1="6.07" x2="38.4" y2="6.07"/><line class="cls-9" x1="35.34" y1="7.48" x2="38.4" y2="7.48"/><line class="cls-9" x1="35.34" y1="8.2" x2="38.4" y2="8.2"/><line class="cls-9" x1="35.34" y1="8.85" x2="38.4" y2="8.85"/><line class="cls-9" x1="35.34" y1="6.81" x2="38.4" y2="6.81"/><polygon class="cls-4" points="35.41 9.82 34.84 9.82 34.84 12.21 33.5 12.21 35.06 13.68 36.6 12.22 35.41 12.22 35.41 9.82"/><circle class="cls-10" cx="35.22" cy="8.2" r="6"/><ellipse class="cls-4" cx="33.12" cy="6.53" rx="0.69" ry="0.67"/></g><g id="transfer_interna"><ellipse class="cls-10" cx="74.22" cy="8.19" rx="6" ry="6.01"/><ellipse class="cls-9" cx="71.92" cy="8.62" rx="0.63" ry="0.19"/><polyline class="cls-9" points="71.28 8.62 71.28 9.56 71.28 9.62"/><path class="cls-9" d="M71.29,8.94s-.06.13.48.17a1.77,1.77,0,0,0,.4,0c.16,0,.35-.06.38-.16"/><path class="cls-9" d="M71.29,9.6s-.06.13.48.17a1.79,1.79,0,0,0,.4,0c.16,0,.34-.06.38-.15v0h0v-1"/><path class="cls-9" d="M71.28,9.26s0,.13.49.17a1.79,1.79,0,0,0,.4,0c.16,0,.35-.06.38-.16"/><ellipse class="cls-16" cx="74.23" cy="5.88" rx="0.53" ry="0.47"/><line class="cls-9" x1="70.49" y1="10.93" x2="70.49" y2="7.08"/><polyline class="cls-17" points="69.46 8.02 74.23 3.74 78.99 8.02"/><line class="cls-9" x1="77.96" y1="10.93" x2="77.96" y2="7.08"/><ellipse class="cls-9" cx="76.54" cy="8.63" rx="0.63" ry="0.19"/><polyline class="cls-9" points="75.9 8.63 75.9 9.58 75.9 9.63"/><path class="cls-9" d="M75.9,9s-.05.13.49.17a1.79,1.79,0,0,0,.4,0c.16,0,.35-.06.38-.16"/><path class="cls-9" d="M75.9,9.61s-.05.14.49.17h.39c.16,0,.35-.06.39-.16v0h0v-1"/><path class="cls-9" d="M75.9,9.27s-.05.14.49.17h.39c.17,0,.36-.07.39-.17"/><g id="Capa_4-2"><line class="cls-18" x1="73.08" y1="8.76" x2="75.35" y2="8.76"/><line class="cls-18" x1="73.08" y1="8.76" x2="73.37" y2="8.46"/><line class="cls-18" x1="73.37" y1="9.06" x2="73.08" y2="8.76"/><line class="cls-18" x1="75.35" y1="9.52" x2="73.08" y2="9.52"/><line class="cls-18" x1="75.35" y1="9.52" x2="75.06" y2="9.22"/><line class="cls-18" x1="75.06" y1="9.81" x2="75.35" y2="9.52"/></g></g><g id="encriptados"><circle id="Rodona" class="cls-3" cx="9.1" cy="21.08" r="6.12"/><text class="cls-19" transform="translate(4.95 20.14)">****</text><g id="Candau"><path class="cls-20" d="M10.9,25.79H7.3a.23.23,0,0,1-.21-.24v-3a.23.23,0,0,1,.21-.24h3.6a.23.23,0,0,1,.21.24v3A.23.23,0,0,1,10.9,25.79Z"/><path class="cls-21" d="M7.09,21.54a2,2,0,0,1,4,0"/><line class="cls-21" x1="7.09" y1="21.54" x2="7.09" y2="22.63"/><line class="cls-21" x1="11.11" y1="21.54" x2="11.11" y2="22.63"/><path class="cls-13" d="M9.54,25l-.28-1.08a.45.45,0,0,0,.19-.61.45.45,0,0,0-.79.42.5.5,0,0,0,.19.19L8.57,25Z"/></g></g><g id="no_anonimizados"><ellipse class="cls-22" cx="74.22" cy="21.07" rx="6" ry="6.13"/><ellipse class="cls-15" cx="74.2" cy="18.9" rx="1.94" ry="1.98"/><path class="cls-15" d="M74.22,21.61h0c-3.72,0-3.27,3.61-3.27,3.61h6.57S77.94,21.59,74.22,21.61Z"/><ellipse class="cls-6" cx="73.26" cy="18.44" rx="0.42" ry="0.43"/><ellipse class="cls-6" cx="75.17" cy="18.44" rx="0.42" ry="0.43"/></g><g id="metadata"><path class="cls-4" d="M48.68,24.3V21.17a0,0,0,0,0,0-.05h-.71a0,0,0,0,0,0,.05h0V24.3a0,0,0,0,1,0,0h-1.1a0,0,0,0,0,0,.05l0,0,1.53,1.49a0,0,0,0,0,.06,0l1.53-1.49a0,0,0,0,0,0-.07H48.72a0,0,0,0,1,0,0Z"/><path class="cls-23" d="M51.72,18.77l-1.41-.89a.47.47,0,0,0-.4-.06L45,19.42a.57.57,0,0,0-.31.73l.75,2.46a.56.56,0,0,0,.66.41L51,21.41a.45.45,0,0,0,.29-.28L52,19.56A.64.64,0,0,0,51.72,18.77Z"/><ellipse class="cls-24" cx="50.77" cy="19.52" rx="0.33" ry="0.34"/><path class="cls-25" d="M49.62,18.53,50.36,21a.24.24,0,0,1-.15.3l-3.93,1.29a.23.23,0,0,1-.29-.16L45.24,20a.25.25,0,0,1,.15-.3l3.94-1.28A.23.23,0,0,1,49.62,18.53Z"/><text class="cls-26" transform="matrix(0.93, -0.3, 0.29, 0.96, 45.99, 21.44)">&lt;meta&gt;</text><ellipse class="cls-10" cx="48.22" cy="21.01" rx="6" ry="6.2"/></g><g id="almacenamiento"><ellipse class="cls-9" cx="35.21" cy="17.65" rx="2.95" ry="0.92"/><polyline class="cls-9" points="32.26 17.65 32.26 22.12 32.26 22.39"/><polyline class="cls-9" points="38.15 17.65 38.15 22.86 38.15 23.17"/><path class="cls-9" d="M32.26,19.15s-.25.64,2.28.81a10.17,10.17,0,0,0,1.83,0c.77-.09,1.65-.3,1.8-.78"/><ellipse class="cls-10" cx="35.22" cy="21.1" rx="6" ry="6.11"/><path class="cls-9" d="M32.26,22.29s-.25.64,2.28.81a10.18,10.18,0,0,0,1.83,0c.76-.08,1.64-.29,1.79-.77"/><text id="Y" class="cls-27" transform="translate(36.53 26.08) scale(0.98 1)">Y</text><path class="cls-28" d="M38.61,24.59c.06-1.46-.13-2.83-1.67-2.92"/><polygon class="cls-29" points="38.41 24.4 38.82 24.4 38.62 24.77 38.41 24.4"/><ellipse class="cls-30" cx="36.92" cy="23.26" rx="1.51" ry="1.54"/><rect class="cls-4" x="36.89" y="21.97" width="0.17" height="1.32" rx="0.07"/><path class="cls-4" d="M37,23.13l0,0a.09.09,0,0,1,0,.11l-.46.68a.08.08,0,0,1-.11,0l0,0s0-.07,0-.11l.46-.68A.07.07,0,0,1,37,23.13Z"/><circle class="cls-4" cx="36.98" cy="23.2" r="0.2"/><path class="cls-9" d="M32.26,20.68s-.26.64,2.27.81a10.16,10.16,0,0,0,1.83,0c.77-.08,1.65-.29,1.8-.77"/></g><g id="cache"><path d="M88.18,4a1.18,1.18,0,0,0-.17.52,1.14,1.14,0,0,0,.25.18c.17.1.23.12.27.1a.1.1,0,0,0,0-.07s0-.07-.23-.19,0,0,.18,0a2.15,2.15,0,0,1,1.52.68,2,2,0,0,1,.72,1.18,1.12,1.12,0,0,1,0,.48,3,3,0,0,1-.06.33s0,.07.07.09.09,0,.1,0A2.59,2.59,0,0,0,91,6.59a1.74,1.74,0,0,0-.4-1.13,2.7,2.7,0,0,0-2.1-1.16h-.25l.06-.16c0-.15,0-.17,0-.19S88.23,3.92,88.18,4Z"/><path d="M82.87,6.52V8.2h4l.29-.07.3-.08V7.62c0-.5,0-.46-.26-.53l-.12,0,.18,0,.18,0v-.9L87.23,6c-.19,0-.2-.07,0-.1s.21,0,.21-.51V5l-.11,0a7.73,7.73,0,0,0-2.46-.12h-2Zm3.91-1.11v.5H83v-1h3.83ZM87.1,5l.2,0v.74l-.12,0L87,5.88h-.1a5.9,5.9,0,0,1,0-.94Zm-.32,1.52V7H83V6h3.83Zm.33-.42.21.05v.74l-.19.05c-.29.07-.27.11-.27-.42a2.91,2.91,0,0,1,0-.47Zm-.33,1.52v.49H83v-1h3.83Zm.31-.44.21.05V8L87.1,8l-.22.05a3.1,3.1,0,0,1,0-.48,4.29,4.29,0,0,1,0-.49Z"/><path d="M83.32,5.46v.31h1.93V5.14H83.32Zm1.84,0v.21H83.41V5.23h1.75Z"/><path d="M86,5.22a.27.27,0,1,0,.39.35A.27.27,0,0,0,86,5.22Zm.28.11a.19.19,0,0,1-.13.3.17.17,0,0,1-.17-.19A.17.17,0,0,1,86.23,5.33Z"/><path d="M83.32,6.56v.31h1.93V6.25H83.32Zm1.84,0v.22H83.41V6.33h1.75Z"/><path d="M85.91,6.34c-.07.06-.08.09-.08.2s0,.15.08.21a.28.28,0,0,0,.44-.1A.28.28,0,0,0,85.91,6.34Zm.29.07a.18.18,0,0,1,0,.29.12.12,0,0,1-.16,0,.17.17,0,0,1,0-.29.18.18,0,0,1,.11,0A.19.19,0,0,1,86.2,6.41Z"/><path d="M83.32,7.63v.31h1.93V7.32H83.32Zm1.83,0v.22H83.42V7.66a1.22,1.22,0,0,1,0-.22s.16,0,.87,0h.86Z"/><path d="M85.91,7.45a.23.23,0,0,0,0,.36.19.19,0,0,0,.19.09.26.26,0,0,0,.18-.47A.23.23,0,0,0,85.91,7.45Zm.31.06a.17.17,0,0,1-.13.29.15.15,0,0,1-.16-.17.21.21,0,0,1,0-.12.19.19,0,0,1,.13,0A.17.17,0,0,1,86.22,7.51Z"/><path d="M88.28,8a3.24,3.24,0,0,1-.36.39l-.35.37V9.1h-.08a.33.33,0,0,0-.27.13s0,.61,0,1.29v1.25l.07.06.07.08h2c2,0,2,0,2-.06l.06-.06V10.51c0-1.46,0-1.37-.24-1.4h-.13V8h-1.4C88.91,8,88.28,8,88.28,8ZM91,8.58V9.1h-.41a1.92,1.92,0,0,0-.48,0,.22.22,0,0,0-.11.12l0,.1H88.64l0-.09c-.08-.14-.16-.17-.55-.17h-.36V8.82h.71V8.06H91Zm-2.73.12a1,1,0,0,1-.26,0h-.26L88,8.43l.25-.26v.26A1.06,1.06,0,0,1,88.27,8.7Zm.12.51a.19.19,0,0,1,.1.1c.08.14.18.16.74.16l.65,0c.13,0,.15,0,.19-.12s.13-.15.75-.13a1.6,1.6,0,0,1,.5,0s.05.16.05,1.27,0,1.23-.05,1.27a10.57,10.57,0,0,1-2,0,15.29,15.29,0,0,1-2,0s0-.13,0-1.29V9.23h.07A5.46,5.46,0,0,1,88.39,9.21Z"/><path d="M83.38,9a2.87,2.87,0,0,0,0,.92,2.38,2.38,0,0,0,.73,1.14,2.68,2.68,0,0,0,.81.56,1.8,1.8,0,0,0,.88.2,1,1,0,0,1,.27,0s0,.07,0,.14,0,.22,0,.2.08-.06.16-.27.09-.28.07-.31a1.61,1.61,0,0,0-.26-.17c-.21-.11-.23-.12-.27-.08s0,.11.11.19l.14.07-.12,0a1.82,1.82,0,0,1-.78-.13,3,3,0,0,1-1.45-1.33,1.6,1.6,0,0,1-.07-1.14c0-.14,0-.18-.11-.18S83.41,8.91,83.38,9Z"/><circle class="cls-22" cx="86.93" cy="8.14" r="6.06"/></g><g id="anonimizados"><ellipse class="cls-3" cx="87.22" cy="21.01" rx="6" ry="6.2"/><path d="M87.19,21.55h0c-3.72,0-3.27,3.65-3.27,3.65h6.57S90.91,21.53,87.19,21.55Z"/><path d="M86.87,17.8h-1V16.48h1.82l.69.61v1.25l-.79.74v.55h-.89v-.8l.72-.7V17.3h-.6Zm-.15,3.1V20h1v.86Z"/></g><g id="prescriptivo"><circle id="Rodona-2" class="cls-3" cx="61.22" cy="21.2" r="6"/><g id="Document"><polygon class="cls-23" points="62.53 24.52 57.54 24.52 57.54 18.71 58.22 17.96 58.99 17.1 62.53 17.1 62.53 24.52"/><line class="cls-31" x1="58.99" y1="17.1" x2="58.99" y2="18.73"/><line class="cls-31" x1="57.56" y1="18.71" x2="59.07" y2="18.71"/><line class="cls-31" x1="58.13" y1="23.55" x2="61.87" y2="23.55"/><line class="cls-31" x1="58.13" y1="22.6" x2="61.87" y2="22.6"/><line class="cls-31" x1="58.13" y1="21.66" x2="61.87" y2="21.66"/><line class="cls-31" x1="58.13" y1="20.71" x2="61.87" y2="20.71"/><line class="cls-31" x1="58.13" y1="19.76" x2="61.87" y2="19.76"/></g><g id="Pastilaas"><path class="cls-20" d="M64.22,22.42h0a.56.56,0,0,1,.56.56v1.69a.56.56,0,0,1-.56.56h0a.56.56,0,0,1-.56-.56V23A.56.56,0,0,1,64.22,22.42Z"/><path class="cls-32" d="M64.78,23.73v.94a.57.57,0,0,1-.56.56h0a.57.57,0,0,1-.56-.56v-.94"/><polygon class="cls-20" points="61.15 24.4 61.16 24.88 61.35 25.1 61.58 24.72 61.15 24.4"/><path class="cls-20" d="M61.16,24.85c.1.39.65.59,1.24.44s.93-.46.87-.88"/><ellipse class="cls-33" cx="62.22" cy="24.25" rx="1.09" ry="0.73" transform="translate(-4.05 15.99) rotate(-14.19)"/><line class="cls-21" x1="63.28" y1="24.05" x2="63.28" y2="24.48"/><line class="cls-21" x1="61.79" y1="23.63" x2="62.64" y2="24.88"/></g></g><g id="predictivo"><ellipse id="Rodona-3" class="cls-3" cx="100.22" cy="21.1" rx="6" ry="6.11"/><g id="Document-2"><polygon class="cls-23" points="101.53 24.47 96.54 24.47 96.54 18.56 97.22 17.79 98 16.92 101.53 16.92 101.53 24.47"/><line class="cls-31" x1="97.99" y1="16.92" x2="97.99" y2="18.58"/><line class="cls-31" x1="96.56" y1="18.56" x2="98.07" y2="18.56"/><line class="cls-31" x1="97.13" y1="23.48" x2="100.87" y2="23.48"/><line class="cls-31" x1="97.13" y1="22.52" x2="100.87" y2="22.52"/><line class="cls-31" x1="97.13" y1="21.55" x2="100.87" y2="21.55"/><line class="cls-31" x1="97.13" y1="20.59" x2="100.87" y2="20.59"/><line class="cls-31" x1="97.13" y1="19.63" x2="100.87" y2="19.63"/></g><g id="Bola"><path class="cls-23" d="M102.14,22.37,100.29,25a4.27,4.27,0,0,0,1.85.37"/><path class="cls-23" d="M102.14,22.37,104,25a3.56,3.56,0,0,1-1.86.37"/><ellipse class="cls-23" cx="102.14" cy="22.58" rx="1.85" ry="1.88"/><path class="cls-31" d="M100.5,22.52a1.66,1.66,0,0,1,1.65-1.68h0"/><polygon class="cls-31" points="102.14 21.33 102.42 22.19 103.31 22.19 102.59 22.73 102.86 23.59 102.14 23.05 101.42 23.59 101.7 22.73 100.98 22.19 101.87 22.19 102.14 21.33"/></g></g><g id="diagnostico"><ellipse id="Rodona-4" class="cls-3" cx="100.02" cy="8.2" rx="6.2" ry="6"/><g id="Document-3"><polygon class="cls-2" points="101.38 11.52 96.23 11.52 96.23 5.71 96.93 4.96 97.73 4.1 101.38 4.1 101.38 11.52"/><line class="cls-22" x1="97.73" y1="4.1" x2="97.73" y2="5.73"/><line class="cls-22" x1="96.24" y1="5.71" x2="97.8" y2="5.71"/><line class="cls-22" x1="96.84" y1="10.55" x2="100.69" y2="10.55"/><line class="cls-22" x1="96.84" y1="9.6" x2="100.69" y2="9.6"/><line class="cls-22" x1="96.84" y1="8.66" x2="100.69" y2="8.66"/><line class="cls-22" x1="96.84" y1="7.71" x2="100.69" y2="7.71"/><line class="cls-22" x1="96.84" y1="6.76" x2="100.69" y2="6.76"/></g><path class="cls-2" d="M101,8.22l-.27-.08A.11.11,0,0,1,100.6,8V8a.11.11,0,0,1,.11-.11l.27-.12a.11.11,0,0,1,.12.11v.27A.11.11,0,0,1,101,8.22Z"/><path class="cls-2" d="M101.82,8.22l.27-.08a.11.11,0,0,0,.12-.11V8a.11.11,0,0,0-.12-.11l-.27-.12a.11.11,0,0,0-.11.11h0v.27a.11.11,0,0,0,.11.11Z"/><path class="cls-22" d="M100.6,8s-.55.16-.62.45c-.15.6,1.29,1.87,1.29,1.87"/><path class="cls-22" d="M102.21,8s.54.16.62.45c.15.6-1.29,1.88-1.29,1.88"/><rect class="cls-2" x="101.14" y="10.11" width="0.49" height="0.43" rx="0.05"/><path class="cls-22" d="M101.39,10.53a6.42,6.42,0,0,0-.37,1.32c0,1,.19,1.39.59,1.48a1.23,1.23,0,0,0,1.2-.56,2.31,2.31,0,0,0,.2-.88"/><ellipse class="cls-34" cx="103" cy="11.69" rx="0.21" ry="0.21"/><circle class="cls-35" cx="103" cy="11.69" r="0.05"/></g><g id="descriptivo"><ellipse id="Rodona-5" class="cls-3" cx="22.22" cy="21.1" rx="6" ry="6.11"/><g id="Document-4"><polygon class="cls-23" points="23.53 24.47 18.54 24.47 18.54 18.56 19.22 17.79 20 16.92 23.53 16.92 23.53 24.47"/><line class="cls-31" x1="19.99" y1="16.92" x2="19.99" y2="18.58"/><line class="cls-31" x1="18.56" y1="18.56" x2="20.07" y2="18.56"/><line class="cls-31" x1="19.13" y1="23.48" x2="22.87" y2="23.48"/><line class="cls-31" x1="19.13" y1="22.52" x2="22.87" y2="22.52"/><line class="cls-31" x1="19.13" y1="21.55" x2="22.87" y2="21.55"/><line class="cls-31" x1="19.13" y1="20.59" x2="22.87" y2="20.59"/><line class="cls-31" x1="19.13" y1="19.63" x2="22.87" y2="19.63"/></g><g id="Lupa"><path class="cls-36" d="M24,23.36l1.85,1.55a.12.12,0,0,1,0,.17l-.1.12a.12.12,0,0,1-.17,0L23.7,23.66a.11.11,0,0,1,0-.16l.1-.13A.1.1,0,0,1,24,23.36Z"/><ellipse class="cls-20" cx="23.03" cy="22.84" rx="1.1" ry="1.12"/><path class="cls-21" d="M22.25,22.55s.3-.26.42-.15.37.3.5.16.53,0,.53,0"/><path class="cls-21" d="M22.25,23.48a.35.35,0,0,1,.48,0,.37.37,0,0,0,.44,0,.67.67,0,0,1,.38-.1c.15,0,.16.1.16.1"/></g></g><g id="cookies"><g id="Capa_2-2"><g id="Capa_1-2-2"><circle class="cls-22" cx="112.22" cy="15.2" r="6"/><path class="cls-22" d="M115.13,14.86a.79.79,0,0,1-1.23-.58c-2-.22-1-2-1-2a.76.76,0,0,1-.2-.82,3.87,3.87,0,0,0-.48,0,3.77,3.77,0,1,0,3.77,4A.81.81,0,0,1,115.13,14.86Z"/><path class="cls-37" d="M109.46,14.49a.42.42,0,0,0,.16,0s.24-.09.28.25c0,0,0,.36-.17.41a1,1,0,0,1-.45,0s-.16,0-.12-.32c0,0,0-.29.11-.32a.19.19,0,0,1,.12,0Z"/><path class="cls-37" d="M111.54,15.8s0-.2-.25-.36c0,0,0,0-.19,0a.93.93,0,0,1-.28-.06s-.25,0-.15.31c0,0,0,.28.44.38,0,0,.26.1.34,0Z"/><path class="cls-37" d="M110.57,17.37a.72.72,0,0,0-.15-.68s-.29-.33-.8.07c0,0-.24.15.07.48,0,0,0,0,.23.07s.24.11.24.11S110.32,17.67,110.57,17.37Z"/><path class="cls-37" d="M112.88,17.8s-.38.11-.43-.14c0,0,0-.27-.27-.25,0,0-.36,0-.39.24,0,0-.07.53.27.44a.76.76,0,0,1,.66.13.33.33,0,0,0,.51,0s.14-.22,0-.35a.33.33,0,0,0-.22-.08Z"/><path class="cls-37" d="M113.42,16.57c-.42-.07-.48-.18-.48-.18S113,16,113,16c.13-.31.46-.09.46-.09.22.14.2.29.2.29v.24S113.66,16.62,113.42,16.57Z"/><path class="cls-37" d="M115.25,16.91a2,2,0,0,0,0-.25.54.54,0,0,0-.19-.39.37.37,0,0,0-.27-.07.27.27,0,0,0-.19.26c0,.4.22.42.22.42.26,0,.27.05.27.05S115.21,17,115.25,16.91Z"/><path class="cls-37" d="M111.7,13.87s-.13-.13-.21-.13-.25,0-.4.49c0,0-.06.17.2.12a.43.43,0,0,1,.28,0s.12.09.21-.27A.31.31,0,0,0,111.7,13.87Z"/><path class="cls-37" d="M113.29,15.21s-.33,0-.32-.2c0,0,0-.32.16-.32a.28.28,0,0,1,.26.3S113.4,15.22,113.29,15.21Z"/><path class="cls-37" d="M110.9,12.51a.29.29,0,0,0-.43,0s-.3.29-.16.36a.38.38,0,0,1,.18.15s.05.12.31,0c0,0,.1,0,.14,0a.06.06,0,0,0,.09,0,.55.55,0,0,0,0-.33Z"/><path class="cls-37" d="M111.81,11.92s0,.13-.14,0a.2.2,0,0,1-.08-.22s0-.11.09,0,0-.11.09-.07S111.83,11.74,111.81,11.92Z"/></g></g></g></svg>