<svg xmlns="http://www.w3.org/2000/svg" viewBox="0 0 274.54 53.84"><defs><style>.cls-1{fill:#010101;}</style></defs><g id="Capa_2"><g id="Capa_1-2"><path class="cls-1" d="M59,26.92c0,17.74.1,26.92.32,26.92s.33-9.18.33-26.92S59.52,0,59.29,0,59,9.18,59,26.92Z"/><path class="cls-1" d="M14.21,8.6a18.38,18.38,0,0,0-8,5.18,17,17,0,0,0-4,5.45A21.4,21.4,0,0,0,2.89,39.5a26.5,26.5,0,0,0,3.54,4.32,20.9,20.9,0,0,0,24.29,3.86,16.9,16.9,0,0,0,5.54-4.15c4.25-4.28,6.17-8.73,6.17-14.24V26.6H40.32c-1.88,0-2.21-.1-3.28-1a8.23,8.23,0,0,1-1.78-2.47c-.49-1.13-.75-1.39-1.2-1.2a11.61,11.61,0,0,1-5.38.17,6.44,6.44,0,0,1-4.42-6.49c0-1.3-.13-2-.39-2.08s-1-.29-1.78-.48a5.21,5.21,0,0,1-3.7-3.73c-.32-1.3-.48-1.5-1.23-1.46A12.92,12.92,0,0,0,14.21,8.6Zm3.08,1.49c.32,1.46,2.69,3.69,4.25,4.05l1.26.33.2,1.91a6.68,6.68,0,0,0,2.5,5.09,7.78,7.78,0,0,0,6.42,2.11c1.78-.13,2.14-.07,2.3.39a6.62,6.62,0,0,0,5.84,3.92h1.36l-.19,1.85a20,20,0,0,1-5.74,12.91,19.47,19.47,0,0,1-14.27,6A20,20,0,0,1,1.75,24.23,24.83,24.83,0,0,1,6,15.6a26,26,0,0,1,6-4.73,29.61,29.61,0,0,1,4.93-1.76C17,9.08,17.19,9.54,17.29,10.09Z"/><path class="cls-1" d="M8.4,18.94a3.19,3.19,0,0,0-1.16,4.41c1.52,2.95,6,1.72,6-1.62A3.2,3.2,0,0,0,8.4,18.94Z"/><path class="cls-1" d="M19.92,23.35a4.9,4.9,0,0,0-3.34,5.06,4.4,4.4,0,0,0,3,3.86,4.26,4.26,0,0,0,5.09-1.13,3,3,0,0,0,1.24-2.89,7.16,7.16,0,0,0-.49-2.63A4.89,4.89,0,0,0,19.92,23.35Z"/><path class="cls-1" d="M9,32.27c-2,1.1-2.37,4.28-.65,6,2.53,2.53,6.52.75,6.52-2.95a2.85,2.85,0,0,0-1.1-2.46,2.82,2.82,0,0,0-2.5-1.1A6.13,6.13,0,0,0,9,32.27Z"/><path class="cls-1" d="M30.39,33.37c-2.62,2.63.56,6.82,3.9,5.1a3.23,3.23,0,0,0-1.59-6A2.72,2.72,0,0,0,30.39,33.37Z"/><path class="cls-1" d="M21,38.11a2.61,2.61,0,0,0-.78,3.57,2.44,2.44,0,0,0,3.24,1,2.4,2.4,0,0,0,1.33-3.34C24,37.66,22.61,37.23,21,38.11Z"/><path class="cls-1" d="M80.31,13c-.55.29-.58,1.13-.58,10.5,0,8.83.06,10.25.52,10.68.61.64,1.1.64,2,0,.71-.49.71-.52.71-10.48,0-9.28,0-10-.58-10.51A1.51,1.51,0,0,0,80.31,13Z"/><path class="cls-1" d="M153.42,13.69a2.44,2.44,0,0,0-.1,2.46c.16.29.78.39,1.69.33,1.39-.1,1.42-.13,1.52-1.37.07-.77-.06-1.36-.32-1.52A3.1,3.1,0,0,0,153.42,13.69Z"/><path class="cls-1" d="M205.05,13.75a4.33,4.33,0,0,0-.06,1.56c.09,1,.19,1.07,1.33,1.17,1.42.13,2.17-.36,2.17-1.4,0-1.49-.32-1.78-1.82-1.78C205.73,13.3,205.15,13.46,205.05,13.75Z"/><path class="cls-1" d="M90.49,19.33c-2.85,1.43-4.24,3.86-4.28,7.49,0,3.34,1.33,5.74,4,7.07,3,1.46,7.62.94,9.44-1.1a1.08,1.08,0,0,0,.26-1.49c-.45-1-1.62-1.07-2.89-.26a4.86,4.86,0,0,1-2.69.58,3.94,3.94,0,0,1-3-.87,4.6,4.6,0,0,1-1.49-1.88l-.36-1h5.29c4.7,0,5.35-.06,5.8-.58,1.2-1.3.36-4.15-1.88-6.45C96.24,18.33,93.51,17.81,90.49,19.33Zm5.13,2.89a4.59,4.59,0,0,1,1.95,2.59,24.1,24.1,0,0,1-4,.16H89.49l.36-1C90.53,22,93.48,21.11,95.62,22.22Z"/><path class="cls-1" d="M107.78,19.07c-5.64,2.63-5.71,12.16-.13,15,2.14,1.1,5.42.77,7-.69.68-.61.68-.61,1,.2a1.7,1.7,0,0,0,2.76.23c.49-.52.55-1.53.55-7.24,0-7.2-.19-8.07-1.78-8.07-.75,0-1.79.74-1.79,1.33,0,.16-.61,0-1.36-.42A7.81,7.81,0,0,0,107.78,19.07Zm5.81,3.34c3.14,2.47,2.3,8-1.36,9.05a3.8,3.8,0,0,1-4-1,5.39,5.39,0,0,1,.16-7.65,3.1,3.1,0,0,1,2.73-1A3.67,3.67,0,0,1,113.59,22.41Z"/><path class="cls-1" d="M128.54,19A11.13,11.13,0,0,0,127,20c-.29.29-.58.46-.65.39s-.22-.42-.42-.78a1.73,1.73,0,0,0-2.62-.29c-.59.78-.62,14.08,0,14.66a1.94,1.94,0,0,0,2.66-.32c.39-.52.46-1.24.29-3.18-.29-4,.1-6.68,1.2-7.88.88-1,1.07-1,3.15-1h2.21l.09-1.14a1.47,1.47,0,0,0-.45-1.52A4.38,4.38,0,0,0,128.54,19Z"/><path class="cls-1" d="M141.84,18.94a5.22,5.22,0,0,0-1.59,1.14c-.75.84-1.17.87-1.17.09s-.65-1.36-1.62-1.36c-1.56,0-1.62.29-1.62,7.79,0,5,.09,7.1.39,7.39a2.13,2.13,0,0,0,2.46,0,24.17,24.17,0,0,0,.46-5.35l.09-5,1.07-.94a3.55,3.55,0,0,1,4.77-.13c.78.75.81.91.81,5.81,0,5.54.16,6,2,6,1.52,0,1.68-.75,1.55-6.78s-.51-7.52-2.56-8.53A6.67,6.67,0,0,0,141.84,18.94Z"/><path class="cls-1" d="M166.49,18.94a5.22,5.22,0,0,0-1.59,1.14c-.75.84-1.17.87-1.17.09s-.65-1.36-1.62-1.36c-1.56,0-1.62.29-1.62,7.79,0,5,.09,7.1.39,7.39a2.13,2.13,0,0,0,2.46,0,24.17,24.17,0,0,0,.46-5.35l.09-5,1.07-.94a3.55,3.55,0,0,1,4.77-.13c.78.75.81.91.81,5.81,0,5.54.16,6,2,6,1.52,0,1.68-.75,1.55-6.78s-.51-7.52-2.56-8.53A6.67,6.67,0,0,0,166.49,18.94Z"/><path class="cls-1" d="M181.25,19.2c-3.83,2-5.23,7.66-3,11.81A6.47,6.47,0,0,0,184,34.64c1.92.13,2.27.06,3.7-.84l1.62-1v.94c0,3.08-3,4.35-6.94,3-1.75-.61-2-.61-2.69-.19-1.49,1-.75,2.66,1.53,3.34,3.4,1,6.81.71,9-.91s2.47-2.07,2.57-11c.09-6.81,0-8-.39-8.69a1.76,1.76,0,0,0-1.3-.78A2.1,2.1,0,0,0,189.35,20c0,.23-.58,0-1.33-.48A7,7,0,0,0,181.25,19.2Zm6.64,3.6c2.79,2.79,1.76,7.72-1.78,8.66-3,.81-5.58-1.46-5.58-4.86,0-3.05,1.69-4.87,4.51-4.87C186.63,21.73,187,21.86,187.89,22.8Z"/><path class="cls-1" d="M205.64,19c-.72.48-.72.61-.72,7.39,0,6.29.07,6.94.59,7.43a1.57,1.57,0,0,0,2.46-.16c.42-.59.52-1.59.49-4.64,0-4.35-.36-9.76-.62-10A1.92,1.92,0,0,0,205.64,19Z"/><path class="cls-1" d="M215.4,19.17c-2.73,1.36-4.09,3.76-4.09,7.26a8.16,8.16,0,0,0,2.24,6.1c1.62,1.62,2.66,2,5.48,2,3.05,0,5.19-.87,5.55-2.27.39-1.62-1.3-2.33-3-1.26a5.43,5.43,0,0,1-5.23-.55,5.48,5.48,0,0,1,.26-8.21,5.58,5.58,0,0,1,5.23,0c1.52.81,2.33.42,2.33-1.14,0-1.75-1.23-2.4-4.64-2.53C217.21,18.46,216.53,18.55,215.4,19.17Z"/><path class="cls-1" d="M231.19,19a8,8,0,0,0-4.54,7.59,7.48,7.48,0,0,0,2.44,5.93,8,8,0,0,0,11.57-.74,8.32,8.32,0,0,0-2.33-12.52A10.38,10.38,0,0,0,231.19,19Zm5.84,3.3a5.26,5.26,0,0,1,2,4.25c0,2.89-1.81,4.9-4.44,4.9-4.9,0-6.39-7.36-1.95-9.47A4.25,4.25,0,0,1,237,22.31Z"/><path class="cls-1" d="M246.5,19c-.71.48-.71.61-.71,7.55,0,7.43.06,7.82,1.49,7.82S249,33.7,249,28.77c0-4,.1-4.74.65-5.64,1.23-2,4.9-2.18,5.81-.23a26.29,26.29,0,0,1,.35,5.42c0,5,.3,6.06,1.76,6.06s1.81-.81,1.81-5.77c0-5.78-.39-7.66-1.81-9.08-1.11-1.11-1.14-1.11-3.51-1-2.14.1-2.56.23-3.73,1.17s-1.33,1-1.33.42a2.44,2.44,0,0,0-1.62-1.65A2.91,2.91,0,0,0,246.5,19Z"/><path class="cls-1" d="M265.09,19.27C262.46,20.86,262,23.94,264,26a7.73,7.73,0,0,0,3.27,1.65c3.51,1.07,4.12,1.43,4.12,2.56,0,2.05-3.18,2.27-5.87.46-1.46-1-1.85-1.1-2.46-.81a1.2,1.2,0,0,0-.75,1.26c0,2.37,4.8,4.28,8.34,3.34,2.69-.74,4.24-2.95,3.79-5.38-.32-1.79-1.62-2.86-4.8-3.86-3-.94-3.89-1.72-3.47-2.89.55-1.49,3.47-1.49,5.22,0,1.1.94,1.82.91,2.47,0,1.13-1.72-1.79-3.73-5.39-3.73A5.49,5.49,0,0,0,265.09,19.27Z"/><path class="cls-1" d="M153.74,19.2c-.29.29-.39,2.37-.39,7.4,0,7.49.07,7.78,1.62,7.78a2,2,0,0,0,1.24-.39c.48-.49.55-13.62.06-14.56A1.84,1.84,0,0,0,153.74,19.2Z"/></g></g></svg>